<?xml version="1.0" encoding="UTF-8" standalone="no"?>
<!-- Created with Inkscape (http://www.inkscape.org/) -->

<svg
   width="2560"
   height="1360"
   viewBox="0 0 677.33333 359.83336"
   version="1.1"
   id="svg5"
   inkscape:version="1.2.2 (732a01da63, 2022-12-09)"
   sodipodi:docname="landing-light.svg"
   xmlns:inkscape="http://www.inkscape.org/namespaces/inkscape"
   xmlns:sodipodi="http://sodipodi.sourceforge.net/DTD/sodipodi-0.dtd"
   xmlns="http://www.w3.org/2000/svg"
   xmlns:svg="http://www.w3.org/2000/svg">
  <sodipodi:namedview
     id="namedview7"
     pagecolor="#ffffff"
     bordercolor="#000000"
     borderopacity="0.25"
     inkscape:showpageshadow="2"
     inkscape:pageopacity="0.0"
     inkscape:pagecheckerboard="0"
     inkscape:deskcolor="#d1d1d1"
     inkscape:document-units="mm"
     showgrid="false"
     showguides="true"
     inkscape:zoom="0.51328125"
     inkscape:cx="1055.9513"
     inkscape:cy="213.33333"
     inkscape:window-width="1920"
     inkscape:window-height="1013"
     inkscape:window-x="-9"
     inkscape:window-y="-9"
     inkscape:window-maximized="1"
     inkscape:current-layer="layer1">
    <inkscape:grid
       type="xygrid"
       id="grid1049"
       units="mm"
       spacingx="1"
       spacingy="1"
       originx="0"
       originy="0" />
  </sodipodi:namedview>
  <defs
     id="defs2" />
  <g
     inkscape:label="Layer 1"
     inkscape:groupmode="layer"
     id="layer1">
    <path
       id="rect4073"
       style="fill:#ffffff;fill-opacity:1;stroke:none;stroke-width:0.499999;stroke-linecap:round;stroke-linejoin:bevel;stroke-opacity:1"
       d="m 0,0 c 1.34947,2.3373599 2.70017,4.5980071 4.05195,6.784082 1.35178,2.186075 2.70451,4.297837 4.05918,6.337598 1.35467,2.039761 2.71086,4.007165 4.069,5.905582 1.35815,1.898418 2.71868,3.727543 4.08089,5.489588 1.36221,1.762045 2.72644,3.457418 4.09329,5.088061 1.36685,1.630644 2.73619,3.196793 4.10828,4.701005 1.37208,1.504213 2.74691,2.946182 4.12481,4.328935 1.3779,1.382753 2.7586,2.706104 4.1429,3.972367 1.38429,1.266264 2.77229,2.475524 4.16357,3.63027 1.39128,1.154745 2.78591,2.25496 4.18476,3.303157 1.39885,1.048198 2.80152,2.044411 4.20852,2.991032 1.40701,0.946621 2.81863,1.843878 4.23437,2.693893 1.41575,0.850015 2.83565,1.652842 4.26072,2.411222 1.42507,0.75838 2.8552,1.472339 4.29018,2.144055 1.43498,0.671716 2.87519,1.301335 4.32067,1.891358 1.44547,0.590022 2.89615,1.140346 4.3527,1.653645 1.45656,0.5133 2.9186,0.989373 4.38682,1.430921 1.46821,0.441548 2.94251,0.848414 4.42298,1.223181 1.48047,0.374767 2.96741,0.717472 4.46071,1.030428 1.4933,0.312957 2.99326,0.596027 4.49998,0.852144 1.50673,0.256117 3.02009,0.485116 4.54081,0.689364 1.52073,0.204248 3.0489,0.384218 4.58422,0.541569 1.53532,0.157351 3.07765,0.292303 4.62814,0.407727 1.55049,0.115424 3.10892,0.210921 4.67517,0.289388 3.1325,0.156935 6.29701,0.245285 9.49606,0.28422 3.19905,0.03894 6.43249,0.02845 9.70277,-0.01085 6.54054,-0.0786 13.22844,-0.273917 20.08197,-0.426847 3.42677,-0.07646 6.89509,-0.142368 10.40712,-0.177767 3.51203,-0.0354 7.06766,-0.04027 10.66963,0.0052 3.60198,0.04543 7.25002,0.141441 10.94662,0.307475 1.8483,0.08302 3.70874,0.183751 5.58157,0.304374 1.87284,0.120623 3.75804,0.261064 5.65599,0.424263 1.89795,0.1632 3.80881,0.348909 5.73247,0.559656 1.92365,0.210747 3.86055,0.446768 5.81049,0.710034 1.94995,0.263266 3.91326,0.55361 5.89008,0.874365 1.97682,0.320756 3.96694,0.671501 5.97122,1.054716 2.00427,0.383216 4.0226,0.79889 6.05492,1.249537 2.03232,0.450646 4.07873,0.936294 6.13968,1.459342 2.06095,0.523048 4.13633,1.083714 6.22649,1.684135 2.09017,0.60042 4.1949,1.240633 6.31486,1.923397 2.11996,0.682764 4.25495,1.408083 6.4053,2.178161 2.15034,0.770078 4.31648,1.585033 6.49779,2.447396 2.18131,0.862363 4.37795,1.771998 6.59081,2.731616 2.21287,0.959619 4.44193,1.969494 6.68693,3.03134 2.24501,1.061845 4.50584,2.175972 6.78357,3.345015 2.27773,1.169043 4.57227,2.392984 6.8833,3.674195 2.31104,1.281211 4.63863,2.619485 6.98355,4.017835 2.34493,1.39835 4.70699,2.85654 7.08639,4.377 2.37941,1.52046 4.77631,3.10307 7.19078,4.75061 2.41447,1.64754 4.84659,3.36015 7.29671,5.13974 2.45012,1.77959 4.91837,3.6262 7.40472,5.54281 2.48635,1.91662 4.9911,3.90331 7.51427,5.96191 2.52316,2.05861 5.0648,4.18939 7.62537,6.39496 2.56057,2.20557 5.13999,4.48601 7.73855,6.84351 2.59855,2.35751 5.21613,4.79212 7.85326,7.30653 2.63713,2.51441 5.29377,5.10825 7.97006,7.78454 3.95475,3.95475 7.82455,7.89672 11.61635,11.81737 3.79179,3.92064 7.50549,7.82025 11.14712,11.69076 3.64163,3.87051 7.21136,7.71174 10.71562,11.51609 3.50427,3.80434 6.94319,7.57173 10.32289,11.29388 6.75939,7.4443 13.2826,14.70802 19.62051,21.72736 3.16895,3.50967 6.29132,6.95849 9.3741,10.33787 3.08278,3.37938 6.12596,6.68933 9.13536,9.92239 3.0094,3.23307 5.985,6.38917 8.93382,9.45989 2.94882,3.07072 5.87052,6.05647 8.77156,8.94881 2.90104,2.89234 5.78148,5.69121 8.64753,8.38915 1.43303,1.34897 2.86247,2.67294 4.28915,3.9703 1.42668,1.29736 2.85067,2.56842 4.2726,3.81217 1.42194,1.24375 2.84194,2.46022 4.26073,3.64836 1.41878,1.18813 2.83625,2.34782 4.25348,3.47834 1.41724,1.13051 2.83413,2.23175 4.25142,3.30264 1.41729,1.07089 2.83507,2.11147 4.25401,3.12074 1.41894,1.00926 2.83904,1.987 4.26124,2.93263 1.42219,0.94564 2.84659,1.85885 4.27364,2.73886 1.42704,0.88 2.85668,1.72701 4.29017,2.53938 1.4335,0.81236 2.87086,1.59046 4.3124,2.33319 1.44155,0.74272 2.88756,1.44972 4.33876,2.1208 1.45119,0.67108 2.90731,1.30581 4.36976,1.90324 1.46244,0.59743 2.93115,1.15771 4.40644,1.67948 1.4753,0.52178 2.95753,1.00541 4.44728,1.44953 1.48974,0.44412 2.98695,0.8489 4.49275,1.21336 1.50579,0.36446 3.01995,0.68872 4.54339,0.97152 1.52344,0.28279 3.056,0.52382 4.59868,0.72295 1.54269,0.19913 3.09561,0.35628 4.65915,0.46974 1.56354,0.11346 3.13776,0.18351 4.72374,0.20929 1.58599,0.0258 3.18348,0.007 4.79351,-0.0568 1.61003,-0.0639 3.23276,-0.17309 4.86844,-0.32867 1.63568,-0.15558 3.28457,-0.35741 4.9475,-0.60668 1.66292,-0.24927 3.33996,-0.54594 5.03173,-0.8909 1.69177,-0.34496 3.3984,-0.73815 5.12062,-1.18081 1.72222,-0.44265 3.45989,-0.93456 5.21415,-1.47691 1.75427,-0.54235 3.52495,-1.13517 5.31286,-1.77922 1.78791,-0.64405 3.59305,-1.33945 5.4162,-2.08721 1.82316,-0.74776 3.66421,-1.54794 5.52421,-2.4014 1.86,-0.85347 3.73894,-1.7601 5.63739,-2.72128 1.89844,-0.96118 3.81671,-1.97698 5.7552,-3.04788 1.93849,-1.0709 3.89703,-2.19702 5.87716,-3.37964 1.98013,-1.18262 3.98194,-2.42178 6.00532,-3.71812 2.02337,-1.29634 4.06836,-2.65021 6.13658,-4.06228 2.06821,-1.41207 4.15937,-2.88233 6.27403,-4.41214 2.11466,-1.5298 4.25293,-3.11916 6.41563,-4.7687 2.1627,-1.64953 4.35004,-3.35916 6.56239,-5.13043 2.21235,-1.77128 4.4497,-3.60387 6.71329,-5.49889 2.26358,-1.89502 4.55343,-3.85278 6.86986,-5.87355 2.31643,-2.02076 4.65971,-4.10484 7.03058,-6.25336 2.37087,-2.14852 4.76903,-4.36112 7.19594,-6.63939 2.42691,-2.27827 4.88244,-4.6221 7.36699,-7.03213 2.48456,-2.4101 4.99839,-4.88631 7.54218,-7.43011 V 359.83333 H 0 Z"
       inkscape:export-filename="landing-light.svg"
       inkscape:export-xdpi="96"
       inkscape:export-ydpi="96" />
  </g>
</svg>
