<?xml version="1.0" encoding="UTF-8" standalone="no"?>
<!-- Created with Inkscape (http://www.inkscape.org/) -->

<svg
   width="2560"
   height="1360"
   viewBox="0 0 677.33333 359.83336"
   version="1.1"
   id="svg5"
   inkscape:version="1.2.2 (732a01da63, 2022-12-09)"
   xmlns:inkscape="http://www.inkscape.org/namespaces/inkscape"
   xmlns:sodipodi="http://sodipodi.sourceforge.net/DTD/sodipodi-0.dtd"
   xmlns="http://www.w3.org/2000/svg"
   xmlns:svg="http://www.w3.org/2000/svg">
  <sodipodi:namedview
     id="namedview7"
     pagecolor="#ffffff"
     bordercolor="#000000"
     borderopacity="0.25"
     inkscape:showpageshadow="2"
     inkscape:pageopacity="0.0"
     inkscape:pagecheckerboard="0"
     inkscape:deskcolor="#d1d1d1"
     inkscape:document-units="mm"
     showgrid="false"
     showguides="true">
    <inkscape:grid
       type="xygrid"
       id="grid1049"
       units="mm"
       spacingx="1"
       spacingy="1"
       originx="0"
       originy="0" />
  </sodipodi:namedview>
  <defs
     id="defs2" />
  <g
     inkscape:label="Layer 1"
     inkscape:groupmode="layer"
     id="layer1"
     transform="translate(-732.82392)">
    <path
       id="rect4073-8"
       style="fill:#080054;fill-opacity:1;stroke:none;stroke-width:0.499999;stroke-linecap:round;stroke-linejoin:bevel;stroke-opacity:1"
       d="M 1410.1572,4.4166666e-6 C 1408.8078,2.3373644 1407.4571,4.5980114 1406.1053,6.7840864 c -1.3518,2.186075 -2.7045,4.2978366 -4.0592,6.3375976 -1.3547,2.03976 -2.7108,4.007164 -4.069,5.905581 -1.3581,1.898418 -2.7187,3.727544 -4.0809,5.489588 -1.3622,1.762045 -2.7264,3.457418 -4.0933,5.088061 -1.3668,1.630644 -2.7362,3.196793 -4.1082,4.701006 -1.3721,1.504213 -2.747,2.946182 -4.1249,4.328935 -1.3779,1.382753 -2.7586,2.706104 -4.1429,3.972367 -1.3842,1.266264 -2.7722,2.475524 -4.1635,3.63027 -1.3913,1.154745 -2.7859,2.25496 -4.1848,3.303157 -1.3988,1.048198 -2.8015,2.044411 -4.2085,2.991032 -1.407,0.946621 -2.8186,1.843878 -4.2344,2.693893 -1.4157,0.850015 -2.8356,1.652842 -4.2607,2.411222 -1.425,0.75838 -2.8552,1.472339 -4.2902,2.144055 -1.4349,0.671716 -2.8751,1.301335 -4.3206,1.891358 -1.4455,0.590022 -2.8962,1.140346 -4.3527,1.653645 -1.4566,0.5133 -2.9186,0.989373 -4.3868,1.430921 -1.4683,0.441548 -2.9426,0.848414 -4.423,1.223181 -1.4805,0.374767 -2.9674,0.717472 -4.4607,1.030428 -1.4933,0.312957 -2.9933,0.596027 -4.5,0.852144 -1.5067,0.256117 -3.0201,0.485116 -4.5408,0.689364 -1.5208,0.204248 -3.0489,0.384218 -4.5843,0.541569 -1.5353,0.157351 -3.0776,0.292303 -4.6281,0.407727 -1.5505,0.115424 -3.1089,0.210921 -4.6752,0.289388 -3.1325,0.156935 -6.297,0.245285 -9.496,0.28422 -3.1991,0.03894 -6.4325,0.02845 -9.7028,-0.01085 -6.5405,-0.0786 -13.2284,-0.273917 -20.082,-0.426847 -3.4267,-0.07646 -6.895,-0.142368 -10.4071,-0.177767 -3.512,-0.0354 -7.0676,-0.04027 -10.6696,0.0052 -3.602,0.04543 -7.25,0.141441 -10.9466,0.307475 -1.8483,0.08302 -3.7088,0.183751 -5.5816,0.304374 -1.8728,0.120623 -3.758,0.261064 -5.656,0.424263 -1.8979,0.1632 -3.8088,0.348909 -5.7325,0.559656 -1.9236,0.210747 -3.8605,0.446768 -5.8104,0.710034 -1.95,0.263266 -3.9133,0.55361 -5.8901,0.874365 -1.9768,0.320756 -3.967,0.671501 -5.9712,1.054716 -2.0043,0.383216 -4.0226,0.79889 -6.055,1.249537 -2.0323,0.450646 -4.0787,0.936294 -6.1396,1.459342 -2.061,0.523048 -4.1364,1.083714 -6.2265,1.684135 -2.0902,0.60042 -4.1949,1.240633 -6.3149,1.923397 -2.12,0.682764 -4.2549,1.408083 -6.4053,2.178161 -2.1503,0.770078 -4.3165,1.585033 -6.4978,2.447399 -2.1813,0.86236 -4.3779,1.77199 -6.5908,2.73161 -2.2129,0.95962 -4.4419,1.9695 -6.6869,3.03134 -2.245,1.06185 -4.5059,2.17597 -6.7836,3.34502 -2.2777,1.16904 -4.5723,2.39298 -6.8833,3.67419 -2.311,1.28121 -4.6386,2.619484 -6.9835,4.017834 -2.345,1.39835 -4.707,2.85654 -7.0864,4.377 -2.3795,1.52046 -4.7764,3.10307 -7.1908,4.75061 -2.4145,1.64754 -4.8466,3.36015 -7.2967,5.13974 -2.4502,1.77959 -4.9184,3.6262 -7.4048,5.54281 -2.4863,1.91662 -4.9911,3.90331 -7.5142,5.96191 -2.5232,2.05861 -5.0648,4.18939 -7.6254,6.39496 -2.5606,2.20557 -5.14,4.48601 -7.7385,6.84351 -2.5986,2.35751 -5.2162,4.79212 -7.8533,7.30653 -2.6371,2.51441 -5.2938,5.10825 -7.9701,7.78454 -3.9547,3.95475 -7.8245,7.89672 -11.6163,11.81737 -3.7918,3.92064 -7.5055,7.82025 -11.1471,11.69076 -3.6417,3.87051 -7.2114,7.71174 -10.7157,11.51609 -3.5042,3.80434 -6.9432,7.57173 -10.3229,11.29388 -6.7593,7.4443 -13.2826,14.70802 -19.62046,21.72736 -3.16895,3.50967 -6.29132,6.95849 -9.3741,10.33787 -3.08278,3.37938 -6.12596,6.68933 -9.13536,9.92239 -3.0094,3.23307 -5.985,6.38917 -8.93382,9.45989 -2.94882,3.07072 -5.87052,6.05647 -8.77156,8.94881 -2.90104,2.89234 -5.78148,5.69121 -8.64753,8.38915 -1.43303,1.34897 -2.86247,2.67294 -4.28915,3.9703 -1.42668,1.29736 -2.85067,2.56842 -4.2726,3.81217 -1.42194,1.24375 -2.84194,2.46022 -4.26073,3.64836 -1.41878,1.18813 -2.83625,2.34782 -4.25348,3.47834 -1.41724,1.13051 -2.83413,2.23175 -4.25142,3.30264 -1.41729,1.07089 -2.83507,2.11147 -4.25401,3.12074 -1.41894,1.00926 -2.83904,1.987 -4.26124,2.93263 -1.42219,0.94564 -2.84659,1.85885 -4.27364,2.73886 -1.42704,0.88 -2.85668,1.72701 -4.29017,2.53938 -1.4335,0.81236 -2.87086,1.59046 -4.3124,2.33319 -1.44155,0.74272 -2.88756,1.44972 -4.33876,2.1208 -1.45119,0.67108 -2.90731,1.30581 -4.36976,1.90324 -1.46244,0.59743 -2.93115,1.15771 -4.40644,1.67948 -1.4753,0.52178 -2.95753,1.00541 -4.44728,1.44953 -1.48974,0.44412 -2.98695,0.8489 -4.49275,1.21336 -1.50579,0.36446 -3.01995,0.68872 -4.54339,0.97152 -1.52344,0.28279 -3.056,0.52382 -4.59868,0.72295 -1.54269,0.19913 -3.09561,0.35628 -4.65915,0.46974 -1.56354,0.11346 -3.13776,0.18351 -4.72374,0.20929 -1.58599,0.0258 -3.18348,0.007 -4.79351,-0.0568 -1.61003,-0.0639 -3.23276,-0.17309 -4.86844,-0.32867 -1.63568,-0.15558 -3.28457,-0.35741 -4.9475,-0.60668 -1.66292,-0.24927 -3.33996,-0.54594 -5.03173,-0.8909 -1.69177,-0.34496 -3.3984,-0.73815 -5.12062,-1.18081 -1.72222,-0.44265 -3.45989,-0.93456 -5.21415,-1.47691 -1.75427,-0.54235 -3.52495,-1.13517 -5.31286,-1.77922 -1.78791,-0.64405 -3.59305,-1.33945 -5.4162,-2.08721 -1.82316,-0.74776 -3.66421,-1.54794 -5.52421,-2.4014 -1.86,-0.85347 -3.73894,-1.7601 -5.63739,-2.72128 -1.89844,-0.96118 -3.81671,-1.97698 -5.7552,-3.04788 -1.93849,-1.0709 -3.89703,-2.19702 -5.87716,-3.37964 -1.98013,-1.18262 -3.98194,-2.42178 -6.00532,-3.71812 -2.02337,-1.29634 -4.06836,-2.65021 -6.13658,-4.06228 -2.06821,-1.41207 -4.15937,-2.88233 -6.27403,-4.41214 -2.11466,-1.5298 -4.25293,-3.11916 -6.41563,-4.7687 -2.1627,-1.64953 -4.35004,-3.35916 -6.56239,-5.13043 -2.21235,-1.77128 -4.4497,-3.60387 -6.71329,-5.49889 -2.26358,-1.89502 -4.55343,-3.85278 -6.86986,-5.87355 -2.31643,-2.02076 -4.65971,-4.10484 -7.03058,-6.25336 -2.37087,-2.14852 -4.76903,-4.36112 -7.19594,-6.63939 -2.42691,-2.27827 -4.88244,-4.6221 -7.36699,-7.03213 -2.48456,-2.4101 -4.99839,-4.88631 -7.54218,-7.43011 v 127.34675 h 677.33328 z"
       inkscape:export-filename="landing-dark.svg"
       inkscape:export-xdpi="96"
       inkscape:export-ydpi="96" />
  </g>
</svg>
