<?xml version="1.0" encoding="UTF-8" standalone="no"?>
<!-- Created with Inkscape (http://www.inkscape.org/) -->

<svg
   width="4.2055206in"
   height="3.5968759in"
   viewBox="0 0 106.82022 91.360647"
   version="1.1"
   id="svg5"
   inkscape:version="1.1.1 (3bf5ae0d25, 2021-09-20)"
   xml:space="preserve"
   sodipodi:docname="logo_fav.svg"
   xmlns:inkscape="http://www.inkscape.org/namespaces/inkscape"
   xmlns:sodipodi="http://sodipodi.sourceforge.net/DTD/sodipodi-0.dtd"
   xmlns="http://www.w3.org/2000/svg"
   xmlns:svg="http://www.w3.org/2000/svg"><sodipodi:namedview
     id="namedview7"
     pagecolor="#ffffff"
     bordercolor="#000000"
     borderopacity="0.25"
     inkscape:showpageshadow="2"
     inkscape:pageopacity="0.0"
     inkscape:pagecheckerboard="0"
     inkscape:deskcolor="#d1d1d1"
     inkscape:document-units="mm"
     showgrid="false"
     inkscape:pageshadow="2"
     inkscape:zoom="1"
     inkscape:cx="282.5"
     inkscape:cy="82.5"
     inkscape:window-width="1208"
     inkscape:window-height="1011"
     inkscape:window-x="2196"
     inkscape:window-y="9"
     inkscape:window-maximized="0"
     inkscape:current-layer="layer1"
     fit-margin-top="0"
     fit-margin-left="0"
     fit-margin-right="0"
     fit-margin-bottom="0"><inkscape:grid
       type="xygrid"
       id="grid1049"
       units="mm"
       spacingx="1"
       spacingy="1"
       originx="-88.333123"
       originy="-47.424601" /></sodipodi:namedview><defs
     id="defs2" /><g
     inkscape:groupmode="layer"
     id="layer4"
     inkscape:label="red"
     style="display:none"
     transform="translate(-88.333117,-47.424598)"><path
       style="display:inline;fill:#000000;stroke-width:0.332584"
       d="m 418.04236,65.04238 c -42.99986,-17.845329 -40.87102,-67.256134 3.54805,-82.349613 31.79207,-10.802896 68.39649,10.840787 70.22428,41.522643 1.95839,32.873279 -38.70801,55.37879 -73.77232,40.82688 z"
       id="path10100"
       transform="translate(-297.68583,68.3787)" /><path
       style="display:inline;fill:#000000;stroke-width:0.332584"
       d="m 448.6753,-36.684006 c 0.0325,-0.921119 0.63946,-1.300796 1.86065,-1.163498 4.28484,0.481563 16.35349,4.235899 17.50315,5.444929 0.42086,0.442579 0.15163,1.723505 -0.33555,1.596363 -0.1339,-0.03424 -3.61217,-1.087957 -7.72998,-2.34022 -4.1179,-1.252238 -8.34905,-2.433229 -9.40265,-2.624375 -1.61684,-0.293315 -1.91249,-0.435745 -1.89562,-0.913183 z"
       id="path10252"
       transform="translate(-297.68583,68.3787)" /><path
       style="display:inline;fill:#000000;stroke-width:0.332584"
       d="m 434.47502,-37.83938 c -0.63992,-1.426363 0.83473,-1.732951 5.60542,-1.165419 4.10131,0.487908 4.88275,0.824349 4.262,1.834963 -0.54081,0.880638 -9.44293,0.276594 -9.86742,-0.669544 z"
       id="path10248"
       transform="translate(-297.68583,68.3787)" /><path
       style="display:inline;fill:#000000;stroke-width:0.332584"
       d="m 427.97257,-37.823446 c -0.38047,-0.848046 0.90383,-1.407705 1.70799,-0.744317 0.66285,0.546827 0.002,1.524108 -0.8471,1.252553 -0.40647,-0.12974 -0.7938,-0.358642 -0.86089,-0.508236 z"
       id="path10244"
       transform="translate(-297.68583,68.3787)" /><path
       style="display:inline;fill:#000000;stroke-width:0.332584"
       d="m 456.6415,-26.28611 c -0.0584,-0.588381 0.0945,-0.764803 0.84211,-0.971407 1.70772,-0.471977 3.41926,0.75439 2.64774,1.89718 -0.56725,0.840315 -3.38896,0.09178 -3.48985,-0.925773 z"
       id="path10240"
       transform="translate(-297.68583,68.3787)" /><path
       style="display:inline;fill:#000000;stroke-width:0.332584"
       d="m 446.20197,-27.809492 c 0.033,-0.933271 1.01487,-1.337007 2.92091,-1.201008 1.99802,0.142571 2.63391,0.636929 2.17435,1.690387 -0.41732,0.957044 -5.13035,0.504343 -5.09526,-0.489379 z"
       id="path10236"
       transform="translate(-297.68583,68.3787)" /><path
       style="display:inline;fill:#000000;stroke-width:0.332584"
       d="m 477.63049,-16.957773 c -5.82851,-4.217879 -5.75861,-11.155569 0.1452,-14.413181 6.13725,-3.386452 16.25057,1.404588 16.60656,7.867108 0.39902,7.244469 -10.11131,11.351557 -16.75178,6.546073 z"
       id="path10232"
       transform="translate(-297.68583,68.3787)" /><path
       style="display:inline;fill:#000000;stroke-width:0.332584"
       d="m 438.78963,-28.262686 c -0.37207,-0.829296 0.19093,-1.585746 1.13153,-1.520326 1.06345,0.07393 1.69055,0.547705 1.6654,1.258796 -0.0422,1.195581 -2.28385,1.405198 -2.79693,0.26153 z"
       id="path10228"
       transform="translate(-297.68583,68.3787)" /><path
       style="display:inline;fill:#000000;stroke-width:0.332584"
       d="m 501.59708,-4.27242 c -0.87043,-0.743214 -0.21127,-2.066093 0.98799,-1.98268 1.44471,0.10047 2.00225,1.604985 0.81894,2.209896 -0.95171,0.486518 -0.97435,0.483673 -1.80693,-0.227216 z"
       id="path10224"
       transform="translate(-297.68583,68.3787)" /><path
       style="display:inline;fill:#000000;stroke-width:0.332584"
       d="m 490.05899,-5.534948 c -0.54665,-0.640598 -0.0959,-1.632988 0.8079,-1.779136 1.70518,-0.275616 2.63812,1.800745 1.02411,2.279151 -0.88949,0.263642 -1.26871,0.160139 -1.83205,-0.500081 z"
       id="path10220"
       transform="translate(-297.68583,68.3787)" /><path
       style="display:inline;fill:#000000;stroke-width:0.332584"
       d="m 408.60361,-30.819987 c -2.25375,-2.117996 -2.13144,-4.997724 0.28842,-6.789452 4.57288,-3.385885 11.89091,0.835135 9.78713,5.645193 -1.51515,3.465252 -6.94932,4.08223 -10.07555,1.144259 z"
       id="path10216"
       transform="translate(-297.68583,68.3787)" /><path
       style="display:inline;fill:#000000;stroke-width:0.332584"
       d="m 502.63405,1.897691 c -0.66117,-0.982922 0.17856,-1.753581 1.46308,-1.342714 0.92284,0.294803 1.06916,0.4789 0.89173,1.11894 -0.33048,1.192519 -1.62072,1.315099 -2.35481,0.223774 z"
       id="path10212"
       transform="translate(-297.68583,68.3787)" /><path
       style="display:inline;fill:#000000;stroke-width:0.332584"
       d="m 402.04932,-20.902422 c -1.20194,-1.085422 -0.92054,-2.422159 0.63292,-3.006484 2.86798,-1.078691 5.30367,1.956951 2.65223,3.305525 -1.37358,0.698664 -2.2708,0.616994 -3.28515,-0.299041 z"
       id="path10208"
       transform="translate(-297.68583,68.3787)" /><path
       style="display:inline;fill:#000000;stroke-width:0.332584"
       d="m 503.98702,16.099555 c -1.90716,-1.820604 -2.44585,-4.477315 -1.25177,-6.17342 3.29705,-4.683236 11.78365,-2.689057 12.48911,2.934673 0.62568,4.987639 -7.07912,7.208263 -11.23734,3.238747 z"
       id="path10204"
       transform="translate(-297.68583,68.3787)" /><path
       style="display:inline;fill:#000000;stroke-width:0.332584"
       d="m 391.70834,-11.311505 c -1.00697,-1.426685 0.55128,-2.88927 2.43598,-2.286437 0.92469,0.295433 1.73555,1.639144 1.42255,2.356588 -0.51964,1.190641 -3.0005,1.145622 -3.85853,-0.07015 z"
       id="path10200"
       transform="translate(-297.68583,68.3787)" /><path
       style="display:inline;fill:#000000;stroke-width:0.332584"
       d="m 499.07588,30.883466 c -1.26758,-1.485693 0.0792,-3.092719 2.06062,-2.458953 1.95082,0.623786 1.94447,2.66739 -0.009,2.957127 -1.32345,0.196277 -1.49451,0.154742 -2.05157,-0.498118 z"
       id="path10196"
       transform="translate(-297.68583,68.3787)" /><path
       style="display:inline;fill:#000000;stroke-width:0.332584"
       d="m 498.41635,38.382528 c -0.58338,-1.300253 0.52988,-2.275575 2.04438,-1.791163 1.56865,0.501992 1.59618,2.184152 0.0427,2.613509 -1.20528,0.333118 -1.64665,0.159212 -2.08704,-0.822273 z"
       id="path10192"
       transform="translate(-297.68583,68.3787)" /><path
       style="display:inline;fill:#000000;stroke-width:0.332584"
       d="m 370.46528,-1.660371 c -0.737,-2.229747 10.22183,-17.50009 13.36712,-18.626145 2.5832,-0.924778 2.19609,1.27291 -0.75021,4.259547 -1.25803,1.275287 -3.18196,3.519841 -4.27532,4.987977 -1.0934,1.468104 -2.11723,2.680682 -2.27516,2.694606 -0.15803,0.01386 -0.26265,0.171452 -0.23271,0.350038 0.0863,0.51404 -3.45696,6.661939 -4.02239,6.979134 -0.68221,0.382753 -1.57701,0.06405 -1.81142,-0.645198 z"
       id="path10188"
       transform="translate(-297.68583,68.3787)" /><path
       style="display:inline;fill:#000000;stroke-width:0.332584"
       d="m 368.16719,15.195209 c -3.99457,-3.392469 -0.99648,-8.492809 4.56658,-7.768623 4.17361,0.543302 5.8669,6.089312 2.47138,8.09451 -2.07767,1.226946 -5.39011,1.073583 -7.03796,-0.325887 z"
       id="path10184"
       transform="translate(-297.68583,68.3787)" /><path
       style="display:inline;fill:#000000;stroke-width:0.332584"
       d="m 496.07259,64.05895 c -0.45713,-0.67956 -0.37212,-0.8251 2.56467,-4.39131 6.65624,-8.082944 11.17026,-18.70106 11.89362,-27.976675 0.35715,-4.579129 2.96298,-3.996578 2.71701,0.607369 -0.50706,9.489719 -5.24562,20.416056 -12.73122,29.356286 -2.65072,3.16576 -3.59003,3.67397 -4.44407,2.40433 z"
       id="path10180"
       transform="translate(-297.68583,68.3787)" /><path
       style="display:inline;fill:#000000;stroke-width:0.332584"
       d="m 367.25554,28.507265 c -0.36152,-1.549072 0.60179,-2.543847 2.02312,-2.089167 0.87375,0.279776 1.24383,1.786361 0.66925,2.726184 -0.602,0.984798 -2.4139,0.556137 -2.69237,-0.637017 z"
       id="path10176"
       transform="translate(-297.68583,68.3787)" /><path
       style="display:inline;fill:#000000;stroke-width:0.332584"
       d="m 368.4547,36.4197 c -0.74644,-1.870656 -0.0259,-3.287611 1.4345,-2.82046 1.18539,0.384679 1.49344,3.729989 0.36479,3.991025 -0.92195,0.21327 -1.36114,-0.07241 -1.79929,-1.170565 z"
       id="path10168"
       transform="translate(-297.68583,68.3787)" /><path
       style="display:inline;fill:#000000;stroke-width:0.332584"
       d="m 371.49321,45.937042 c -1.68745,-3.630114 -1.68529,-4.752332 0.008,-4.417554 1.14205,0.225497 4.39379,6.752185 3.80161,7.629773 -0.93696,1.388446 -2.14495,0.370096 -3.81013,-3.212219 z"
       id="path10164"
       transform="translate(-297.68583,68.3787)" /><path
       style="display:inline;fill:#000000;stroke-width:0.332584"
       d="m 394.06455,65.54933 c -0.36691,-0.81753 0.56865,-1.73737 1.8615,-1.83033 3.15844,-0.22708 5.64766,0.94049 4.52192,2.12096 -0.65282,0.68457 -6.05632,0.43865 -6.38342,-0.29063 z"
       id="path10096"
       transform="translate(-297.68583,68.3787)" /><path
       style="display:inline;fill:#000000;stroke-width:0.332584"
       d="m 376.5256,67.15098 c -3.7746,-3.63182 -2.15536,-8.4567 3.17696,-9.46681 6.66338,-1.262313 11.78773,5.51449 7.21516,9.54143 -2.90808,2.56108 -7.68866,2.52672 -10.39212,-0.0746 z"
       id="path10092"
       transform="translate(-297.68583,68.3787)" /><path
       style="display:inline;fill:#000000;stroke-width:0.332584"
       d="m 446.9205,1.999775 c -1.20185,-1.028784 -0.78198,-2.845891 0.81313,-3.519123 1.23298,-0.520397 3.29161,0.02782 4.02932,1.07306 0.9527,1.349894 -1.04162,3.663888 -2.7005,3.133292 -0.33416,-0.106705 -0.82356,-0.194666 -1.0877,-0.195089 -0.26409,-4.55e-4 -0.73876,-0.221308 -1.05425,-0.492147 z"
       id="path10140"
       transform="translate(-297.68583,68.3787)" /><path
       style="display:inline;fill:#000000;stroke-width:0.332584"
       d="m 472.77622,29.119741 c -0.47355,-0.576803 -0.0658,-1.765508 0.72999,-2.128075 1.20858,-0.550712 3.16703,0.872044 2.68121,1.947863 -0.47267,1.048178 -2.6062,1.16068 -3.41109,0.180252 z"
       id="path10136"
       transform="translate(-297.68583,68.3787)" /><path
       style="display:inline;fill:#000000;stroke-width:0.332584"
       d="m 460.87319,33.386727 c -0.72737,-1.621295 -0.14662,-2.918042 1.67946,-3.750061 2.87337,-1.309338 6.37327,1.402337 5.22054,4.044801 -1.10384,2.530406 -5.72088,2.333209 -6.89987,-0.294706 z"
       id="path10132"
       transform="translate(-297.68583,68.3787)" /><path
       style="display:inline;fill:#000000;stroke-width:0.332584"
       d="m 468.27716,42.603435 c -0.45354,-0.67418 0.0281,-1.565748 0.96119,-1.779212 1.65499,-0.378646 3.12586,2.096836 1.5274,2.57063 -0.95946,0.28441 -1.98416,-0.04148 -2.48877,-0.7911 z"
       id="path10128"
       transform="translate(-297.68583,68.3787)" /><path
       style="display:inline;fill:#000000;stroke-width:0.332584"
       d="m 428.8051,41.325788 c -0.48634,-1.266749 0.2778,-2.315915 1.8665,-2.562585 1.55528,-0.241525 3.07972,1.4362 2.504,2.755892 -0.60484,1.386679 -3.81847,1.244547 -4.3705,-0.193307 z"
       id="path10124"
       transform="translate(-297.68583,68.3787)" /><path
       style="display:inline;fill:#000000;stroke-width:0.332584"
       d="m 402.29411,41.169375 c -0.45431,-1.01259 -0.23804,-1.546967 0.79394,-1.96236 1.54873,-0.623162 3.67584,0.814773 3.11324,2.104429 -0.27569,0.630394 -1.93096,1.188598 -2.74984,0.926742 -0.43762,-0.13344 -0.9564,-0.620237 -1.15758,-1.068905 z"
       id="path10116"
       transform="translate(-297.68583,68.3787)" /><path
       style="display:inline;fill:#000000;stroke-width:0.332584"
       d="m 482.97774,66.94849 c -0.60814,-0.71264 -0.0465,-1.6827 1.03797,-1.79282 0.74356,-0.0755 1.04446,0.0585 1.51061,0.6733 1.27647,1.68363 -1.156,2.75176 -2.54856,1.11948 z"
       id="path10172"
       transform="translate(-297.68583,68.3787)" /><path
       style="display:inline;fill:#000000;stroke-width:0.332584"
       d="m 515.70481,118.2844 c -9.31219,-5.20192 -12.73565,-15.8929 -7.34393,-22.93416 9.43529,-12.32185 31.13491,-6.74883 33.40426,8.57914 0.66492,4.49131 1.09389,4.15687 -5.22305,4.07176 -21.25466,-0.28627 -21.36581,-0.27954 -20.21609,1.23412 3.37214,4.43988 10.53241,5.95173 15.66658,3.30801 2.04713,-1.05407 2.0828,-1.05811 2.89931,-0.33538 0.45469,0.40246 1.75824,1.44109 2.89677,2.30828 2.07014,1.57646 2.07014,1.57646 1.03193,2.46184 -5.37829,4.58627 -16.15418,5.19521 -23.11578,1.30639 z"
       id="path10084"
       transform="translate(-297.68583,68.3787)" /><path
       style="display:inline;fill:#000000;stroke-width:0.332584"
       d="m 490.83103,98.37209 c -0.77069,-12.33729 -1.33949,-22.50082 -1.26417,-22.58541 0.18138,-0.20358 8.37088,0.0165 8.45951,0.22755 0.21139,0.50285 3.08525,44.72273 2.91172,44.80181 -0.11493,0.0525 -2.12064,0.0708 -4.45737,0.0414 -4.24849,-0.054 -4.24849,-0.054 -5.64969,-22.48529 z"
       id="path10080"
       transform="translate(-297.68583,68.3787)" /><path
       style="display:inline;fill:#000000;stroke-width:0.332584"
       d="m 474.90862,118.00696 c -4.71131,-3.16672 -6.11498,-6.38715 -6.72025,-15.41795 -0.52116,-7.77661 -0.18421,-7.04873 -3.33094,-7.19419 -1.4365,-0.0664 -2.64902,-0.13256 -2.69446,-0.14721 -0.20271,-0.0684 -0.56785,-7.25931 -0.3718,-7.34864 0.12105,-0.0551 1.39825,-0.0749 2.8381,-0.044 3.306,0.0713 3.29804,0.0851 2.93301,-5.12601 -0.29966,-4.27821 -0.29966,-4.27821 4.16655,-4.13802 2.45646,0.077 4.4981,0.21099 4.53693,0.29771 0.0389,0.0865 0.16564,2.18115 0.28166,4.65444 0.11604,2.47327 0.38918,4.55405 0.60708,4.62362 0.21752,0.0705 1.82738,0.19347 3.57658,0.27515 1.74925,0.0816 3.28678,0.18052 3.41676,0.21969 0.24862,0.079 0.84341,7.25209 0.60782,7.35105 -0.076,0.0325 -1.74105,0.011 -3.70064,-0.047 -4.47489,-0.13147 -4.33962,-0.35343 -3.9016,6.39973 0.46832,7.22149 1.48479,8.88505 6.15535,10.07384 1.89707,0.48226 1.89707,0.48226 2.08457,3.51176 0.30787,4.96998 0.32347,4.90744 -1.21582,4.85999 -2.28537,-0.0705 -7.58878,-1.67479 -9.26888,-2.80411 z"
       id="path10076"
       transform="translate(-297.68583,68.3787)" /><path
       style="display:inline;fill:#000000;stroke-width:0.332584"
       d="m 513.43622,138.99503 c -0.74568,-0.41116 -0.74171,-0.48197 0.0658,-1.15411 0.5072,-0.42206 0.80273,-0.39104 2.15669,0.22634 3.2657,1.48916 6.72067,0.70475 5.54925,-1.26 -0.41505,-0.69595 -0.86102,-0.8951 -3.46245,-1.5461 -4.57136,-1.14385 -6.35664,-3.43811 -4.3347,-5.5706 2.03588,-2.14722 10.01509,-1.30324 8.1653,0.8637 -0.35432,0.41499 -0.76934,0.39138 -2.4245,-0.13793 -2.20522,-0.70296 -4.00395,-0.51491 -4.43292,0.46846 -0.47734,1.09412 0.22119,1.60691 3.55959,2.61329 2.6338,0.79369 3.34838,1.13425 4.16571,1.98152 3.82902,3.97066 -3.20241,6.71478 -9.00788,3.51538 z"
       id="path10072"
       transform="translate(-297.68583,68.3787)" /><path
       style="display:inline;fill:#000000;stroke-width:0.332584"
       d="m 498.65521,139.37822 c -5.87099,-2.98922 -4.07526,-10.61373 2.56688,-10.89855 3.94277,-0.16909 7.20978,3.01649 7.06642,6.89022 -0.15633,4.22506 -5.13703,6.29748 -9.6333,4.00833 z"
       id="path10064"
       transform="translate(-297.68583,68.3787)" /><path
       style="display:inline;fill:#000000;stroke-width:0.332584"
       d="m 487.73906,134.30246 c -0.35736,-5.22439 -0.33423,-5.58742 0.36932,-5.79594 0.41277,-0.12232 0.89113,-0.10626 1.06311,0.0354 0.60941,0.5028 1.11984,11.40546 0.54017,11.5398 -1.40349,0.32543 -1.59295,-0.2299 -1.9726,-5.77933 z"
       id="path10060"
       transform="translate(-297.68583,68.3787)" /><path
       style="display:inline;fill:#000000;stroke-width:0.332584"
       d="m 415.05009,117.98863 c -0.0235,-2.59774 -0.22699,-11.41211 -0.37552,-16.27482 -0.0742,-2.42502 -0.18098,-6.46733 -0.2374,-8.98287 -0.0564,-2.51536 -0.18511,-7.57528 -0.2859,-11.24401 -0.10084,-3.66876 -0.11274,-6.70262 -0.0265,-6.74186 0.18143,-0.0833 8.45853,0.15786 8.76023,0.2544 0.10976,0.0365 0.19999,1.51793 0.19923,3.29477 -7.2e-4,1.7767 0.0897,5.34221 0.20097,7.92333 0.23663,5.488 0.43542,5.71462 3.22353,3.67287 9.80455,-7.17972 26.29317,-2.81369 31.24701,8.27389 7.30689,16.35454 -14.48129,28.77617 -31.41447,17.90971 -2.23062,-1.43128 -2.31422,-1.38335 -2.37814,1.36393 -0.0479,2.05568 -0.11008,2.26587 -0.69737,2.35773 -0.61483,0.0963 -7.7057,0.0158 -8.0405,-0.0919 -0.0881,-0.0284 -0.16697,-0.79995 -0.17521,-1.71522 z"
       id="path10052"
       transform="translate(-297.68583,68.3787)" /><path
       style="display:inline;fill:#000000;stroke-width:0.332584"
       d="m 470.1942,138.91092 c -0.37839,-4.48894 -0.70215,-10.23479 -0.59116,-10.48923 0.21012,-0.4808 5.93598,-0.37944 7.5565,0.13416 7.32855,2.32227 6.37451,10.90753 -1.27348,11.45739 -4.48946,0.32279 -5.58973,0.10974 -5.69186,-1.10224 z"
       id="path10044"
       transform="translate(-297.68583,68.3787)" /><path
       style="display:inline;fill:#000000;stroke-width:0.332584"
       d="m 453.82669,138.52915 c -1.57339,-1.25793 -2.86978,-9.08221 -1.70693,-10.30172 1.1218,-1.17637 1.738,-0.0496 1.88252,3.44278 0.22084,5.33485 1.66964,7.18625 4.94256,6.31654 2.18081,-0.57963 2.52569,-1.43525 2.41426,-5.98993 -0.0878,-3.591 0.0746,-4.14964 1.10999,-3.81852 0.89799,0.28794 1.49718,7.37854 0.76445,9.05078 -1.19252,2.72221 -6.67997,3.48053 -9.40688,1.30004 z"
       id="path10040"
       transform="translate(-297.68583,68.3787)" /><path
       style="display:inline;fill:#000000;stroke-width:0.332584"
       d="m 378.46305,117.54818 c -3.73152,-2.17832 -6.50073,-5.92674 -7.17774,-9.71575 -0.50622,-2.83353 -0.85606,-20.96906 -0.40165,-20.8237 0.0644,0.0211 1.94949,0.0739 4.18855,0.11825 2.23909,0.0444 4.22601,0.12973 4.41546,0.18982 0.3631,0.12234 0.40387,1.0054 0.45466,10.55361 0.0585,10.99433 0.72846,12.52067 6.27575,14.30008 4.7041,1.51106 9.13652,-0.51108 11.22254,-5.11584 0.85251,-1.88183 0.83837,-1.5113 0.56811,-14.93203 -0.10396,-5.1672 -0.10396,-5.1672 4.40058,-5.17797 2.47753,-0.006 4.53304,0.054 4.56777,0.13304 0.0729,0.16713 0.43458,17.63625 0.48275,23.33119 0.0179,2.11909 0.098,5.03685 0.17787,6.48413 0.16363,2.96377 0.11071,3.05589 -1.7081,2.97223 -0.72137,-0.0334 -2.5654,-0.0796 -4.09785,-0.1033 -2.78623,-0.0429 -2.78623,-0.0429 -2.9647,-2.5205 -0.16921,-2.34815 -0.82871,-3.438 -1.35765,-2.24345 -2.20803,4.98618 -12.51053,6.36564 -19.04637,2.55019 z"
       id="path10036"
       transform="translate(-297.68583,68.3787)" /><path
       style="display:inline;fill:#000000;stroke-width:0.332584"
       d="m 440.28793,135.19353 c -0.10913,-2.45688 -0.14818,-4.58193 -0.0869,-4.72254 0.26815,-0.61658 -0.51803,-0.82549 -2.87978,-0.76547 -2.52925,0.0644 -2.52925,0.0644 -2.70711,-0.83639 -0.23073,-1.16615 1.14072,-1.26344 11.84833,-0.84011 0.62327,0.0246 1.1998,1.05527 0.93275,1.66743 -0.0584,0.12832 -1.22544,0.20336 -2.59795,0.16491 -2.79031,-0.0783 -2.89623,0.0142 -2.60122,2.28756 0.45411,3.49882 0.28839,7.49447 -0.31662,7.6344 -1.20897,0.27942 -1.39954,-0.2704 -1.59135,-4.59035 z"
       id="path10032"
       transform="translate(-297.68583,68.3787)" /><path
       style="display:inline;fill:#000000;stroke-width:0.332584"
       d="m 421.26113,138.52428 c -0.35578,-0.20811 -0.57361,-0.54058 -0.48417,-0.73862 0.38149,-0.84341 1.00253,-0.88958 2.97744,-0.22035 2.39891,0.81233 4.14473,0.71157 4.74894,-0.27569 0.83748,-1.36819 0.34347,-1.75345 -3.4859,-2.71789 -4.77233,-1.20205 -6.14217,-3.63965 -3.28155,-5.83953 2.3796,-1.83 9.61182,-0.4654 7.93617,1.4975 -0.43492,0.50945 -0.64784,0.48996 -2.22203,-0.20342 -1.98622,-0.87495 -3.80715,-0.80734 -4.64337,0.17223 -0.99941,1.17067 -0.23476,1.82081 3.37548,2.87007 3.647,1.06005 4.8354,1.99363 4.76783,3.74575 -0.10992,2.84712 -5.97583,3.88249 -9.68884,1.70995 z"
       id="path10028"
       transform="translate(-297.68583,68.3787)" /><path
       style="display:inline;fill:#000000;stroke-width:0.332584"
       d="m 336.03218,116.16854 c -2.21145,-1.53095 -4.27109,-3.48001 -4.09756,-3.87771 0.0424,-0.0992 1.69746,-0.89228 3.67636,-1.76318 3.59793,-1.58352 3.59793,-1.58352 4.93574,-0.35384 4.64682,4.27171 15.55644,3.42131 14.65347,-1.1422 -0.46051,-2.32766 -2.13645,-2.98421 -9.27714,-3.63419 -8.39102,-0.76374 -11.85712,-2.3889 -13.14631,-6.16414 -4.17583,-12.22843 19.68857,-19.39792 29.03729,-8.72353 1.20362,1.3743 1.35065,1.20298 -2.70722,3.15396 -3.52506,1.69479 -3.52506,1.69479 -4.7338,0.58289 -4.49036,-4.13017 -15.42703,-1.70365 -12.17342,2.70105 1.01822,1.37847 2.0675,1.67104 7.54165,2.10324 11.5785,0.91399 16.30888,4.64167 14.7037,11.58656 -2.18186,9.43968 -18.24879,12.56745 -28.41278,5.53114 z"
       id="path10024"
       transform="translate(-297.68583,68.3787)" /><path
       style="display:inline;fill:#000000;stroke-width:0.332584"
       d="m 388.82117,139.08117 c 0.0298,-1.17278 -0.14489,-5.79105 -0.32639,-8.62614 -0.1946,-3.03886 -0.63796,-2.79955 5.10061,-2.75411 3.93313,0.031 5.08133,0.3031 6.27436,1.48631 0.77453,0.76835 0.72067,2.32641 -0.10411,3.01283 -0.82055,0.68286 -0.7448,1.04261 0.34852,1.65571 1.95475,1.09627 2.0522,3.38684 0.20452,4.80779 -1.79471,1.38022 -11.53094,1.73386 -11.49745,0.41761 z"
       id="path10012"
       transform="translate(-297.68583,68.3787)" /><path
       style="display:inline;fill:#000000;stroke-width:0.332584"
       d="m 370.60649,138.89216 c -0.0157,-0.44449 -0.0348,-1.20318 -0.0427,-1.68592 -0.008,-0.48286 -0.0759,-2.60142 -0.15131,-4.70779 -0.0752,-2.10656 -0.0898,-4.03993 -0.0322,-4.29645 0.0749,-0.33345 1.63911,-0.47106 5.48984,-0.48313 6.09942,-0.0191 6.19101,-0.005 6.2849,0.94176 0.0751,0.75768 0.52056,0.69669 -5.84858,0.80094 -3.36347,0.0549 -3.84293,0.33835 -3.69925,2.18622 0.1267,1.62882 0.0211,1.58692 3.50204,1.39421 3.3612,-0.18615 3.30155,-0.2015 3.33339,0.85954 0.0248,0.82652 -0.0546,0.85062 -2.94708,0.89114 -3.30897,0.0464 -4.14633,0.62889 -3.56242,2.47741 0.28936,0.91617 0.28936,0.91617 4.72555,0.83344 4.76393,-0.089 4.70347,-0.10296 4.36727,1.0039 -0.20654,0.68012 -0.59342,0.74143 -4.81828,0.76349 -6.3781,0.0329 -6.56678,0.005 -6.60123,-0.97874 z"
       id="path10008"
       transform="translate(-297.68583,68.3787)" /><path
       style="display:inline;fill:#000000;stroke-width:0.332584"
       d="m 348.0195,136.19483 c -3.4968,-8.18657 -3.43482,-7.98702 -2.5609,-8.25183 1.02529,-0.3108 2.01978,0.78653 2.45795,2.7113 0.52406,2.30229 2.10775,5.40791 2.63531,5.16748 0.32316,-0.14722 0.84242,-1.30242 1.64141,-3.65119 1.9466,-5.72261 2.74409,-5.72061 4.93681,0.0126 1.7011,4.44747 2.22081,4.5784 3.4425,0.86695 1.67466,-5.08736 2.76809,-6.64476 3.50693,-4.99735 0.44795,0.99844 -3.15012,10.90704 -4.06463,11.1932 -1.41009,0.44102 -1.8298,-0.0111 -3.23521,-3.47942 -1.86762,-4.61028 -1.98991,-4.61324 -3.73109,-0.0908 -1.25803,3.26784 -1.47104,3.6471 -2.1573,3.85075 -1.2173,0.36071 -1.37115,0.18226 -2.8718,-3.33094 z"
       id="path10004"
       transform="translate(-297.68583,68.3787)" /></g><g
     inkscape:groupmode="layer"
     id="layer5"
     inkscape:label="yellow 2"
     style="display:none"
     transform="translate(-55.335463,-19.220153)"><rect
       style="display:inline;fill:#ececec;fill-opacity:1;stroke-width:0"
       id="rect20720"
       width="150"
       height="150"
       x="35.118877"
       y="-19.7096"
       ry="20.637501"
       rx="20.637501" /></g><g
     inkscape:label="outline"
     inkscape:groupmode="layer"
     id="layer1"
     transform="translate(-386.01894,20.954101)"
     style="display:inline"><path
       id="path10098"
       style="fill:#ffffff;stroke-width:1.25701"
       d="m 407.1582,72.644531 c -60.90072,0.201416 -127.50661,31.147529 -164.19336,77.423829 -12.50041,15.76783 -29.71404,55.04027 -32.39648,73.91211 -12.39111,87.16845 57.14238,168.65416 162.0332,189.88867 h 0.002 C 444.7333,428.47007 528.87751,402.82573 572.49609,352.94727 668.64338,243.00099 583.15105,85.337694 420.76172,73.123047 c -4.02099,-0.302451 -8.08018,-0.459452 -12.16602,-0.478516 -0.47881,-0.0022 -0.95796,-0.0016 -1.4375,0 z m 40.05274,24.865235 c 0.0604,-0.0015 0.12561,-3.72e-4 0.19531,0.002 1.16833,0.03897 3.64735,0.611787 7.42383,1.484375 13.74285,3.175379 33.82825,11.301369 48.55469,19.642579 4.34097,2.45879 2.93058,4.08615 -8.23633,9.50195 -9.94674,4.82419 -9.948,4.82463 -19.34961,-5.13671 -5.17081,-5.47872 -14.47527,-13.69317 -20.67774,-18.25391 -7.16934,-5.271712 -9.7817,-7.192993 -7.91015,-7.240237 z m -52.27735,0.107422 c 1.42592,-0.05686 1.34252,2.122053 1.09766,8.460932 -0.20523,5.31261 -0.37771,16.31913 -0.38281,24.46094 -0.008,12.71709 -0.3222,14.79511 -2.22852,14.74414 -5.87629,-0.15726 -29.14648,-3.39205 -37.28906,-5.18359 -9.15012,-2.01337 -9.15143,-2.01245 -7.11328,-4.47852 10.53331,-12.74418 30.24179,-29.70667 42.23828,-36.351559 1.76951,-0.980195 2.93082,-1.622563 3.67773,-1.652343 z m -46.33398,6.021482 c 0.17425,-0.009 0.29774,0.0121 0.37305,0.0625 0.48199,0.32292 -1.01195,1.8558 -3.84766,4.42969 -3.66629,3.32775 -9.64803,9.79159 -13.29297,14.36328 -6.78399,8.50902 -8.57852,9.2303 -13.56641,5.45703 -0.56413,-0.42668 -2.91717,-1.75741 -5.23046,-2.95703 -5.02413,-2.60538 -4.11584,-3.37913 14.11914,-12.02539 13.34092,-6.32569 19.76092,-9.23992 21.44531,-9.33008 z m 70.35351,0.47266 c 0.0449,-1.4e-4 0.0905,0.003 0.13868,0.008 0.51353,0.0494 1.21682,0.35874 2.18359,0.66797 13.42518,4.29481 45.41793,35.14141 43.65039,42.08789 -1.89842,7.46035 2.6535,13.07161 9.68164,11.93555 5.32207,-0.86026 18.30276,24.22488 26.5625,51.33007 3.29363,10.80856 3.29987,11.18948 0.24805,16.43946 -2.85094,4.90391 -2.93253,5.68507 -0.92383,8.9375 4.28198,6.93204 18.67303,8.73727 21.31836,2.67383 0.94825,-2.17369 59.4249,-3.37836 64.85352,-1.33594 1.40326,0.52886 1.60158,18.16456 0.31836,28.37695 -3.56493,28.36866 -16.39949,54.53449 -38.125,77.72656 -8.90548,9.50657 -7.99234,9.47498 -18.63477,0.64454 -39.55298,-32.81849 -121.43842,-59.19211 -135.50586,-43.64258 -7.12252,7.87267 -1.69104,12.25927 17.80078,14.375 14.42464,1.56577 57.33621,13.63354 58.61524,16.48437 1.75642,3.91517 -23.64293,29.85012 -40.90039,41.76367 -11.79818,8.14436 -12.13921,8.19633 -11.35938,1.69532 3.75893,-31.33876 1.66259,-51.90203 -5.52539,-54.20118 -11.4954,-3.67721 -14.3728,2.22351 -15.04102,30.83399 -0.27552,11.80911 -0.57282,21.63077 -0.6582,21.82617 -0.45862,1.06973 -5.33606,-1.79181 -13.3457,-7.85156 h -0.002 c -15.7221,-11.88153 -41.36654,-38.67895 -40.0039,-41.80274 0.24113,-0.54027 4.4619,-2.49016 9.38867,-4.32617 9.79434,-3.64991 10.93859,-4.97424 9.89453,-11.44922 -1.32945,-8.24563 -9.18524,-9.86929 -22.16406,-4.58007 -9.13002,3.72062 -9.12881,3.72128 -13.69531,-6.19922 -19.38879,-42.12192 -19.07912,-90.6644 0.82422,-129.20508 7.37211,-14.27548 6.37194,-13.82707 22.25,-9.97656 7.41943,1.79932 19.3015,3.88507 26.40429,4.63476 7.10279,0.74968 14.42627,1.52247 16.27344,1.71875 3.05888,0.32512 3.33724,0.98042 3.12109,7.33203 -0.13039,3.83571 0.0298,15.84555 0.35742,26.68946 0.32769,10.84401 0.31868,19.82146 -0.0195,19.94922 -0.33826,0.12732 -12.88799,0.2291 -27.88867,0.2246 -28.73752,-0.008 -32.35687,0.70107 -35.05273,6.88086 -1.59338,3.6534 1.22667,9.58295 5.15625,10.83985 1.30246,0.41686 14.45656,0.76359 29.23047,0.76953 14.77387,0.006 27.43327,0.19295 28.13086,0.41601 1.11938,0.35997 1.75725,12.8904 1.76171,34.60547 0.002,11.99588 7.2601,18.28132 16.33399,14.14649 6.05866,-2.76084 6.49241,-4.86349 5.68945,-27.61524 -0.39942,-11.32104 -0.0786,-20.85043 0.71289,-21.17578 0.79159,-0.32549 14.02802,-0.48972 29.41407,-0.36523 30.11708,0.24359 33.24702,-0.36507 35.3789,-6.88672 3.03765,-9.29231 -1.81065,-11.15134 -30.2793,-11.61328 -13.70891,-0.22247 -27.4667,-0.45657 -30.57226,-0.51953 -6.29325,-0.12764 -5.96114,1.94007 -6.1582,-38.32227 -0.0771,-15.71712 -0.0821,-15.68284 2.15625,-14.9668 0.88558,0.28264 2.91775,-0.15399 4.51562,-0.9707 7.17944,-3.67003 5.0635,-13.73971 -3.26953,-15.5625 -5.53485,-1.21069 -4.97748,2.392 -4.60742,-29.88476 0.12769,-11.15506 -0.0237,-13.55631 1.36718,-13.56055 z m 107.73243,29.74414 c 1.85554,0.0409 3.81565,2.19068 9.72656,7.54297 20.46081,18.5273 38.63079,45.61138 45.04687,67.14648 2.62965,8.82571 2.63088,8.82621 -25.06054,8.99024 -15.23033,0.0902 -28.3498,0.12758 -29.15235,0.084 -0.80288,-0.0434 -2.58582,-4.47447 -3.96289,-9.84766 -4.14769,-16.18515 -10.26766,-31.66136 -17.50976,-44.27734 -3.77118,-6.56953 -7.17163,-12.49476 -7.55469,-13.16602 -0.38268,-0.67111 3.25086,-3.10542 8.07422,-5.41015 4.82336,-2.30467 11.38911,-5.8774 14.58984,-7.93945 2.61516,-1.68481 3.98504,-2.8145 5.22657,-3.06836 0.19394,-0.0397 0.38421,-0.0589 0.57617,-0.0547 z m -234.74024,2.79883 c 0.10852,-2.9e-4 0.21658,0.002 0.32617,0.008 2.10417,0.11146 4.43915,1.33499 8.19727,3.28516 15.43192,8.00802 14.62611,4.81189 5.91797,23.50585 -8.16507,17.5278 -13.03125,32.75784 -14.75781,46.17579 -1.30855,10.17334 0.93194,9.36689 -25.22266,9.06445 -30.58405,-0.35369 -28.95319,-0.10134 -28.36914,-4.39648 2.25339,-16.5769 21.06053,-48.0715 40.08984,-67.13477 7.52477,-7.53816 10.45433,-10.49898 13.81836,-10.50781 z m -34.95703,100.5 c 11.9695,0.0752 24.35969,0.14484 27.5332,0.15429 5.76976,0.0174 5.76908,0.0169 6.57227,11.07813 1.24003,17.07833 4.83814,30.79802 13.03711,49.7207 7.51665,17.34845 7.51679,17.34842 -0.42774,22.11719 -4.36964,2.62278 -12.03511,8.14979 -17.0332,12.28125 -4.99782,4.13157 -9.34974,7.41254 -9.67187,7.29102 -0.31937,-0.12738 -3.50593,-3.37712 -7.07422,-7.23438 -20.95593,-22.6511 -33.13608,-50.84521 -35.06836,-81.17773 -0.48601,-7.62496 -0.60063,-13.97653 -0.25586,-14.11524 0.34507,-0.13916 10.4194,-0.19045 22.38867,-0.11523 z m 65.42578,96.5332 c 1.79853,-0.0704 3.11266,1.7904 6.34766,6.37109 7.13435,10.12772 25.98196,28.75717 42.2207,41.73243 10.05748,8.03648 12.27985,10.32959 9.84961,10.16015 -4.12157,-0.28611 -34.88505,-9.0059 -39.22265,-11.11719 l -0.004,0.0117 c -1.85601,-0.90391 -7.44486,-3.56604 -12.41992,-5.91797 -10.49413,-4.96225 -32.50135,-18.0511 -33.41407,-19.87304 -0.7017,-1.40086 12.31757,-12.76308 21.5,-18.76367 2.45439,-1.60393 3.91201,-2.55533 5.14258,-2.60352 z m 169.9375,8.30859 c 0.64889,-0.0381 1.4064,0.31033 2.53321,0.98243 6.76444,4.03472 16.74521,11.44959 22.02343,16.36132 6.42735,5.98117 4.93507,7.29277 -22.49414,19.78321 -19.94687,9.08356 -63.34356,18.95786 -53.70898,12.2207 21.6384,-15.13062 36.75056,-29.63604 49.125,-47.15039 1.03187,-1.46046 1.6872,-2.14827 2.52148,-2.19727 z"
       transform="matrix(0.26458333,0,0,0.26458333,330.68347,-40.174254)" /><path
       style="fill:#ffffff;stroke-width:0.332584"
       d="m 449.66101,3.550914 c 4.24533,-0.06504 4.48299,-5.228602 0.27955,-6.074228 -2.25776,-0.454207 -3.7141,0.420298 -4.56047,2.738546 -0.61871,1.69487 1.54083,3.377643 4.28092,3.335682 z"
       id="path10138" /><path
       style="fill:#ffffff;stroke-width:0.332584"
       d="m 475.64496,30.549899 c 1.37552,-0.626801 1.82989,-2.614702 0.83907,-3.67122 -1.97113,-2.101886 -6.32047,0.152444 -4.70638,2.439415 0.64766,0.917673 2.94843,1.650505 3.86724,1.231996 z"
       id="path10134" /><path
       style="fill:#ffffff;stroke-width:0.332584"
       d="m 465.36863,36.371518 c 4.60748,-0.683306 4.79019,-6.332526 0.25162,-7.77925 -4.30454,-1.371893 -8.00199,3.69842 -4.72561,6.480378 0.98453,0.83594 3.21978,1.484897 4.47401,1.298819 z"
       id="path10130" /><path
       style="fill:#ffffff;stroke-width:0.332584"
       d="m 471.14624,44.30426 c 0.9814,-0.351335 1.58529,-2.163148 0.98068,-2.942193 -1.54965,-1.996742 -4.59734,-1.720776 -4.95174,0.448383 -0.26546,1.62458 2.1544,3.144212 3.9711,2.493821 z"
       id="path10126" /><path
       style="fill:#ffffff;stroke-width:0.332584"
       d="m 431.22597,43.400724 c 2.05314,-0.03146 3.44647,-2.059873 2.64383,-3.848931 -1.0362,-2.309629 -4.99462,-2.2374 -6.01855,0.109805 -0.86569,1.984719 0.75391,3.779258 3.37472,3.739119 z"
       id="path10122" /><path
       style="fill:#ffffff;stroke-width:0.332584"
       d="m 405.45555,42.86563 c 2.44784,-1.022278 2.12622,-3.672513 -0.54953,-4.528373 -1.82747,-0.585805 -2.72589,-0.215488 -3.43621,1.412774 -0.90768,2.080441 1.65953,4.087095 3.98574,3.115599 z"
       id="path10114" /></g><g
     inkscape:groupmode="layer"
     id="layer3"
     inkscape:label="yellow"
     style="display:inline"
     transform="translate(-88.333117,-47.424598)"><path
       id="path644"
       style="fill:#ffffff;fill-opacity:1;stroke-width:0.355105;stroke-linecap:round;stroke-linejoin:bevel"
       d="m 138.85509,29.182716 c -1.26968,0.0076 -1.95853,0.221813 -2.0929,0.646988 -0.13575,0.42944 0.0665,0.747128 0.61599,0.967899 0.49943,0.200662 2.43737,0.548603 3.63337,0.652155 1.27569,0.110459 4.55232,0.07704 5.01209,-0.05116 0.5927,-0.165317 0.90212,-0.653235 0.6258,-0.987539 -0.3433,-0.415366 -2.54642,-0.832273 -6.03529,-1.142566 -0.67632,-0.06015 -1.26223,-0.08875 -1.75906,-0.08578 z m -7.72253,0.446484 c -0.23053,0.0029 -0.44992,0.05833 -0.58394,0.170013 -0.33721,0.281014 -0.26156,0.773341 0.15348,0.999424 0.9771,0.532292 1.98419,-0.234235 1.22008,-0.928626 -0.17792,-0.161669 -0.49321,-0.244571 -0.78962,-0.240811 z m -16.01452,0.05064 c -1.24491,-0.0033 -2.50393,0.343718 -3.62717,1.0604 -2.4753,1.579377 -2.71786,4.690279 -0.5209,6.683314 0.97607,0.885452 2.39017,1.585249 3.60081,1.781286 2.84371,0.460486 5.633,-0.908507 6.41977,-3.151229 0.54303,-1.547847 0.24727,-2.811471 -0.97772,-4.179589 -1.28678,-1.437132 -3.07532,-2.18943 -4.89479,-2.194182 z m 37.40133,0.931728 c -0.93599,-0.01159 -1.2958,0.276426 -1.44177,0.860412 -0.12691,0.507825 0.12666,0.698013 1.24902,0.937926 2.25653,0.482349 7.99701,2.121276 14.60789,4.169773 1.6409,0.508466 3.05084,0.930743 3.13314,0.938443 0.25386,0.02379 0.50446,-0.766649 0.36897,-1.163754 -0.30452,-0.892432 -6.38891,-3.137853 -13.01729,-4.803841 -2.45138,-0.616136 -3.96396,-0.927376 -4.89996,-0.938959 z m -10.43967,8.099764 c -0.0567,1.37e-4 -0.11462,0.0013 -0.17312,0.0041 -0.4203,0.02077 -0.82837,0.478401 -0.82837,0.928627 0,0.431932 0.52081,1.034994 0.97152,1.124995 0.74632,0.149021 1.6232,-0.232101 1.75596,-0.763262 0.1853,-0.741236 -0.57381,-1.297334 -1.72599,-1.294493 z m 8.79533,0.70745 c -0.84281,0.0062 -1.63584,0.170424 -1.98076,0.516763 -0.58568,0.588127 -0.13562,1.122445 1.18649,1.408184 0.9584,0.207124 2.34112,0.211159 2.9285,0.0088 0.5264,-0.18134 0.81805,-0.745744 0.58498,-1.131196 -0.31595,-0.522526 -1.56426,-0.811017 -2.71921,-0.802535 z m 9.72137,1.710489 c -0.56476,0.0029 -1.15035,0.134988 -1.38183,0.367419 -0.45043,0.45226 -0.21172,0.939628 0.68316,1.394749 0.95715,0.486814 2.14041,0.520202 2.45463,0.06976 0.41321,-0.592415 0.14506,-1.184645 -0.74621,-1.647446 -0.24664,-0.128072 -0.62334,-0.186471 -1.00975,-0.184484 z m -73.478722,6.86108 c -0.186743,0.0074 -0.419941,0.06128 -0.70435,0.159681 -0.934667,0.323342 -2.063239,1.259904 -3.586861,2.978111 -4.832974,5.450167 -9.928076,13.301096 -9.928076,15.297774 0,0.265832 0.178146,0.589058 0.417031,0.75706 0.592269,0.416555 0.863216,0.367956 1.445905,-0.258382 0.906828,-0.974804 3.763079,-6.039249 3.763079,-6.67246 0,-0.14722 0.118734,-0.313476 0.264065,-0.369488 0.145372,-0.05601 1.231688,-1.315117 2.414323,-2.79776 1.182594,-1.482643 2.892298,-3.500625 3.799252,-4.484481 1.898706,-2.059723 2.710945,-3.249028 2.710945,-3.970816 0,-0.447366 -0.184478,-0.655402 -0.595313,-0.639239 z m 54.454552,0.373621 c -8.14943,-0.0749 -16.0648,1.70612 -24.07811,5.382101 -13.76983,6.316678 -23.592327,17.114043 -26.794232,29.45298 -0.975199,3.758001 -1.188006,5.494567 -1.183907,9.697084 0.0032,4.08376 0.177477,5.526072 1.122931,9.292973 2.220688,8.84759 8.153244,17.34658 16.480648,23.61096 9.049,6.80723 20.64266,11.13144 31.88952,11.89333 5.68247,0.38493 11.0476,-0.0127 16.58711,-1.22886 15.77614,-3.46338 28.61675,-12.86207 34.69762,-25.39742 2.63602,-5.43396 3.73286,-10.19444 3.74086,-16.23105 0.0132,-10.330153 -4.01355,-20.267027 -11.55641,-28.517122 -7.5116,-8.215973 -18.44,-14.380315 -29.61679,-16.705958 -3.83209,-0.797372 -7.58495,-1.214974 -11.28924,-1.249018 z m 7.86516,4.406966 c 1.12944,-0.0042 3.45541,0.553847 6.77891,1.640726 6.67941,2.184342 12.13105,4.790527 12.13105,5.799129 0,0.538099 -2.14239,2.018972 -5.06326,3.499528 -0.62023,0.314391 -1.41216,0.564306 -1.78645,0.564306 -0.59958,0 -0.83841,-0.174178 -2.20866,-1.613337 -1.89418,-1.989502 -4.42172,-4.213196 -7.25588,-6.383591 -2.63813,-2.020311 -3.37551,-2.708079 -3.37551,-3.149161 0,-0.237538 0.26642,-0.35569 0.7798,-0.3576 z m -11.34039,0.07855 c 0.21877,-0.02207 0.37172,0.02193 0.44648,0.14056 0.23997,0.38092 0.22085,12.525605 -0.0212,13.400732 -0.10707,0.387149 -0.35433,0.789739 -0.54932,0.89452 -1.00142,0.53817 -6.86117,-0.183753 -11.72435,-1.444355 -2.92705,-0.758722 -2.95899,-0.800698 -1.77457,-2.305286 3.24224,-4.118721 11.50806,-10.472777 13.62294,-10.686171 z m -10.40557,1.125513 c 0.25329,0.01715 0.339,0.142807 0.339,0.357085 0,0.130479 -1.2025,1.432115 -2.67219,2.892329 -3.0776,3.057697 -3.55059,3.56366 -4.65295,4.979025 -0.44362,0.569603 -0.89702,1.097999 -1.00717,1.174088 -0.47719,0.329626 -1.61948,0.08971 -3.38016,-0.710033 -1.9528,-0.887031 -2.72696,-1.446678 -2.72696,-1.971458 -0.18957,-1.828189 10.99304,-7.386566 14.10043,-6.721036 z m 15.6347,0.594797 c 0.39012,-0.02357 1.00954,0.219093 2.03192,0.742071 3.12204,1.59698 7.26125,4.90769 9.79268,7.832082 1.6607,1.918536 2.26038,3.053988 1.96112,3.713467 -0.34517,0.760767 -0.23515,1.368494 0.35451,1.960605 0.47494,0.476935 0.65242,0.541681 1.19889,0.438732 0.35459,-0.06679 0.81299,-0.02853 1.02474,0.08527 0.8673,0.46608 3.18772,4.523073 4.90978,8.584488 1.05195,2.481035 2.62117,7.277074 2.75642,8.423775 0.0956,0.810149 0.0429,1.001438 -0.48162,1.734778 -0.71574,1.000739 -0.74295,1.586751 -0.10749,2.345076 0.88986,1.061932 2.83885,1.167979 3.5202,0.191204 0.47519,-0.681244 2.03396,-0.809728 9.96787,-0.82114 4.12548,-0.0059 7.81664,0.05629 8.2026,0.138494 0.5427,0.115599 0.73393,0.264779 0.84387,0.658876 0.0781,0.280262 0.13619,2.162159 0.12919,4.181655 -0.0109,3.048992 -0.0842,4.006987 -0.43201,5.648759 -1.13373,5.35133 -3.67797,10.97795 -6.99596,15.4714 -1.22192,1.65487 -3.9712,4.83004 -4.90513,5.66529 -1.05302,0.94181 -1.54074,0.74958 -4.92372,-1.93787 -1.14444,-0.90911 -2.71463,-2.08045 -3.4892,-2.60294 -6.88386,-4.64358 -19.46997,-9.28895 -26.40304,-9.74514 -2.75749,-0.18144 -4.31291,0.41893 -4.31291,1.66502 0,0.76939 0.78215,1.04429 4.20543,1.47846 3.21294,0.40749 4.30369,0.60639 6.29573,1.14773 2.74191,0.74509 7.95708,2.44851 9.1271,2.98121 1.04901,0.47762 1.18597,0.60211 1.18597,1.07021 -0.001,1.10761 -3.04693,4.90852 -6.28127,7.83829 -2.2494,2.0376 -5.08028,4.18539 -7.01508,5.32267 -2.6867,1.57924 -2.78866,1.3987 -2.4846,-4.40025 0.37595,-7.17037 0.23407,-9.45581 -0.64285,-10.33632 -0.52162,-0.52378 -1.37906,-0.57129 -1.91926,-0.10697 -0.61539,0.52891 -0.76675,1.54991 -0.98393,6.63732 -0.11275,2.6409 -0.26172,5.3523 -0.33073,6.02547 -0.11246,1.09821 -0.17066,1.23055 -0.56637,1.28675 -0.73026,0.10379 -1.21457,-0.10104 -2.95641,-1.25006 -3.19365,-2.10676 -7.21658,-5.74039 -10.15132,-9.16894 -3.25115,-3.79832 -3.30646,-4.17654 -0.76325,-5.20641 2.92912,-1.18616 3.42866,-1.49797 3.49436,-2.18126 0.0438,-0.45651 -0.0654,-0.7336 -0.43771,-1.10743 -0.45126,-0.45317 -0.59409,-0.48992 -1.56527,-0.40152 -0.62571,0.057 -1.90829,0.43437 -3.09491,0.91054 -1.8909,0.7588 -2.0601,0.79501 -2.52542,0.5395 -0.60206,-0.3306 -1.83061,-2.74733 -2.97553,-5.85339 -3.92657,-10.652568 -3.68203,-19.545505 0.82992,-30.197116 2.06603,-4.877388 2.65599,-5.743319 3.91501,-5.743319 0.34301,0 1.76035,0.255495 3.14968,0.567407 2.75301,0.618083 6.17075,1.165328 9.39684,1.504818 2.64705,0.278564 3.40882,0.481714 3.73259,0.995288 0.20436,0.32411 0.29155,1.839476 0.39481,6.844025 0.14915,7.227565 0.0832,8.267655 -0.5333,8.422227 -0.22361,0.05607 -3.40228,0.15522 -7.06366,0.220141 -7.08834,0.125683 -8.50028,0.254992 -9.07231,0.829406 -0.31912,0.32041 -0.33292,0.427757 -0.11886,0.946713 0.13284,0.322038 0.41976,0.681911 0.63769,0.799433 0.47005,0.253524 5.4988,0.496187 10.63708,0.513149 4.26838,0.01408 5.34534,0.122171 5.51697,0.553969 0.0668,0.167986 0.22394,2.762702 0.34882,5.766056 0.27522,6.618983 0.35264,6.872963 2.10685,6.872963 0.94665,0 1.50654,-0.64142 1.66191,-1.90479 0.0685,-0.55761 0.0967,-3.240748 0.0631,-5.962426 -0.0486,-3.93395 -0.0102,-4.980083 0.18552,-5.102532 0.13546,-0.08471 3.63721,-0.208725 7.78195,-0.275434 7.64266,-0.122997 8.93589,-0.225248 9.4573,-0.748792 0.24996,-0.250981 0.25633,-0.376333 0.0434,-0.892453 -0.45573,-1.104789 -0.77836,-1.152644 -9.08058,-1.341004 -5.15903,-0.117046 -7.63706,-0.241024 -7.9592,-0.397906 -0.27809,-0.13543 -0.52976,-0.471107 -0.62116,-0.827858 -0.0847,-0.330041 -0.1319,-3.761589 -0.1049,-7.625889 l 0.0491,-7.025929 0.90796,-0.224792 c 1.22018,-0.30239 1.81126,-0.716677 1.81126,-1.269172 0,-0.608716 -0.968,-1.395122 -1.90221,-1.545127 -1.38069,-0.221695 -1.33869,0.0026 -1.23352,-6.551539 0.0516,-3.217489 0.15483,-6.037728 0.22893,-6.267317 0.10774,-0.33387 0.27225,-0.513421 0.57567,-0.531749 z m 61.48359,7.598502 c -0.50485,0.0053 -0.97315,0.263401 -1.16944,0.738974 -0.22714,0.550338 0.007,1.032113 0.73691,1.517734 0.16748,0.111416 0.38497,0.202573 0.48317,0.202573 0.26469,0 1.09946,-0.443256 1.25936,-0.668692 0.3165,-0.446368 0.22556,-0.974989 -0.23823,-1.384929 -0.31549,-0.278845 -0.70337,-0.40953 -1.07177,-0.40566 z m -32.22749,0.502812 c 0.19589,-0.0042 0.35324,0.04244 0.51056,0.125574 0.88518,0.467741 3.72132,3.058961 5.42499,4.956286 4.24535,4.727868 7.42046,9.945753 9.232,15.171684 0.81266,2.344418 0.83784,2.880321 0.15554,3.329512 -0.46209,0.304223 -1.2153,0.338666 -8.48527,0.385505 -4.38806,0.02827 -8.07127,-0.014 -8.18503,-0.09405 -0.11376,-0.08005 -0.25336,-0.653989 -0.31006,-1.275374 -0.26261,-2.880288 -3.13482,-10.003549 -6.15518,-15.265217 -0.7315,-1.274297 -1.30137,-2.467324 -1.26607,-2.651001 0.0412,-0.215034 0.57605,-0.545732 1.50172,-0.929142 0.79066,-0.327499 2.48,-1.198552 3.75378,-1.9358 2.30301,-1.332982 3.23535,-1.80534 3.82302,-1.817976 z m -61.83395,0.500226 c 1.39495,0.328356 5.78975,2.578974 5.84305,3.836977 0,0.60537 -0.52329,2.023121 -2.29288,6.210472 -2.23451,5.287515 -2.50755,6.25207 -3.22461,11.398271 -0.19487,1.398363 -0.67212,1.994038 -1.79111,2.235007 -6.52443,0.06955 -8.3711,-0.739767 -14.368747,-0.730538 -1.62511,0.0024 1.897023,-13.56754 14.334127,-22.693355 0.41491,-0.200387 1.01387,-0.281083 1.50017,-0.256834 z m 40.43525,3.593063 c -2.72254,0.0094 -3.5927,3.24335 -0.73793,4.012676 0.51215,0.138023 1.15064,0.257067 1.41903,0.264065 0.70532,0.01836 1.70631,-0.724823 2.1208,-1.57458 0.32025,-0.656389 0.32964,-0.786789 0.0889,-1.217496 -0.38313,-0.685427 -1.37086,-1.298501 -2.32233,-1.441773 -0.19742,-0.02973 -0.38694,-0.04352 -0.56845,-0.04289 z m 54.54758,2.119768 c -0.73208,0.01423 -1.16621,0.454583 -0.88573,1.088305 0.22572,0.510032 0.57458,0.830202 1.0728,0.984435 0.64422,0.199435 1.39268,-0.479327 1.39268,-1.26297 0,-0.327832 -0.16449,-0.473085 -0.76378,-0.673346 -0.29492,-0.09855 -0.57194,-0.141171 -0.81597,-0.136424 z m 4.65708,6.954096 c -0.99621,0.0077 -1.96635,0.180578 -2.68356,0.516247 -2.19277,1.026258 -3.3029,2.609787 -3.1259,4.459161 0.24289,2.538722 2.45361,4.763669 5.39863,5.433261 2.91232,0.662162 6.37388,-0.797303 7.23005,-3.048394 0.94736,-2.490947 -0.89026,-5.672442 -3.97753,-6.886917 -0.82307,-0.323783 -1.84548,-0.481044 -2.84169,-0.473358 z m -136.364286,0.04134 c -4.725318,-0.0011 -6.906299,4.224972 -3.768246,7.30188 0.429022,0.420677 1.157764,0.869553 1.737879,1.070735 1.242295,0.430813 2.958536,0.453358 4.291729,0.05581 1.702221,-0.507601 2.983831,-2.131235 2.987929,-3.785299 0.0024,-0.936416 -0.764003,-2.46463 -1.656228,-3.30264 -1.072861,-1.007703 -1.963444,-1.340088 -3.593063,-1.340486 z m 30.873056,14.077693 c 1.05936,0.0045 1.99765,0.02058 2.68924,0.05064 l 2.81843,0.122473 0.17725,0.67696 c 0.0977,0.372181 0.27203,1.608428 0.38757,2.747637 0.50034,4.931968 1.70464,9.205852 4.04265,14.349002 1.30661,2.87425 1.57811,3.81352 1.24798,4.31291 -0.0757,0.11464 -0.90158,0.68163 -1.83554,1.25987 -1.75334,1.08552 -4.23677,2.90008 -6.14743,4.49224 -1.79254,1.49372 -2.6543,1.25802 -5.12579,-1.40199 -1.68989,-1.81886 -3.782285,-5.092 -5.381578,-8.4186 -1.729189,-3.5969 -2.618173,-5.73263 -3.340827,-9.226836 -0.578181,-3.516394 -0.978144,-5.025392 -0.421736,-8.002611 l 0.117825,-0.630452 1.341519,-0.101287 c 1.982833,-0.150114 6.252337,-0.243414 9.430437,-0.22996 z m -33.905945,4.868955 c -0.612931,0 -0.733132,0.02873 -0.942062,0.225824 -0.355503,0.33537 -0.563256,0.957715 -0.492477,1.476396 0.07887,0.577618 0.311401,0.949831 0.763778,1.223182 h 0.0011 c 0.270952,0.163709 0.514083,0.22706 0.876432,0.227894 0.443373,7.94e-4 0.537999,-0.03562 0.812353,-0.311095 0.638331,-0.642008 0.636887,-1.798261 -0.0041,-2.500622 -0.305139,-0.33438 -0.326734,-0.341579 -1.014926,-0.341579 z M 176.35926,95.34405 c -0.4861,0 -1.14817,0.616315 -1.33739,1.244886 -0.16599,0.551333 0.40459,1.200769 1.20613,1.373042 1.08717,0.233677 2.24586,-0.287859 2.24586,-1.011309 0,-0.656079 -1.251,-1.606619 -2.1146,-1.606619 z m 26.17101,1.370976 c -0.23798,0.0024 -0.45888,0.03429 -0.62683,0.0987 -0.85461,0.327736 -1.18764,1.142071 -0.79272,1.937866 0.19678,0.396497 0.63761,0.873395 0.92242,0.997871 0.25361,0.11086 0.33471,0.113175 1.02423,0.02635 1.21852,-0.153421 1.80041,-0.606761 1.80041,-1.402498 0,-0.536815 -0.46888,-1.116226 -1.16014,-1.433504 -0.32661,-0.149908 -0.77074,-0.228714 -1.16737,-0.224793 z m 11.78533,0.25528 c -0.23044,0.01037 -0.52548,0.188839 -0.69608,0.441317 -0.41541,0.614831 -0.6152,1.397014 -0.7736,3.032377 -0.55145,5.69383 -2.2471,11.36979 -5.12113,17.14262 -1.97832,3.97362 -4.10488,7.25235 -7.01766,10.81846 -2.0737,2.53885 -2.47892,3.11069 -2.47892,3.49643 0,0.35144 0.47822,0.97111 0.86144,1.11569 0.20797,0.0785 0.39047,0.041 0.80202,-0.16381 0.84891,-0.42236 2.81164,-2.58095 4.98316,-5.48029 5.29009,-7.06309 8.94543,-15.20449 10.19266,-22.70145 0.43219,-2.59802 0.56848,-4.757817 0.37104,-5.889051 -0.17408,-0.997458 -0.51081,-1.615141 -0.97617,-1.791621 -0.044,-0.01667 -0.0936,-0.02307 -0.14676,-0.02066 z m -47.92938,0.855247 c -1.41125,0.0067 -2.76406,0.738953 -3.27887,2.103229 -0.48207,1.277538 0.70828,3.071308 2.38125,3.587898 1.10107,0.34 1.44176,0.35311 2.39004,0.093 2.26599,-0.62153 3.0076,-2.75992 1.53944,-4.439 -0.80159,-0.916731 -1.93422,-1.350354 -3.03186,-1.345137 z M 71.679863,101.9607 c -0.71078,0.0123 -1.125514,0.53908 -1.125514,1.44952 0,0.96432 0.560898,2.27583 1.059368,2.47737 0.333721,0.13491 0.85117,0.10695 1.086236,-0.0584 0.326837,-0.22985 0.480076,-0.70155 0.480076,-1.48002 0,-0.84767 -0.210227,-1.54748 -0.600998,-2.00142 -0.234236,-0.27209 -0.371655,-0.34489 -0.7121,-0.37879 -0.06441,-0.006 -0.126833,-0.009 -0.187068,-0.008 z m 130.341397,2.94504 c -1.00993,0.003 -1.58777,0.67326 -1.34876,1.56373 0.11205,0.4174 0.47877,0.97064 0.73794,1.11311 0.45665,0.25105 1.59191,0.0304 2.06913,-0.40204 0.45379,-0.41115 0.56238,-0.86213 0.32142,-1.33635 -0.28983,-0.57053 -0.99222,-0.94045 -1.77973,-0.93845 z m -68.79373,2.33319 c -1.04906,0.007 -2.08463,0.76389 -2.08463,1.71463 0,0.77033 0.31411,1.21885 1.10639,1.58026 0.32671,0.14902 0.95122,0.22637 1.48932,0.18397 2.15829,-0.17009 2.34943,-2.46701 0.27698,-3.329 -0.25225,-0.10491 -0.52066,-0.15165 -0.78806,-0.14986 z m -26.91257,0.3452 c -0.73013,-7.9e-4 -1.63241,0.42665 -1.79421,0.85008 -0.16142,0.42236 0.32132,1.48729 0.84646,1.86758 0.76885,0.55681 2.78677,0.0596 3.10162,-0.76429 0.29672,-0.77636 -0.99982,-1.95237 -2.15387,-1.95337 z m 65.6518,1.69395 c -1.3022,0 -1.84974,1.28775 -0.87488,2.05776 0.55494,0.43831 1.91136,0.536 2.28151,0.16433 0.6465,-0.64916 -0.3492,-2.22209 -1.40663,-2.22209 z m -98.54592,0.63821 c -0.0858,10e-4 -0.180745,0.007 -0.287838,0.0186 -0.823023,0.086 -0.649531,1.30826 0.56534,3.98373 0.838169,1.84594 1.413899,2.82765 2.06189,3.51607 0.496396,0.52734 0.606182,0.59944 0.912607,0.59944 0.251745,0 0.432255,-0.0755 0.651639,-0.27233 0.264271,-0.2371 0.301541,-0.32653 0.285771,-0.69091 -0.057,-1.3159 -2.153009,-5.5672 -3.342949,-6.78047 -0.274286,-0.2797 -0.474641,-0.37885 -0.84646,-0.37414 z m 45.05565,5.57795 c 0.7673,-0.003 1.04236,0.25402 3.13469,2.92954 1.90136,2.43131 6.89638,7.24774 10.82518,10.4376 3.2845,2.66675 4.13296,3.55701 3.74809,3.93258 -1.283,1.25195 -10.7252,-1.70864 -19.28564,-6.04718 -3.37001,-1.70795 -6.10917,-3.46842 -6.48023,-4.1646 -0.56758,-1.06494 0.002,-1.81194 3.25252,-4.26227 3.03782,-2.29022 3.9432,-2.82267 4.80539,-2.82567 z m 44.85514,2.29805 c 0.50987,0.0334 1.15799,0.27989 1.88464,0.72709 2.84956,1.75366 7.06933,5.4294 7.06933,6.15776 0,0.22262 -0.33098,0.67282 -0.77411,1.05368 -2.62481,2.25606 -12.91057,6.03605 -19.50061,7.16649 -0.88882,0.15246 -2.38431,0.3355 -3.32383,0.4067 -1.50495,0.11408 -1.72305,0.0917 -1.83038,-0.18914 -0.16301,-0.42655 0.40734,-1.01035 2.15956,-2.21123 3.87599,-2.65641 8.13158,-6.57398 11.32075,-10.42159 1.03009,-1.24276 2.03742,-2.3756 2.23862,-2.51716 0.1935,-0.13614 0.45011,-0.19265 0.75603,-0.1726 z"
       sodipodi:nodetypes="scsscssssscsssssscsssssscssssssssssssssssssssscsssccsccsssssscsssssccssssssccsssscscsssscscscsccscscssssssssssscsssssssssscssssssccscsccssscsssssssssscssssccsssssscsccsssssssssssssssssccscsssccsscscsssscssssssssssscsssscssscccsscccsssscccsccsssccccccsssssssssssssssssscsssssssssssssssssssscssssscsssccsssssscsssssssssscsssscsssssssscsssscssssssssscscsssss" /></g></svg>
