<?xml version="1.0" encoding="UTF-8" standalone="no"?>
<!-- Created with Inkscape (http://www.inkscape.org/) -->

<svg
   width="8.3673582in"
   height="7.1463799in"
   viewBox="0 0 212.5309 181.51805"
   version="1.1"
   id="svg5"
   inkscape:version="1.1.1 (3bf5ae0d25, 2021-09-20)"
   xml:space="preserve"
   sodipodi:docname="subtle-web-studios.svg"
   xmlns:inkscape="http://www.inkscape.org/namespaces/inkscape"
   xmlns:sodipodi="http://sodipodi.sourceforge.net/DTD/sodipodi-0.dtd"
   xmlns="http://www.w3.org/2000/svg"
   xmlns:svg="http://www.w3.org/2000/svg"><sodipodi:namedview
     id="namedview7"
     pagecolor="#ffffff"
     bordercolor="#000000"
     borderopacity="0.25"
     inkscape:showpageshadow="2"
     inkscape:pageopacity="0.0"
     inkscape:pagecheckerboard="0"
     inkscape:deskcolor="#d1d1d1"
     inkscape:document-units="mm"
     showgrid="false"
     inkscape:pageshadow="2"
     inkscape:zoom="0.43338754"
     inkscape:cx="293.04027"
     inkscape:cy="190.3608"
     inkscape:window-width="1904"
     inkscape:window-height="1011"
     inkscape:window-x="2435"
     inkscape:window-y="26"
     inkscape:window-maximized="0"
     inkscape:current-layer="layer1"
     fit-margin-top="0"
     fit-margin-left="0"
     fit-margin-right="0"
     fit-margin-bottom="0"><inkscape:grid
       type="xygrid"
       id="grid1049"
       units="mm"
       spacingx="1"
       spacingy="1"
       originx="-32.997655"
       originy="-28.204446" /></sodipodi:namedview><defs
     id="defs2" /><g
     inkscape:label="outline"
     inkscape:groupmode="layer"
     id="layer1"
     transform="translate(-330.68347,40.174254)"
     style="display:inline"><path
       id="path10098"
       style="fill:#000000;stroke-width:1.25701"
       d="M 407.1582 72.644531 C 346.25748 72.845947 279.65159 103.79206 242.96484 150.06836 C 230.46443 165.83619 213.2508 205.10863 210.56836 223.98047 C 198.17725 311.14892 267.71074 392.63463 372.60156 413.86914 L 372.60352 413.86914 C 444.7333 428.47007 528.87751 402.82573 572.49609 352.94727 C 668.64338 243.00099 583.15105 85.337694 420.76172 73.123047 C 416.74073 72.820596 412.68154 72.663595 408.5957 72.644531 C 408.11689 72.642297 407.63774 72.642945 407.1582 72.644531 z M 447.21094 97.509766 C 447.27131 97.508242 447.33655 97.509394 447.40625 97.511719 C 448.57458 97.550689 451.0536 98.123506 454.83008 98.996094 C 468.57293 102.17147 488.65833 110.29746 503.38477 118.63867 C 507.72574 121.09746 506.31535 122.72482 495.14844 128.14062 C 485.2017 132.96481 485.20044 132.96525 475.79883 123.00391 C 470.62802 117.52519 461.32356 109.31074 455.12109 104.75 C 447.95175 99.478291 445.33939 97.55701 447.21094 97.509766 z M 394.93359 97.617188 C 396.35951 97.560325 396.27611 99.739241 396.03125 106.07812 C 395.82602 111.39073 395.65354 122.39725 395.64844 130.53906 C 395.64088 143.25615 395.32624 145.33417 393.41992 145.2832 C 387.54363 145.12594 364.27344 141.89115 356.13086 140.09961 C 346.98074 138.08624 346.97943 138.08716 349.01758 135.62109 C 359.55089 122.87691 379.25937 105.91442 391.25586 99.269531 C 393.02537 98.289336 394.18668 97.646968 394.93359 97.617188 z M 348.59961 103.63867 C 348.77386 103.62935 348.89735 103.65072 348.97266 103.70117 C 349.45465 104.02409 347.96071 105.55697 345.125 108.13086 C 341.45871 111.45861 335.47697 117.92245 331.83203 122.49414 C 325.04804 131.00316 323.25351 131.72444 318.26562 127.95117 C 317.70149 127.52449 315.34845 126.19376 313.03516 124.99414 C 308.01103 122.38876 308.91932 121.61501 327.1543 112.96875 C 340.49522 106.64306 346.91522 103.72883 348.59961 103.63867 z M 418.95312 104.11133 C 418.99799 104.11119 419.04365 104.1145 419.0918 104.11914 C 419.60533 104.16854 420.30862 104.47788 421.27539 104.78711 C 434.70057 109.08192 466.69332 139.92852 464.92578 146.875 C 463.02736 154.33535 467.57928 159.94661 474.60742 158.81055 C 479.92949 157.95029 492.91018 183.03543 501.16992 210.14062 C 504.46355 220.94918 504.46979 221.3301 501.41797 226.58008 C 498.56703 231.48399 498.48544 232.26515 500.49414 235.51758 C 504.77612 242.44962 519.16717 244.25485 521.8125 238.19141 C 522.76075 236.01772 581.2374 234.81305 586.66602 236.85547 C 588.06928 237.38433 588.2676 255.02003 586.98438 265.23242 C 583.41945 293.60108 570.58489 319.76691 548.85938 342.95898 C 539.9539 352.46555 540.86704 352.43396 530.22461 343.60352 C 490.67163 310.78503 408.78619 284.41141 394.71875 299.96094 C 387.59623 307.83361 393.02771 312.22021 412.51953 314.33594 C 426.94417 315.90171 469.85574 327.96948 471.13477 330.82031 C 472.89119 334.73548 447.49184 360.67043 430.23438 372.58398 C 418.4362 380.72834 418.09517 380.78031 418.875 374.2793 C 422.63393 342.94054 420.53759 322.37727 413.34961 320.07812 C 401.85421 316.40091 398.97681 322.30163 398.30859 350.91211 C 398.03307 362.72122 397.73577 372.54288 397.65039 372.73828 C 397.19177 373.80801 392.31433 370.94647 384.30469 364.88672 L 384.30273 364.88672 C 368.58063 353.00519 342.93619 326.20777 344.29883 323.08398 C 344.53996 322.54371 348.76073 320.59382 353.6875 318.75781 C 363.48184 315.1079 364.62609 313.78357 363.58203 307.30859 C 362.25258 299.06296 354.39679 297.4393 341.41797 302.72852 C 332.28795 306.44914 332.28916 306.4498 327.72266 296.5293 C 308.33387 254.40738 308.64354 205.8649 328.54688 167.32422 C 335.91899 153.04874 334.91882 153.49715 350.79688 157.34766 C 358.21631 159.14698 370.09838 161.23273 377.20117 161.98242 C 384.30396 162.7321 391.62744 163.50489 393.47461 163.70117 C 396.53349 164.02629 396.81185 164.68159 396.5957 171.0332 C 396.46531 174.86891 396.62546 186.87875 396.95312 197.72266 C 397.28081 208.56667 397.2718 217.54412 396.93359 217.67188 C 396.59533 217.7992 384.0456 217.90098 369.04492 217.89648 C 340.3074 217.88848 336.68805 218.59755 333.99219 224.77734 C 332.39881 228.43074 335.21886 234.36029 339.14844 235.61719 C 340.4509 236.03405 353.605 236.38078 368.37891 236.38672 C 383.15278 236.39272 395.81218 236.57967 396.50977 236.80273 C 397.62915 237.1627 398.26702 249.69313 398.27148 271.4082 C 398.27348 283.40408 405.53158 289.68952 414.60547 285.55469 C 420.66413 282.79385 421.09788 280.6912 420.29492 257.93945 C 419.8955 246.61841 420.21632 237.08902 421.00781 236.76367 C 421.7994 236.43818 435.03583 236.27395 450.42188 236.39844 C 480.53896 236.64203 483.6689 236.03337 485.80078 229.51172 C 488.83843 220.21941 483.99013 218.36038 455.52148 217.89844 C 441.81257 217.67597 428.05478 217.44187 424.94922 217.37891 C 418.65597 217.25127 418.98808 219.31898 418.79102 179.05664 C 418.71392 163.33952 418.70892 163.3738 420.94727 164.08984 C 421.83285 164.37248 423.86502 163.93585 425.46289 163.11914 C 432.64233 159.44911 430.52639 149.37943 422.19336 147.55664 C 416.65851 146.34595 417.21588 149.94864 417.58594 117.67188 C 417.71363 106.51682 417.56221 104.11557 418.95312 104.11133 z M 526.68555 133.85547 C 528.54109 133.89641 530.5012 136.04615 536.41211 141.39844 C 556.87292 159.92574 575.0429 187.00982 581.45898 208.54492 C 584.08863 217.37063 584.08986 217.37113 556.39844 217.53516 C 541.16811 217.62536 528.04864 217.66274 527.24609 217.61914 C 526.44321 217.57574 524.66027 213.14467 523.2832 207.77148 C 519.13551 191.58633 513.01554 176.11012 505.77344 163.49414 C 502.00226 156.92461 498.60181 150.99938 498.21875 150.32812 C 497.83607 149.65701 501.46961 147.2227 506.29297 144.91797 C 511.11633 142.6133 517.68208 139.04057 520.88281 136.97852 C 523.49797 135.29371 524.86785 134.16402 526.10938 133.91016 C 526.30332 133.87049 526.49359 133.85123 526.68555 133.85547 z M 291.94531 136.6543 C 292.05383 136.65401 292.16189 136.6563 292.27148 136.66211 C 294.37565 136.77357 296.71063 137.9971 300.46875 139.94727 C 315.90067 147.95529 315.09486 144.75916 306.38672 163.45312 C 298.22165 180.98092 293.35547 196.21096 291.62891 209.62891 C 290.32036 219.80225 292.56085 218.9958 266.40625 218.69336 C 235.8222 218.33967 237.45306 218.59202 238.03711 214.29688 C 240.2905 197.71998 259.09764 166.22538 278.12695 147.16211 C 285.65172 139.62395 288.58128 136.66313 291.94531 136.6543 z M 256.98828 237.1543 C 268.95778 237.22955 281.34797 237.29914 284.52148 237.30859 C 290.29124 237.32598 290.29056 237.32549 291.09375 248.38672 C 292.33378 265.46505 295.93189 279.18474 304.13086 298.10742 C 311.64751 315.45587 311.64765 315.45584 303.70312 320.22461 C 299.33348 322.84739 291.66801 328.3744 286.66992 332.50586 C 281.6721 336.63743 277.32018 339.9184 276.99805 339.79688 C 276.67868 339.6695 273.49212 336.41976 269.92383 332.5625 C 248.9679 309.9114 236.78775 281.71729 234.85547 251.38477 C 234.36946 243.75981 234.25484 237.40824 234.59961 237.26953 C 234.94468 237.13037 245.01901 237.07908 256.98828 237.1543 z M 322.41406 333.6875 C 324.21259 333.61707 325.52672 335.4779 328.76172 340.05859 C 335.89607 350.18631 354.74368 368.81576 370.98242 381.79102 C 381.0399 389.8275 383.26227 392.12061 380.83203 391.95117 C 376.71046 391.66506 345.94698 382.94527 341.60938 380.83398 L 341.60547 380.8457 C 339.74946 379.94179 334.16061 377.27966 329.18555 374.92773 C 318.69142 369.96548 296.6842 356.87663 295.77148 355.05469 C 295.06978 353.65383 308.08905 342.29161 317.27148 336.29102 C 319.72587 334.68709 321.18349 333.73569 322.41406 333.6875 z M 492.35156 341.99609 C 493.00045 341.95798 493.75796 342.30642 494.88477 342.97852 C 501.64921 347.01324 511.62998 354.42811 516.9082 359.33984 C 523.33555 365.32101 521.84327 366.63261 494.41406 379.12305 C 474.46719 388.20661 431.0705 398.08091 440.70508 391.34375 C 462.34348 376.21313 477.45564 361.70771 489.83008 344.19336 C 490.86195 342.7329 491.51728 342.04509 492.35156 341.99609 z "
       transform="matrix(0.26458333,0,0,0.26458333,330.68347,-40.174254)" /><path
       style="fill:#000000;stroke-width:0.332584"
       d="m 452.38034,-34.508413 c 0.88326,0.164504 4.60795,1.263984 8.2771,2.443403 7.20684,2.316572 7.90047,2.402331 8.4905,1.049739 0.83293,-1.909533 0.36524,-2.195417 -7.93601,-4.850573 -8.47764,-2.711571 -10.98953,-3.255075 -12.29503,-2.660195 -1.95974,0.89303 -1.41521,3.170525 0.84869,3.54965 0.55482,0.09305 1.7315,0.303518 2.61475,0.467976 z"
       id="path10250" /><path
       style="fill:#000000;stroke-width:0.332584"
       d="m 439.44084,-36.027924 c 4.95,0.404397 5.40511,0.334331 5.95056,-0.916002 0.75092,-1.721126 -0.15257,-2.280974 -4.60243,-2.852174 -5.41462,-0.695035 -6.56231,-0.507054 -7.30553,1.196595 -0.69087,1.583593 0.58024,2.132293 5.9574,2.571581 z"
       id="path10246" /><path
       style="fill:#000000;stroke-width:0.332584"
       d="m 429.83374,-36.496277 c 1.6428,-0.748584 1.23043,-2.680726 -0.6599,-3.09235 -2.27246,-0.494836 -3.13597,2.427104 -0.9262,3.133901 0.48324,0.154144 1.19684,0.13588 1.5861,-0.04157 z"
       id="path10242" /><path
       style="fill:#000000;stroke-width:0.332584"
       d="m 459.17151,-24.140468 c 2.87267,-0.119206 3.02854,-3.026314 0.21058,-3.927648 -1.64123,-0.525087 -3.03605,-0.07165 -3.57406,1.161561 -0.66736,1.530378 0.95653,2.86597 3.36348,2.766087 z"
       id="path10238" /><path
       style="fill:#000000;stroke-width:0.332584"
       d="m 450.30698,-25.900757 c 2.17865,-0.352178 2.73039,-2.722854 0.8166,-3.508741 -2.89124,-1.187313 -5.92331,-0.291848 -5.86263,1.731392 0.0309,1.031548 3.05976,2.098406 5.04601,1.777358 z"
       id="path10234" /><path
       style="fill:#000000;stroke-width:0.332584"
       d="m 485.82828,-14.169056 c 5.77346,-0.619627 9.71942,-4.504971 9.52564,-9.379311 -0.3337,-8.394069 -13.61251,-13.104684 -20.0925,-7.127732 -7.18622,6.628294 -0.12763,17.654847 10.56686,16.507048 z"
       id="path10230" /><path
       style="fill:#000000;stroke-width:0.332584"
       d="m 441.58604,-27.026811 c 1.6478,-1.091884 1.38268,-2.982077 -0.49981,-3.563958 -1.906,-0.589041 -3.60405,0.593583 -3.27075,2.278103 0.2512,1.269578 2.59093,2.067487 3.77055,1.285895 z"
       id="path10226" /><path
       style="fill:#000000;stroke-width:0.332584"
       d="m 503.60486,-3.149534 c 1.99361,-0.802147 1.76982,-3.047339 -0.37195,-3.732396 -1.60685,-0.513688 -2.2761,-0.265679 -2.85369,1.058394 -0.74605,1.710365 1.33432,3.434997 3.22564,2.674002 z"
       id="path10222" /><path
       style="fill:#000000;stroke-width:0.332584"
       d="m 492.52714,-4.368242 c 2.59273,-1.181432 0.24268,-4.761546 -2.42181,-3.68945 -1.84309,0.741585 -1.58243,3.107271 0.41266,3.74541 0.68613,0.219456 1.45155,0.198161 2.00915,-0.05596 z"
       id="path10218" /><path
       style="fill:#000000;stroke-width:0.332584"
       d="m 415.13025,-28.260502 c 3.69584,-0.732972 5.73618,-4.063451 4.44585,-7.256998 -1.92233,-4.757833 -9.50938,-5.586056 -12.65385,-1.381347 -3.16614,4.233786 2.15887,9.838007 8.208,8.638345 z"
       id="path10214" /><path
       style="fill:#000000;stroke-width:0.332584"
       d="m 504.69882,3.354827 c 1.7838,-0.28835 1.73142,-3.276133 -0.0676,-3.851533 -1.95403,-0.62485 -3.7726,0.862113 -3.12316,2.553794 0.31054,0.808783 1.98994,1.491828 3.19073,1.297741 z"
       id="path10210" /><path
       style="fill:#000000;stroke-width:0.332584"
       d="m 405.39187,-19.637262 c 2.86373,-1.304937 2.68255,-4.160062 -0.32813,-5.17106 -1.42125,-0.476973 -1.7491,-0.458554 -2.95945,0.16864 -3.77076,1.95397 -0.60238,6.77499 3.28758,5.00242 z"
       id="path10206" /><path
       style="fill:#000000;stroke-width:0.332584"
       d="m 509.37951,19.124958 c 4.43726,-0.05411 7.75933,-3.833926 6.6108,-7.521618 -1.91325,-6.142976 -11.80038,-7.136344 -14.28729,-1.435445 -1.84994,4.240728 2.24883,9.023257 7.67649,8.957063 z"
       id="path10202" /><path
       style="fill:#000000;stroke-width:0.332584"
       d="m 394.83684,-9.827984 c 1.35704,-0.572734 1.91868,-1.908728 1.34287,-3.193037 -0.93832,-2.091517 -4.68918,-2.110318 -5.59752,-0.02804 -0.88431,2.027624 1.96757,4.186674 4.2551,3.221205 z"
       id="path10198" /><path
       style="fill:#000000;stroke-width:0.332584"
       d="m 501.44659,32.204186 c 1.91058,-0.283346 2.55475,-1.416736 1.78292,-3.137084 -1.01574,-2.264089 -4.40691,-2.3697 -5.36775,-0.167144 -0.86503,1.982948 0.98652,3.689563 3.58483,3.304228 z"
       id="path10194" /><path
       style="fill:#000000;stroke-width:0.332584"
       d="m 500.86926,40.020494 c 1.46282,-0.404301 2.18598,-2.416157 1.2293,-3.420241 -1.60745,-1.687068 -3.70433,-1.476111 -4.54786,0.457503 -0.60722,1.391681 -0.10146,2.412595 1.43906,2.905338 0.53199,0.170487 1.37778,0.196006 1.87941,0.0574 z"
       id="path10190" /><path
       style="fill:#000000;stroke-width:0.332584"
       d="m 372.50623,-0.24684 c 0.87015,-0.396509 1.26794,-0.914778 2.51075,-3.271381 2.56068,-4.855499 5.36865,-8.64683 9.44894,-12.758142 4.36666,-4.399889 1.25577,-7.183548 -3.29747,-2.950607 -8.88222,8.257485 -15.11854,21.922151 -8.66222,18.98013 z"
       id="path10186" /><path
       style="fill:#000000;stroke-width:0.332584"
       d="m 372.98506,17.094861 c 6.29345,-0.777127 6.94379,-8.227783 0.88723,-10.164985 -5.04793,-1.614555 -9.91091,2.264616 -8.10047,6.461732 1.12234,2.601928 4.03256,4.096015 7.21324,3.703253 z"
       id="path10182" /><path
       style="fill:#000000;stroke-width:0.332584"
       d="m 497.81227,65.42978 c 1.31865,-0.21316 6.25623,-6.41618 9.52085,-11.960881 4.03148,-6.847345 7.37861,-17.885688 6.95552,-22.939034 -0.29563,-3.531463 -4.48573,-3.586805 -4.65047,-0.06142 -0.46228,9.89431 -5.34698,21.542931 -12.35923,29.473475 -3.30359,3.73614 -3.0766,6.07141 0.53339,5.48787 z"
       id="path10178" /><path
       style="fill:#000000;stroke-width:0.332584"
       d="m 370.15629,30.28112 c 1.22351,-0.765028 1.27411,-3.237524 0.0869,-4.274456 -1.52037,-1.328133 -3.5744,-0.234211 -3.95699,2.107378 -0.2688,1.645264 2.355,3.114462 3.87005,2.167078 z"
       id="path10174" /><path
       style="fill:#000000;stroke-width:0.332584"
       d="m 485.53667,68.4487 c 1.77214,-0.63447 1.52366,-3.31014 -0.36346,-3.91361 -1.56721,-0.50007 -2.54645,-0.0443 -3.04397,1.41947 -0.59592,1.75241 1.39961,3.21296 3.40743,2.49414 z"
       id="path10170" /><path
       style="fill:#000000;stroke-width:0.332584"
       d="m 370.88064,38.257576 c 1.65588,-0.754543 1.26183,-4.985524 -0.51733,-5.554539 -0.80186,-0.255245 -2.84802,0.504309 -3.13395,1.164798 -0.94536,2.182565 1.64963,5.301774 3.65128,4.389741 z"
       id="path10166" /><path
       style="fill:#000000;stroke-width:0.332584"
       d="m 375.50007,50.151426 c 1.36746,-0.839296 1.26947,-1.590068 -0.71766,-5.495249 -2.16402,-4.252911 -3.04143,-4.97225 -4.66836,-3.82708 -2.77285,1.951548 2.50677,11.089724 5.38602,9.322329 z"
       id="path10162" /><path
       style="fill:#000000;stroke-width:0.332584"
       d="m 398.22797,67.07928 c 2.76909,-0.0793 3.70311,-0.74339 3.28013,-2.33163 -0.64315,-2.41576 -7.21065,-2.76535 -8.2259,-0.43802 -0.89362,2.04839 0.6159,2.89373 4.94577,2.76965 z"
       id="path10094" /><path
       style="fill:#000000;stroke-width:0.332584"
       d="m 383.18411,69.91746 c 4.13732,-0.60584 6.94098,-4.05514 6.21238,-7.64283 -1.27312,-6.270094 -11.64088,-7.744408 -15.03738,-2.13839 -2.94716,4.86441 2.3452,10.73007 8.825,9.78122 z"
       id="path10090" /><path
       id="path10082"
       style="fill:#000000;stroke-width:1.25701"
       d="m 724.57617,483.34375 c -55.70342,0.29202 -89.57694,60.11792 -46.56445,104.46094 12.91835,13.31837 44.11712,25.31731 63.96875,24.60351 18.66323,-0.67079 37.36999,-7.14666 47.88086,-16.57617 6.13576,-5.5045 6.03213,-6.28972 -1.49219,-11.35156 -3.30516,-2.22346 -9.0138,-6.85951 -12.6875,-10.30274 -6.67967,-6.26052 -6.68018,-6.26132 -9.83008,-4.04296 -18.82454,13.25571 -41.18665,11.77288 -57.79492,-3.83204 -3.86925,-3.6359 -3.86928,-3.63529 24.65625,-3.36914 79.61386,0.74109 71.43742,2.5796 69.2168,-15.5664 -3.55011,-29.00731 -21.63118,-50.41508 -50.42188,-59.69922 -9.35736,-3.01754 -18.40048,-4.36894 -26.93164,-4.32422 z m 4.16992,33.10352 c 8.84904,0.0531 17.74746,3.49443 24.29297,10.43359 2.75547,2.92055 4.35959,5.57637 3.56446,5.90039 -1.63688,0.66773 -36.4425,0.68773 -45.52735,0.0293 -3.27167,-0.23887 -7.09149,-0.46922 -8.48633,-0.51563 -2.20361,-0.0726 -2.23525,-0.48053 -0.24023,-3.12695 v -0.002 c 6.40231,-8.48775 16.36758,-12.77892 26.39648,-12.71875 z"
       transform="matrix(0.26458333,0,0,0.26458333,330.68347,-40.174254)" /><path
       style="fill:#000000;stroke-width:0.332584"
       d="m 496.28805,121.77461 c 2.64966,0.0283 5.03909,-0.10974 5.30977,-0.30666 0.66451,-0.48351 -2.36843,-45.91994 -3.09171,-46.31853 -0.63207,-0.34842 -8.73414,-0.4811 -9.49132,-0.15555 -0.46618,0.2005 -0.36482,3.54833 0.53582,17.68978 0.6109,9.59352 1.25094,20.04162 1.42219,23.2182 0.17125,3.17656 0.3533,5.78587 0.40453,5.79839 0.0511,0.0127 2.26103,0.0459 4.91072,0.0743 z"
       id="path10078" /><path
       style="fill:#000000;stroke-width:0.332584"
       d="m 484.11359,121.62289 c 1.49398,0.043 1.8367,-0.0676 2.10317,-0.67847 0.43992,-1.00787 0.0371,-8.91156 -0.46175,-9.06081 -0.22161,-0.0688 -1.02466,-0.1753 -1.7831,-0.24084 -1.93117,-0.16796 -3.87097,-1.37911 -4.82298,-3.0108 -0.83428,-1.43022 -1.64165,-11.49007 -0.94262,-11.74398 0.18383,-0.0675 1.77936,-0.0864 3.54569,-0.0438 4.27796,0.10314 4.07489,0.34812 3.79722,-4.58148 -0.27328,-4.85174 -0.0263,-4.58088 -4.27976,-4.6947 -3.79226,-0.10135 -3.5545,0.21093 -3.84098,-5.04688 -0.26642,-4.89003 -0.16891,-4.74738 -3.24913,-4.75605 -1.1783,-0.003 -3.30179,-0.0471 -4.71876,-0.0973 -3.19562,-0.11336 -3.19147,-0.12076 -2.82605,5.0813 0.15304,2.17926 0.16071,4.01584 0.0169,4.08127 -0.14364,0.0651 -1.34453,0.11321 -2.66845,0.10596 -1.32396,-0.008 -2.62504,0.14533 -2.89133,0.33914 -0.51789,0.3768 -0.22669,8.60516 0.31064,8.77696 0.15319,0.0496 1.41993,0.14204 2.81443,0.20646 1.3945,0.0644 2.55221,0.15967 2.5727,0.21162 0.0202,0.0526 0.20999,2.74321 0.42105,5.98051 0.55349,8.48952 1.45569,11.15161 4.90393,14.47014 2.79392,2.68885 7.60836,4.57539 11.99911,4.70183 z"
       id="path10074" /><path
       style="fill:#000000;stroke-width:0.332584"
       d="m 518.42333,141.33835 c 7.58311,0.2184 8.19629,-6.19187 0.80097,-8.3734 -3.39772,-1.00282 -4.26321,-1.62985 -2.87892,-2.0863 0.63651,-0.21005 1.31531,-0.0866 2.77048,0.50417 1.92722,0.7828 1.92722,0.7828 3.11035,-0.2385 1.54146,-1.33045 1.35811,-1.69628 -1.37531,-2.74522 -5.19735,-1.99423 -9.33835,-0.27237 -9.00222,3.7431 0.14112,1.68587 1.45909,2.65905 5.28127,3.89932 2.24201,0.72566 3.28202,1.19662 3.25954,1.47088 -0.0666,0.81525 -1.71362,0.70658 -4.18463,-0.27613 -2.44233,-0.97165 -4.28355,-0.39079 -4.34577,1.37054 -0.0367,1.03945 3.84125,2.65319 6.56424,2.73154 z"
       id="path10070" /><path
       id="path10062"
       style="fill:#000000;stroke-width:1.25701"
       d="m 644.9043,634.32812 c -14.29421,0.068 -28.10185,9.10754 -27.21094,25.28321 0.87496,15.88758 17.48107,27.75512 35.33008,25.24805 17.31054,-2.43119 25.95039,-16.49932 19.89453,-32.39454 -4.74877,-12.46388 -16.53804,-18.19128 -28.01367,-18.13672 z m 0.0566,13.35743 c 7.76961,-0.1 15.37383,5.65185 15.3125,14.04883 -0.0726,9.92628 -13.82886,14.42432 -22.25196,7.27539 -6.45573,-5.47968 -7.54152,-13.45561 -2.42578,-17.82618 2.77437,-2.37028 6.08473,-3.45583 9.36524,-3.49804 z"
       transform="matrix(0.26458333,0,0,0.26458333,330.68347,-40.174254)" /><path
       style="fill:#000000;stroke-width:0.332584"
       d="m 489.55026,140.97568 c 1.49737,-0.1521 1.66932,-1.17606 1.18517,-7.05675 -0.47403,-5.75719 -0.67986,-6.33964 -2.22901,-6.30599 -1.86919,0.0406 -2.11566,0.55327 -1.9123,3.97771 0.53868,9.06987 0.70981,9.61332 2.95614,9.38503 z"
       id="path10058" /><path
       id="path10050"
       style="fill:#000000;stroke-width:1.25701"
       d="m 321.00195,430.63086 c -11.22637,0.031 -9.80317,4.21849 -9.03711,31.54297 1.57002,56.00405 2.68484,101.59504 2.85938,116.82226 0.23773,20.73256 0.86164,27.99888 2.44726,28.50586 0.73342,0.24567 9.18788,0.53772 18.7793,0.66993 19.66768,0.27212 20.29312,-0.0877 19.9668,-11.44727 -0.15496,-5.39917 -0.15493,-5.39895 6.48437,-1.50781 68.20086,39.97031 149.6941,-10.38142 120.72266,-74.58985 -19.56578,-43.36278 -90.10805,-60.62516 -125.20508,-30.64062 -4.46162,3.8118 -4.56778,3.10426 -4.98047,-32.74414 -0.32239,-27.98695 1.74743,-25.19468 -19.33984,-26.07617 -5.41872,-0.22637 -9.55388,-0.54384 -12.69727,-0.53516 z m 78.71875,77.41797 c 18.92615,0.2069 37.8797,8.11537 45.12891,23.59765 16.19267,34.58234 -34.68923,58.92055 -67.96094,32.50782 -11.34327,-9.00545 -24.3684,-28.70916 -22.13867,-33.49219 7.1445,-15.32487 26.04455,-22.82018 44.9707,-22.61328 z"
       transform="matrix(0.26458333,0,0,0.26458333,330.68347,-40.174254)" /><path
       id="path10042"
       style="fill:#000000;stroke-width:1.25701"
       d="m 530.71289,632.51367 c -11.64077,-0.0677 -10.25544,3.95059 -6.75586,46.70899 0.39171,4.79172 3.06088,5.62493 17.10156,5.3457 l -0.002,0.004 c 19.48335,-0.38427 28.0459,-4.52151 33.03711,-15.96289 8.23809,-18.88475 -7.93093,-35.21565 -35.50391,-35.85938 -3.11841,-0.0727 -5.72125,-0.22378 -7.87695,-0.23633 z m 9.58008,12.74414 c 1.18196,0.004 2.72207,0.17738 4.71289,0.36524 22.15619,2.08992 21.23246,26.08102 -0.98047,25.46484 -6.27209,-0.17386 -6.27169,-0.17287 -6.97461,-12.50781 -0.63909,-11.21244 -0.9791,-13.33823 3.24219,-13.32227 z"
       transform="matrix(0.26458333,0,0,0.26458333,330.68347,-40.174254)" /><path
       style="fill:#000000;stroke-width:0.332584"
       d="m 459.41293,140.61345 c 3.78561,-0.5648 5.11202,-2.74258 4.949,-8.12515 -0.15054,-4.97468 -0.59606,-5.75863 -2.90891,-5.1194 -1.16784,0.32279 -1.23379,0.65171 -1.03851,5.18219 0.16601,3.85241 -0.0696,4.37837 -2.06547,4.61032 -2.6349,0.3061 -2.97199,-0.25108 -3.40378,-5.62612 -0.34222,-4.26137 -0.70567,-4.85424 -2.67818,-4.36857 -1.40867,0.34698 -1.55718,0.99177 -1.22297,5.30957 0.34625,4.47357 0.41801,4.76722 1.49562,6.12258 1.06577,1.34025 4.54927,2.36145 6.87327,2.01461 z"
       id="path10038" /><path
       style="fill:#000000;stroke-width:0.332584"
       d="m 388.26539,120.7013 c 3.10524,-0.20124 6.34675,-1.45228 8.2533,-3.18548 1.43637,-1.30584 1.43637,-1.30584 1.40772,0.61361 -0.0377,2.52036 -0.0729,2.50386 5.4732,2.55498 5.7221,0.0528 5.41766,0.38797 5.13226,-5.6498 -0.10835,-2.29022 -0.16867,-4.22867 -0.13422,-4.30767 0.13641,-0.31081 -0.46022,-23.93671 -0.61269,-24.29216 -0.18148,-0.42277 -9.33558,-0.59183 -10.28368,-0.18989 -0.4623,0.19595 -0.53169,1.98434 -0.36266,9.34993 0.25883,11.27928 -0.23193,13.05778 -4.2106,15.258 -4.20249,2.32378 -10.52198,0.0538 -11.6364,-4.18086 -0.25279,-0.9601 -0.49948,-10.21471 -0.48373,-18.14754 0.005,-2.20034 0.23821,-2.10753 -5.67832,-2.25313 -2.6027,-0.0641 -4.80281,-0.13919 -4.88911,-0.16677 -0.66572,-0.20907 -0.66154,16.85054 0.003,21.54261 1.0704,7.55072 9.43532,13.60967 18.0215,13.05354 z"
       id="path10034" /><path
       style="fill:#000000;stroke-width:0.332584"
       d="m 442.04776,140.6464 c 1.20283,-0.0534 1.72107,-3.99303 1.10622,-8.41179 -0.21372,-1.53618 -0.21372,-1.53618 1.84954,-1.45382 2.93759,0.11747 3.3337,-0.10911 3.288,-1.88181 -0.0455,-1.76147 0.36664,-1.65211 -7.02507,-1.86385 -7.61568,-0.21812 -8.01679,-0.0978 -7.54951,2.26409 0.22026,1.11309 0.66373,1.27632 3.38477,1.24529 2.44577,-0.0282 2.36336,-0.0408 2.19969,0.33448 -0.0698,0.15908 -0.036,2.29184 0.0742,4.73916 0.2122,4.71275 0.43277,5.12796 2.67212,5.02847 z"
       id="path10030" /><path
       style="fill:#000000;stroke-width:0.332584"
       d="m 426.95076,140.6126 c 6.7705,-0.68074 6.67124,-6.11666 -0.15147,-8.29891 -3.6469,-1.16678 -4.27495,-1.84079 -1.8746,-2.0135 1.05101,-0.0755 1.58665,0.0573 2.38946,0.59268 1.50562,1.0041 1.71766,1.01932 2.68628,0.19173 1.75449,-1.49885 1.08337,-2.81449 -1.92648,-3.77707 -3.6196,-1.15883 -7.00856,-0.11289 -8.15806,2.51585 -1.20705,2.75884 0.47248,4.6245 5.1671,5.7405 2.8629,0.68061 3.52683,1.18636 2.18457,1.66278 -0.47969,0.17047 -1.53744,-0.0258 -3.30503,-0.61323 -2.78169,-0.92651 -3.42506,-0.77304 -4.19379,0.98913 -0.55608,1.2743 4.28133,3.30174 7.18203,3.01004 z"
       id="path10026" /><path
       style="fill:#000000;stroke-width:0.332584"
       d="m 347.51268,120.97015 c 11.61446,0.597 20.29813,-7.09774 17.64199,-15.63272 -1.29291,-4.15465 -6.37703,-6.61338 -14.75734,-7.13704 -5.41484,-0.33837 -6.97871,-0.79023 -7.61091,-2.19939 -1.57948,-3.5207 8.08222,-4.18287 11.32503,-0.77624 1.30746,1.37368 0.78948,1.45267 5.57712,-0.85185 4.64094,-2.23395 4.75787,-2.38161 3.21577,-4.06266 -8.32115,-9.07059 -26.24679,-7.50865 -30.65878,2.6713 -3.34108,7.70915 1.43324,12.30442 13.85995,13.34021 8.03199,0.66943 10.80571,2.98467 6.12894,5.11579 -3.05404,1.39159 -7.62087,0.67334 -10.54353,-1.65836 -0.80971,-0.64615 -1.68708,-1.33284 -1.94962,-1.52605 -0.53936,-0.39684 -8.45038,2.80186 -9.00408,3.64069 -0.53885,0.81648 3.06843,4.25989 6.5917,6.29238 1.68225,0.97045 7.88334,2.666 10.18376,2.78394 z"
       id="path10022" /><path
       id="path10010"
       style="fill:#000000;stroke-width:1.25701"
       d="m 226.62891,630.9668 c -13.4219,0.0547 -12.32506,2.47933 -11.19922,25.34375 0.53987,10.96146 0.94375,21.25619 0.89843,22.875 -0.11375,4.04409 2.25942,4.53284 20.88282,4.30664 21.20851,-0.25739 27.19818,-1.84559 32.03711,-8.49805 4.43746,-6.10023 2.24503,-17.43866 -3.74219,-19.35352 -1.37186,-0.46241 -1.42454,-1.72104 -0.16406,-4.61132 5.9461,-13.62932 -3.05019,-19.68155 -29.66992,-19.96289 -3.57329,-0.0377 -6.55744,-0.10975 -9.04297,-0.0996 z m 13.59765,13.5 c 17.12005,-0.0839 17.62253,6.55456 0.53321,7.04492 -10.09131,0.28951 -10.40188,0.17866 -10.51954,-3.76172 l -0.002,0.002 c -0.0941,-3.14679 0.17977,-3.23712 9.98828,-3.28515 z m 0.11914,19.06054 c 1.34528,0.002 2.90274,0.0289 4.70313,0.0723 17.05376,0.41121 16.12625,6.46445 -1.00195,6.53906 -13.42205,0.0597 -12.68722,0.2402 -12.36524,-3.04297 0.27967,-2.85091 1.39956,-3.57741 8.66406,-3.56836 z"
       transform="matrix(0.26458333,0,0,0.26458333,330.68347,-40.174254)" /><path
       style="fill:#000000;stroke-width:0.332584"
       d="m 376.51402,140.73441 c 6.01367,-0.0192 6.63742,-0.19527 6.64966,-1.87719 0.011,-1.58983 -0.43799,-1.73991 -4.97336,-1.66087 -4.24163,0.0742 -4.7748,-0.0473 -4.36183,-0.99412 0.17114,-0.39002 0.89374,-0.52984 2.67927,-0.51717 3.62947,0.0258 3.93797,-0.11148 3.85964,-1.71907 -0.0877,-1.79667 -0.43256,-1.96164 -3.78116,-1.80771 -1.6154,0.0742 -2.96243,0.0784 -2.99333,0.009 -0.66695,-1.4865 0.23133,-1.87684 4.31868,-1.87665 4.70518,2.8e-4 5.01221,-0.0622 5.1822,-1.05393 0.39527,-2.30583 -0.0126,-2.44417 -7.16251,-2.42471 -7.02771,0.0197 -6.64126,-0.36517 -6.41763,6.39191 0.0922,2.78293 0.12152,5.1655 0.0652,5.29444 -0.16765,0.38114 0.62567,2.08695 1.0094,2.17317 0.19435,0.044 2.8612,0.0713 5.92607,0.0616 z"
       id="path10006" /><path
       style="fill:#000000;stroke-width:0.332584"
       d="m 351.78717,140.09121 c 0.7282,-0.51249 1.04032,-1.09521 1.93472,-3.61208 1.06644,-3.00094 1.06644,-3.00094 2.39843,0.25887 1.4863,3.63725 2.18859,4.18967 4.31122,3.39141 1.18026,-0.44397 1.18026,-0.44397 3.02031,-6.10716 2.08027,-6.40273 2.08837,-7.0796 0.0864,-7.27597 -1.66109,-0.16311 -2.15822,0.50225 -3.297,4.41258 -0.98661,3.38792 -0.98661,3.38792 -2.41759,0.005 -2.35747,-5.5746 -4.43856,-5.59125 -6.30731,-0.0504 -1.24143,3.68101 -1.08907,3.65186 -2.13381,0.40698 -1.28525,-3.99189 -2.69554,-5.31752 -4.61383,-4.33694 -1.24908,0.63852 -1.17232,1.04592 1.33368,7.08185 2.61898,6.30809 3.58875,7.30204 5.68484,5.82673 z"
       id="path10002" /><path
       style="fill:#000000;stroke-width:0.332584"
       d="m 449.66101,3.550914 c 4.24533,-0.06504 4.48299,-5.228602 0.27955,-6.074228 -2.25776,-0.454207 -3.7141,0.420298 -4.56047,2.738546 -0.61871,1.69487 1.54083,3.377643 4.28092,3.335682 z"
       id="path10138" /><path
       style="fill:#000000;stroke-width:0.332584"
       d="m 475.64496,30.549899 c 1.37552,-0.626801 1.82989,-2.614702 0.83907,-3.67122 -1.97113,-2.101886 -6.32047,0.152444 -4.70638,2.439415 0.64766,0.917673 2.94843,1.650505 3.86724,1.231996 z"
       id="path10134" /><path
       style="fill:#000000;stroke-width:0.332584"
       d="m 465.36863,36.371518 c 4.60748,-0.683306 4.79019,-6.332526 0.25162,-7.77925 -4.30454,-1.371893 -8.00199,3.69842 -4.72561,6.480378 0.98453,0.83594 3.21978,1.484897 4.47401,1.298819 z"
       id="path10130" /><path
       style="fill:#000000;stroke-width:0.332584"
       d="m 471.14624,44.30426 c 0.9814,-0.351335 1.58529,-2.163148 0.98068,-2.942193 -1.54965,-1.996742 -4.59734,-1.720776 -4.95174,0.448383 -0.26546,1.62458 2.1544,3.144212 3.9711,2.493821 z"
       id="path10126" /><path
       style="fill:#000000;stroke-width:0.332584"
       d="m 431.22597,43.400724 c 2.05314,-0.03146 3.44647,-2.059873 2.64383,-3.848931 -1.0362,-2.309629 -4.99462,-2.2374 -6.01855,0.109805 -0.86569,1.984719 0.75391,3.779258 3.37472,3.739119 z"
       id="path10122" /><path
       style="fill:#000000;stroke-width:0.332584"
       d="m 405.45555,42.86563 c 2.44784,-1.022278 2.12622,-3.672513 -0.54953,-4.528373 -1.82747,-0.585805 -2.72589,-0.215488 -3.43621,1.412774 -0.90768,2.080441 1.65953,4.087095 3.98574,3.115599 z"
       id="path10114" /></g><g
     inkscape:groupmode="layer"
     id="layer4"
     inkscape:label="red"
     style="display:none"
     transform="translate(-32.997654,-28.204446)"><path
       style="display:inline;fill:#000000;stroke-width:0.332584"
       d="m 418.04236,65.04238 c -42.99986,-17.845329 -40.87102,-67.256134 3.54805,-82.349613 31.79207,-10.802896 68.39649,10.840787 70.22428,41.522643 1.95839,32.873279 -38.70801,55.37879 -73.77232,40.82688 z"
       id="path10100"
       transform="translate(-297.68583,68.3787)" /><path
       style="display:inline;fill:#000000;stroke-width:0.332584"
       d="m 448.6753,-36.684006 c 0.0325,-0.921119 0.63946,-1.300796 1.86065,-1.163498 4.28484,0.481563 16.35349,4.235899 17.50315,5.444929 0.42086,0.442579 0.15163,1.723505 -0.33555,1.596363 -0.1339,-0.03424 -3.61217,-1.087957 -7.72998,-2.34022 -4.1179,-1.252238 -8.34905,-2.433229 -9.40265,-2.624375 -1.61684,-0.293315 -1.91249,-0.435745 -1.89562,-0.913183 z"
       id="path10252"
       transform="translate(-297.68583,68.3787)" /><path
       style="display:inline;fill:#000000;stroke-width:0.332584"
       d="m 434.47502,-37.83938 c -0.63992,-1.426363 0.83473,-1.732951 5.60542,-1.165419 4.10131,0.487908 4.88275,0.824349 4.262,1.834963 -0.54081,0.880638 -9.44293,0.276594 -9.86742,-0.669544 z"
       id="path10248"
       transform="translate(-297.68583,68.3787)" /><path
       style="display:inline;fill:#000000;stroke-width:0.332584"
       d="m 427.97257,-37.823446 c -0.38047,-0.848046 0.90383,-1.407705 1.70799,-0.744317 0.66285,0.546827 0.002,1.524108 -0.8471,1.252553 -0.40647,-0.12974 -0.7938,-0.358642 -0.86089,-0.508236 z"
       id="path10244"
       transform="translate(-297.68583,68.3787)" /><path
       style="display:inline;fill:#000000;stroke-width:0.332584"
       d="m 456.6415,-26.28611 c -0.0584,-0.588381 0.0945,-0.764803 0.84211,-0.971407 1.70772,-0.471977 3.41926,0.75439 2.64774,1.89718 -0.56725,0.840315 -3.38896,0.09178 -3.48985,-0.925773 z"
       id="path10240"
       transform="translate(-297.68583,68.3787)" /><path
       style="display:inline;fill:#000000;stroke-width:0.332584"
       d="m 446.20197,-27.809492 c 0.033,-0.933271 1.01487,-1.337007 2.92091,-1.201008 1.99802,0.142571 2.63391,0.636929 2.17435,1.690387 -0.41732,0.957044 -5.13035,0.504343 -5.09526,-0.489379 z"
       id="path10236"
       transform="translate(-297.68583,68.3787)" /><path
       style="display:inline;fill:#000000;stroke-width:0.332584"
       d="m 477.63049,-16.957773 c -5.82851,-4.217879 -5.75861,-11.155569 0.1452,-14.413181 6.13725,-3.386452 16.25057,1.404588 16.60656,7.867108 0.39902,7.244469 -10.11131,11.351557 -16.75178,6.546073 z"
       id="path10232"
       transform="translate(-297.68583,68.3787)" /><path
       style="display:inline;fill:#000000;stroke-width:0.332584"
       d="m 438.78963,-28.262686 c -0.37207,-0.829296 0.19093,-1.585746 1.13153,-1.520326 1.06345,0.07393 1.69055,0.547705 1.6654,1.258796 -0.0422,1.195581 -2.28385,1.405198 -2.79693,0.26153 z"
       id="path10228"
       transform="translate(-297.68583,68.3787)" /><path
       style="display:inline;fill:#000000;stroke-width:0.332584"
       d="m 501.59708,-4.27242 c -0.87043,-0.743214 -0.21127,-2.066093 0.98799,-1.98268 1.44471,0.10047 2.00225,1.604985 0.81894,2.209896 -0.95171,0.486518 -0.97435,0.483673 -1.80693,-0.227216 z"
       id="path10224"
       transform="translate(-297.68583,68.3787)" /><path
       style="display:inline;fill:#000000;stroke-width:0.332584"
       d="m 490.05899,-5.534948 c -0.54665,-0.640598 -0.0959,-1.632988 0.8079,-1.779136 1.70518,-0.275616 2.63812,1.800745 1.02411,2.279151 -0.88949,0.263642 -1.26871,0.160139 -1.83205,-0.500081 z"
       id="path10220"
       transform="translate(-297.68583,68.3787)" /><path
       style="display:inline;fill:#000000;stroke-width:0.332584"
       d="m 408.60361,-30.819987 c -2.25375,-2.117996 -2.13144,-4.997724 0.28842,-6.789452 4.57288,-3.385885 11.89091,0.835135 9.78713,5.645193 -1.51515,3.465252 -6.94932,4.08223 -10.07555,1.144259 z"
       id="path10216"
       transform="translate(-297.68583,68.3787)" /><path
       style="display:inline;fill:#000000;stroke-width:0.332584"
       d="m 502.63405,1.897691 c -0.66117,-0.982922 0.17856,-1.753581 1.46308,-1.342714 0.92284,0.294803 1.06916,0.4789 0.89173,1.11894 -0.33048,1.192519 -1.62072,1.315099 -2.35481,0.223774 z"
       id="path10212"
       transform="translate(-297.68583,68.3787)" /><path
       style="display:inline;fill:#000000;stroke-width:0.332584"
       d="m 402.04932,-20.902422 c -1.20194,-1.085422 -0.92054,-2.422159 0.63292,-3.006484 2.86798,-1.078691 5.30367,1.956951 2.65223,3.305525 -1.37358,0.698664 -2.2708,0.616994 -3.28515,-0.299041 z"
       id="path10208"
       transform="translate(-297.68583,68.3787)" /><path
       style="display:inline;fill:#000000;stroke-width:0.332584"
       d="m 503.98702,16.099555 c -1.90716,-1.820604 -2.44585,-4.477315 -1.25177,-6.17342 3.29705,-4.683236 11.78365,-2.689057 12.48911,2.934673 0.62568,4.987639 -7.07912,7.208263 -11.23734,3.238747 z"
       id="path10204"
       transform="translate(-297.68583,68.3787)" /><path
       style="display:inline;fill:#000000;stroke-width:0.332584"
       d="m 391.70834,-11.311505 c -1.00697,-1.426685 0.55128,-2.88927 2.43598,-2.286437 0.92469,0.295433 1.73555,1.639144 1.42255,2.356588 -0.51964,1.190641 -3.0005,1.145622 -3.85853,-0.07015 z"
       id="path10200"
       transform="translate(-297.68583,68.3787)" /><path
       style="display:inline;fill:#000000;stroke-width:0.332584"
       d="m 499.07588,30.883466 c -1.26758,-1.485693 0.0792,-3.092719 2.06062,-2.458953 1.95082,0.623786 1.94447,2.66739 -0.009,2.957127 -1.32345,0.196277 -1.49451,0.154742 -2.05157,-0.498118 z"
       id="path10196"
       transform="translate(-297.68583,68.3787)" /><path
       style="display:inline;fill:#000000;stroke-width:0.332584"
       d="m 498.41635,38.382528 c -0.58338,-1.300253 0.52988,-2.275575 2.04438,-1.791163 1.56865,0.501992 1.59618,2.184152 0.0427,2.613509 -1.20528,0.333118 -1.64665,0.159212 -2.08704,-0.822273 z"
       id="path10192"
       transform="translate(-297.68583,68.3787)" /><path
       style="display:inline;fill:#000000;stroke-width:0.332584"
       d="m 370.46528,-1.660371 c -0.737,-2.229747 10.22183,-17.50009 13.36712,-18.626145 2.5832,-0.924778 2.19609,1.27291 -0.75021,4.259547 -1.25803,1.275287 -3.18196,3.519841 -4.27532,4.987977 -1.0934,1.468104 -2.11723,2.680682 -2.27516,2.694606 -0.15803,0.01386 -0.26265,0.171452 -0.23271,0.350038 0.0863,0.51404 -3.45696,6.661939 -4.02239,6.979134 -0.68221,0.382753 -1.57701,0.06405 -1.81142,-0.645198 z"
       id="path10188"
       transform="translate(-297.68583,68.3787)" /><path
       style="display:inline;fill:#000000;stroke-width:0.332584"
       d="m 368.16719,15.195209 c -3.99457,-3.392469 -0.99648,-8.492809 4.56658,-7.768623 4.17361,0.543302 5.8669,6.089312 2.47138,8.09451 -2.07767,1.226946 -5.39011,1.073583 -7.03796,-0.325887 z"
       id="path10184"
       transform="translate(-297.68583,68.3787)" /><path
       style="display:inline;fill:#000000;stroke-width:0.332584"
       d="m 496.07259,64.05895 c -0.45713,-0.67956 -0.37212,-0.8251 2.56467,-4.39131 6.65624,-8.082944 11.17026,-18.70106 11.89362,-27.976675 0.35715,-4.579129 2.96298,-3.996578 2.71701,0.607369 -0.50706,9.489719 -5.24562,20.416056 -12.73122,29.356286 -2.65072,3.16576 -3.59003,3.67397 -4.44407,2.40433 z"
       id="path10180"
       transform="translate(-297.68583,68.3787)" /><path
       style="display:inline;fill:#000000;stroke-width:0.332584"
       d="m 367.25554,28.507265 c -0.36152,-1.549072 0.60179,-2.543847 2.02312,-2.089167 0.87375,0.279776 1.24383,1.786361 0.66925,2.726184 -0.602,0.984798 -2.4139,0.556137 -2.69237,-0.637017 z"
       id="path10176"
       transform="translate(-297.68583,68.3787)" /><path
       style="display:inline;fill:#000000;stroke-width:0.332584"
       d="m 368.4547,36.4197 c -0.74644,-1.870656 -0.0259,-3.287611 1.4345,-2.82046 1.18539,0.384679 1.49344,3.729989 0.36479,3.991025 -0.92195,0.21327 -1.36114,-0.07241 -1.79929,-1.170565 z"
       id="path10168"
       transform="translate(-297.68583,68.3787)" /><path
       style="display:inline;fill:#000000;stroke-width:0.332584"
       d="m 371.49321,45.937042 c -1.68745,-3.630114 -1.68529,-4.752332 0.008,-4.417554 1.14205,0.225497 4.39379,6.752185 3.80161,7.629773 -0.93696,1.388446 -2.14495,0.370096 -3.81013,-3.212219 z"
       id="path10164"
       transform="translate(-297.68583,68.3787)" /><path
       style="display:inline;fill:#000000;stroke-width:0.332584"
       d="m 394.06455,65.54933 c -0.36691,-0.81753 0.56865,-1.73737 1.8615,-1.83033 3.15844,-0.22708 5.64766,0.94049 4.52192,2.12096 -0.65282,0.68457 -6.05632,0.43865 -6.38342,-0.29063 z"
       id="path10096"
       transform="translate(-297.68583,68.3787)" /><path
       style="display:inline;fill:#000000;stroke-width:0.332584"
       d="m 376.5256,67.15098 c -3.7746,-3.63182 -2.15536,-8.4567 3.17696,-9.46681 6.66338,-1.262313 11.78773,5.51449 7.21516,9.54143 -2.90808,2.56108 -7.68866,2.52672 -10.39212,-0.0746 z"
       id="path10092"
       transform="translate(-297.68583,68.3787)" /><path
       style="display:inline;fill:#000000;stroke-width:0.332584"
       d="m 446.9205,1.999775 c -1.20185,-1.028784 -0.78198,-2.845891 0.81313,-3.519123 1.23298,-0.520397 3.29161,0.02782 4.02932,1.07306 0.9527,1.349894 -1.04162,3.663888 -2.7005,3.133292 -0.33416,-0.106705 -0.82356,-0.194666 -1.0877,-0.195089 -0.26409,-4.55e-4 -0.73876,-0.221308 -1.05425,-0.492147 z"
       id="path10140"
       transform="translate(-297.68583,68.3787)" /><path
       style="display:inline;fill:#000000;stroke-width:0.332584"
       d="m 472.77622,29.119741 c -0.47355,-0.576803 -0.0658,-1.765508 0.72999,-2.128075 1.20858,-0.550712 3.16703,0.872044 2.68121,1.947863 -0.47267,1.048178 -2.6062,1.16068 -3.41109,0.180252 z"
       id="path10136"
       transform="translate(-297.68583,68.3787)" /><path
       style="display:inline;fill:#000000;stroke-width:0.332584"
       d="m 460.87319,33.386727 c -0.72737,-1.621295 -0.14662,-2.918042 1.67946,-3.750061 2.87337,-1.309338 6.37327,1.402337 5.22054,4.044801 -1.10384,2.530406 -5.72088,2.333209 -6.89987,-0.294706 z"
       id="path10132"
       transform="translate(-297.68583,68.3787)" /><path
       style="display:inline;fill:#000000;stroke-width:0.332584"
       d="m 468.27716,42.603435 c -0.45354,-0.67418 0.0281,-1.565748 0.96119,-1.779212 1.65499,-0.378646 3.12586,2.096836 1.5274,2.57063 -0.95946,0.28441 -1.98416,-0.04148 -2.48877,-0.7911 z"
       id="path10128"
       transform="translate(-297.68583,68.3787)" /><path
       style="display:inline;fill:#000000;stroke-width:0.332584"
       d="m 428.8051,41.325788 c -0.48634,-1.266749 0.2778,-2.315915 1.8665,-2.562585 1.55528,-0.241525 3.07972,1.4362 2.504,2.755892 -0.60484,1.386679 -3.81847,1.244547 -4.3705,-0.193307 z"
       id="path10124"
       transform="translate(-297.68583,68.3787)" /><path
       style="display:inline;fill:#000000;stroke-width:0.332584"
       d="m 402.29411,41.169375 c -0.45431,-1.01259 -0.23804,-1.546967 0.79394,-1.96236 1.54873,-0.623162 3.67584,0.814773 3.11324,2.104429 -0.27569,0.630394 -1.93096,1.188598 -2.74984,0.926742 -0.43762,-0.13344 -0.9564,-0.620237 -1.15758,-1.068905 z"
       id="path10116"
       transform="translate(-297.68583,68.3787)" /><path
       style="display:inline;fill:#000000;stroke-width:0.332584"
       d="m 482.97774,66.94849 c -0.60814,-0.71264 -0.0465,-1.6827 1.03797,-1.79282 0.74356,-0.0755 1.04446,0.0585 1.51061,0.6733 1.27647,1.68363 -1.156,2.75176 -2.54856,1.11948 z"
       id="path10172"
       transform="translate(-297.68583,68.3787)" /><path
       style="display:inline;fill:#000000;stroke-width:0.332584"
       d="m 515.70481,118.2844 c -9.31219,-5.20192 -12.73565,-15.8929 -7.34393,-22.93416 9.43529,-12.32185 31.13491,-6.74883 33.40426,8.57914 0.66492,4.49131 1.09389,4.15687 -5.22305,4.07176 -21.25466,-0.28627 -21.36581,-0.27954 -20.21609,1.23412 3.37214,4.43988 10.53241,5.95173 15.66658,3.30801 2.04713,-1.05407 2.0828,-1.05811 2.89931,-0.33538 0.45469,0.40246 1.75824,1.44109 2.89677,2.30828 2.07014,1.57646 2.07014,1.57646 1.03193,2.46184 -5.37829,4.58627 -16.15418,5.19521 -23.11578,1.30639 z"
       id="path10084"
       transform="translate(-297.68583,68.3787)" /><path
       style="display:inline;fill:#000000;stroke-width:0.332584"
       d="m 490.83103,98.37209 c -0.77069,-12.33729 -1.33949,-22.50082 -1.26417,-22.58541 0.18138,-0.20358 8.37088,0.0165 8.45951,0.22755 0.21139,0.50285 3.08525,44.72273 2.91172,44.80181 -0.11493,0.0525 -2.12064,0.0708 -4.45737,0.0414 -4.24849,-0.054 -4.24849,-0.054 -5.64969,-22.48529 z"
       id="path10080"
       transform="translate(-297.68583,68.3787)" /><path
       style="display:inline;fill:#000000;stroke-width:0.332584"
       d="m 474.90862,118.00696 c -4.71131,-3.16672 -6.11498,-6.38715 -6.72025,-15.41795 -0.52116,-7.77661 -0.18421,-7.04873 -3.33094,-7.19419 -1.4365,-0.0664 -2.64902,-0.13256 -2.69446,-0.14721 -0.20271,-0.0684 -0.56785,-7.25931 -0.3718,-7.34864 0.12105,-0.0551 1.39825,-0.0749 2.8381,-0.044 3.306,0.0713 3.29804,0.0851 2.93301,-5.12601 -0.29966,-4.27821 -0.29966,-4.27821 4.16655,-4.13802 2.45646,0.077 4.4981,0.21099 4.53693,0.29771 0.0389,0.0865 0.16564,2.18115 0.28166,4.65444 0.11604,2.47327 0.38918,4.55405 0.60708,4.62362 0.21752,0.0705 1.82738,0.19347 3.57658,0.27515 1.74925,0.0816 3.28678,0.18052 3.41676,0.21969 0.24862,0.079 0.84341,7.25209 0.60782,7.35105 -0.076,0.0325 -1.74105,0.011 -3.70064,-0.047 -4.47489,-0.13147 -4.33962,-0.35343 -3.9016,6.39973 0.46832,7.22149 1.48479,8.88505 6.15535,10.07384 1.89707,0.48226 1.89707,0.48226 2.08457,3.51176 0.30787,4.96998 0.32347,4.90744 -1.21582,4.85999 -2.28537,-0.0705 -7.58878,-1.67479 -9.26888,-2.80411 z"
       id="path10076"
       transform="translate(-297.68583,68.3787)" /><path
       style="display:inline;fill:#000000;stroke-width:0.332584"
       d="m 513.43622,138.99503 c -0.74568,-0.41116 -0.74171,-0.48197 0.0658,-1.15411 0.5072,-0.42206 0.80273,-0.39104 2.15669,0.22634 3.2657,1.48916 6.72067,0.70475 5.54925,-1.26 -0.41505,-0.69595 -0.86102,-0.8951 -3.46245,-1.5461 -4.57136,-1.14385 -6.35664,-3.43811 -4.3347,-5.5706 2.03588,-2.14722 10.01509,-1.30324 8.1653,0.8637 -0.35432,0.41499 -0.76934,0.39138 -2.4245,-0.13793 -2.20522,-0.70296 -4.00395,-0.51491 -4.43292,0.46846 -0.47734,1.09412 0.22119,1.60691 3.55959,2.61329 2.6338,0.79369 3.34838,1.13425 4.16571,1.98152 3.82902,3.97066 -3.20241,6.71478 -9.00788,3.51538 z"
       id="path10072"
       transform="translate(-297.68583,68.3787)" /><path
       style="display:inline;fill:#000000;stroke-width:0.332584"
       d="m 498.65521,139.37822 c -5.87099,-2.98922 -4.07526,-10.61373 2.56688,-10.89855 3.94277,-0.16909 7.20978,3.01649 7.06642,6.89022 -0.15633,4.22506 -5.13703,6.29748 -9.6333,4.00833 z"
       id="path10064"
       transform="translate(-297.68583,68.3787)" /><path
       style="display:inline;fill:#000000;stroke-width:0.332584"
       d="m 487.73906,134.30246 c -0.35736,-5.22439 -0.33423,-5.58742 0.36932,-5.79594 0.41277,-0.12232 0.89113,-0.10626 1.06311,0.0354 0.60941,0.5028 1.11984,11.40546 0.54017,11.5398 -1.40349,0.32543 -1.59295,-0.2299 -1.9726,-5.77933 z"
       id="path10060"
       transform="translate(-297.68583,68.3787)" /><path
       style="display:inline;fill:#000000;stroke-width:0.332584"
       d="m 415.05009,117.98863 c -0.0235,-2.59774 -0.22699,-11.41211 -0.37552,-16.27482 -0.0742,-2.42502 -0.18098,-6.46733 -0.2374,-8.98287 -0.0564,-2.51536 -0.18511,-7.57528 -0.2859,-11.24401 -0.10084,-3.66876 -0.11274,-6.70262 -0.0265,-6.74186 0.18143,-0.0833 8.45853,0.15786 8.76023,0.2544 0.10976,0.0365 0.19999,1.51793 0.19923,3.29477 -7.2e-4,1.7767 0.0897,5.34221 0.20097,7.92333 0.23663,5.488 0.43542,5.71462 3.22353,3.67287 9.80455,-7.17972 26.29317,-2.81369 31.24701,8.27389 7.30689,16.35454 -14.48129,28.77617 -31.41447,17.90971 -2.23062,-1.43128 -2.31422,-1.38335 -2.37814,1.36393 -0.0479,2.05568 -0.11008,2.26587 -0.69737,2.35773 -0.61483,0.0963 -7.7057,0.0158 -8.0405,-0.0919 -0.0881,-0.0284 -0.16697,-0.79995 -0.17521,-1.71522 z"
       id="path10052"
       transform="translate(-297.68583,68.3787)" /><path
       style="display:inline;fill:#000000;stroke-width:0.332584"
       d="m 470.1942,138.91092 c -0.37839,-4.48894 -0.70215,-10.23479 -0.59116,-10.48923 0.21012,-0.4808 5.93598,-0.37944 7.5565,0.13416 7.32855,2.32227 6.37451,10.90753 -1.27348,11.45739 -4.48946,0.32279 -5.58973,0.10974 -5.69186,-1.10224 z"
       id="path10044"
       transform="translate(-297.68583,68.3787)" /><path
       style="display:inline;fill:#000000;stroke-width:0.332584"
       d="m 453.82669,138.52915 c -1.57339,-1.25793 -2.86978,-9.08221 -1.70693,-10.30172 1.1218,-1.17637 1.738,-0.0496 1.88252,3.44278 0.22084,5.33485 1.66964,7.18625 4.94256,6.31654 2.18081,-0.57963 2.52569,-1.43525 2.41426,-5.98993 -0.0878,-3.591 0.0746,-4.14964 1.10999,-3.81852 0.89799,0.28794 1.49718,7.37854 0.76445,9.05078 -1.19252,2.72221 -6.67997,3.48053 -9.40688,1.30004 z"
       id="path10040"
       transform="translate(-297.68583,68.3787)" /><path
       style="display:inline;fill:#000000;stroke-width:0.332584"
       d="m 378.46305,117.54818 c -3.73152,-2.17832 -6.50073,-5.92674 -7.17774,-9.71575 -0.50622,-2.83353 -0.85606,-20.96906 -0.40165,-20.8237 0.0644,0.0211 1.94949,0.0739 4.18855,0.11825 2.23909,0.0444 4.22601,0.12973 4.41546,0.18982 0.3631,0.12234 0.40387,1.0054 0.45466,10.55361 0.0585,10.99433 0.72846,12.52067 6.27575,14.30008 4.7041,1.51106 9.13652,-0.51108 11.22254,-5.11584 0.85251,-1.88183 0.83837,-1.5113 0.56811,-14.93203 -0.10396,-5.1672 -0.10396,-5.1672 4.40058,-5.17797 2.47753,-0.006 4.53304,0.054 4.56777,0.13304 0.0729,0.16713 0.43458,17.63625 0.48275,23.33119 0.0179,2.11909 0.098,5.03685 0.17787,6.48413 0.16363,2.96377 0.11071,3.05589 -1.7081,2.97223 -0.72137,-0.0334 -2.5654,-0.0796 -4.09785,-0.1033 -2.78623,-0.0429 -2.78623,-0.0429 -2.9647,-2.5205 -0.16921,-2.34815 -0.82871,-3.438 -1.35765,-2.24345 -2.20803,4.98618 -12.51053,6.36564 -19.04637,2.55019 z"
       id="path10036"
       transform="translate(-297.68583,68.3787)" /><path
       style="display:inline;fill:#000000;stroke-width:0.332584"
       d="m 440.28793,135.19353 c -0.10913,-2.45688 -0.14818,-4.58193 -0.0869,-4.72254 0.26815,-0.61658 -0.51803,-0.82549 -2.87978,-0.76547 -2.52925,0.0644 -2.52925,0.0644 -2.70711,-0.83639 -0.23073,-1.16615 1.14072,-1.26344 11.84833,-0.84011 0.62327,0.0246 1.1998,1.05527 0.93275,1.66743 -0.0584,0.12832 -1.22544,0.20336 -2.59795,0.16491 -2.79031,-0.0783 -2.89623,0.0142 -2.60122,2.28756 0.45411,3.49882 0.28839,7.49447 -0.31662,7.6344 -1.20897,0.27942 -1.39954,-0.2704 -1.59135,-4.59035 z"
       id="path10032"
       transform="translate(-297.68583,68.3787)" /><path
       style="display:inline;fill:#000000;stroke-width:0.332584"
       d="m 421.26113,138.52428 c -0.35578,-0.20811 -0.57361,-0.54058 -0.48417,-0.73862 0.38149,-0.84341 1.00253,-0.88958 2.97744,-0.22035 2.39891,0.81233 4.14473,0.71157 4.74894,-0.27569 0.83748,-1.36819 0.34347,-1.75345 -3.4859,-2.71789 -4.77233,-1.20205 -6.14217,-3.63965 -3.28155,-5.83953 2.3796,-1.83 9.61182,-0.4654 7.93617,1.4975 -0.43492,0.50945 -0.64784,0.48996 -2.22203,-0.20342 -1.98622,-0.87495 -3.80715,-0.80734 -4.64337,0.17223 -0.99941,1.17067 -0.23476,1.82081 3.37548,2.87007 3.647,1.06005 4.8354,1.99363 4.76783,3.74575 -0.10992,2.84712 -5.97583,3.88249 -9.68884,1.70995 z"
       id="path10028"
       transform="translate(-297.68583,68.3787)" /><path
       style="display:inline;fill:#000000;stroke-width:0.332584"
       d="m 336.03218,116.16854 c -2.21145,-1.53095 -4.27109,-3.48001 -4.09756,-3.87771 0.0424,-0.0992 1.69746,-0.89228 3.67636,-1.76318 3.59793,-1.58352 3.59793,-1.58352 4.93574,-0.35384 4.64682,4.27171 15.55644,3.42131 14.65347,-1.1422 -0.46051,-2.32766 -2.13645,-2.98421 -9.27714,-3.63419 -8.39102,-0.76374 -11.85712,-2.3889 -13.14631,-6.16414 -4.17583,-12.22843 19.68857,-19.39792 29.03729,-8.72353 1.20362,1.3743 1.35065,1.20298 -2.70722,3.15396 -3.52506,1.69479 -3.52506,1.69479 -4.7338,0.58289 -4.49036,-4.13017 -15.42703,-1.70365 -12.17342,2.70105 1.01822,1.37847 2.0675,1.67104 7.54165,2.10324 11.5785,0.91399 16.30888,4.64167 14.7037,11.58656 -2.18186,9.43968 -18.24879,12.56745 -28.41278,5.53114 z"
       id="path10024"
       transform="translate(-297.68583,68.3787)" /><path
       style="display:inline;fill:#000000;stroke-width:0.332584"
       d="m 388.82117,139.08117 c 0.0298,-1.17278 -0.14489,-5.79105 -0.32639,-8.62614 -0.1946,-3.03886 -0.63796,-2.79955 5.10061,-2.75411 3.93313,0.031 5.08133,0.3031 6.27436,1.48631 0.77453,0.76835 0.72067,2.32641 -0.10411,3.01283 -0.82055,0.68286 -0.7448,1.04261 0.34852,1.65571 1.95475,1.09627 2.0522,3.38684 0.20452,4.80779 -1.79471,1.38022 -11.53094,1.73386 -11.49745,0.41761 z"
       id="path10012"
       transform="translate(-297.68583,68.3787)" /><path
       style="display:inline;fill:#000000;stroke-width:0.332584"
       d="m 370.60649,138.89216 c -0.0157,-0.44449 -0.0348,-1.20318 -0.0427,-1.68592 -0.008,-0.48286 -0.0759,-2.60142 -0.15131,-4.70779 -0.0752,-2.10656 -0.0898,-4.03993 -0.0322,-4.29645 0.0749,-0.33345 1.63911,-0.47106 5.48984,-0.48313 6.09942,-0.0191 6.19101,-0.005 6.2849,0.94176 0.0751,0.75768 0.52056,0.69669 -5.84858,0.80094 -3.36347,0.0549 -3.84293,0.33835 -3.69925,2.18622 0.1267,1.62882 0.0211,1.58692 3.50204,1.39421 3.3612,-0.18615 3.30155,-0.2015 3.33339,0.85954 0.0248,0.82652 -0.0546,0.85062 -2.94708,0.89114 -3.30897,0.0464 -4.14633,0.62889 -3.56242,2.47741 0.28936,0.91617 0.28936,0.91617 4.72555,0.83344 4.76393,-0.089 4.70347,-0.10296 4.36727,1.0039 -0.20654,0.68012 -0.59342,0.74143 -4.81828,0.76349 -6.3781,0.0329 -6.56678,0.005 -6.60123,-0.97874 z"
       id="path10008"
       transform="translate(-297.68583,68.3787)" /><path
       style="display:inline;fill:#000000;stroke-width:0.332584"
       d="m 348.0195,136.19483 c -3.4968,-8.18657 -3.43482,-7.98702 -2.5609,-8.25183 1.02529,-0.3108 2.01978,0.78653 2.45795,2.7113 0.52406,2.30229 2.10775,5.40791 2.63531,5.16748 0.32316,-0.14722 0.84242,-1.30242 1.64141,-3.65119 1.9466,-5.72261 2.74409,-5.72061 4.93681,0.0126 1.7011,4.44747 2.22081,4.5784 3.4425,0.86695 1.67466,-5.08736 2.76809,-6.64476 3.50693,-4.99735 0.44795,0.99844 -3.15012,10.90704 -4.06463,11.1932 -1.41009,0.44102 -1.8298,-0.0111 -3.23521,-3.47942 -1.86762,-4.61028 -1.98991,-4.61324 -3.73109,-0.0908 -1.25803,3.26784 -1.47104,3.6471 -2.1573,3.85075 -1.2173,0.36071 -1.37115,0.18226 -2.8718,-3.33094 z"
       id="path10004"
       transform="translate(-297.68583,68.3787)" /></g><g
     inkscape:groupmode="layer"
     id="layer5"
     inkscape:label="yellow 2"
     style="display:inline" /><g
     inkscape:groupmode="layer"
     id="layer3"
     inkscape:label="yellow"
     style="display:inline"
     transform="translate(-32.997654,-28.204446)"><path
       id="path644"
       style="fill:#5dff39;fill-opacity:1;stroke-width:0.355105;stroke-linecap:round;stroke-linejoin:bevel"
       d="m 138.85509,29.182716 c -1.26968,0.0076 -1.95853,0.221813 -2.0929,0.646988 -0.13575,0.42944 0.0665,0.747128 0.61599,0.967899 0.49943,0.200662 2.43737,0.548603 3.63337,0.652155 1.27569,0.110459 4.55232,0.07704 5.01209,-0.05116 0.5927,-0.165317 0.90212,-0.653235 0.6258,-0.987539 -0.3433,-0.415366 -2.54642,-0.832273 -6.03529,-1.142566 -0.67632,-0.06015 -1.26223,-0.08875 -1.75906,-0.08578 z m -7.72253,0.446484 c -0.23053,0.0029 -0.44992,0.05833 -0.58394,0.170013 -0.33721,0.281014 -0.26156,0.773341 0.15348,0.999424 0.9771,0.532292 1.98419,-0.234235 1.22008,-0.928626 -0.17792,-0.161669 -0.49321,-0.244571 -0.78962,-0.240811 z m -16.01452,0.05064 c -1.24491,-0.0033 -2.50393,0.343718 -3.62717,1.0604 -2.4753,1.579377 -2.71786,4.690279 -0.5209,6.683314 0.97607,0.885452 2.39017,1.585249 3.60081,1.781286 2.84371,0.460486 5.633,-0.908507 6.41977,-3.151229 0.54303,-1.547847 0.24727,-2.811471 -0.97772,-4.179589 -1.28678,-1.437132 -3.07532,-2.18943 -4.89479,-2.194182 z m 37.40133,0.931728 c -0.93599,-0.01159 -1.2958,0.276426 -1.44177,0.860412 -0.12691,0.507825 0.12666,0.698013 1.24902,0.937926 2.25653,0.482349 7.99701,2.121276 14.60789,4.169773 1.6409,0.508466 3.05084,0.930743 3.13314,0.938443 0.25386,0.02379 0.50446,-0.766649 0.36897,-1.163754 -0.30452,-0.892432 -6.38891,-3.137853 -13.01729,-4.803841 -2.45138,-0.616136 -3.96396,-0.927376 -4.89996,-0.938959 z m 31.97789,5.393984 c -0.72442,0.0026 -1.42662,0.07652 -2.08566,0.228928 -2.28176,0.527682 -4.89387,2.495441 -5.86372,4.4173 -0.26249,0.520145 -0.57895,1.467417 -0.70384,2.104782 -0.82265,4.198877 2.80049,8.921832 7.90081,10.299112 1.45255,0.392232 4.13973,0.370235 5.7118,-0.04702 2.09478,-0.556001 3.417,-1.303203 4.88084,-2.757972 1.61945,-1.609383 2.1843,-2.860566 2.2133,-4.899959 0.0229,-1.604711 -0.3713,-2.747017 -1.50378,-4.358907 -2.06627,-2.940949 -6.63786,-5.000408 -10.54975,-4.98626 z m -42.41756,2.70578 c -0.0567,1.37e-4 -0.11462,0.0013 -0.17312,0.0041 -0.4203,0.02077 -0.82837,0.478401 -0.82837,0.928627 0,0.431932 0.52081,1.034994 0.97152,1.124995 0.74632,0.149021 1.6232,-0.232101 1.75596,-0.763262 0.1853,-0.741236 -0.57381,-1.297334 -1.72599,-1.294493 z m 8.79533,0.70745 c -0.84281,0.0062 -1.63584,0.170424 -1.98076,0.516763 -0.58568,0.588127 -0.13562,1.122445 1.18649,1.408184 0.9584,0.207124 2.34112,0.211159 2.9285,0.0088 0.5264,-0.18134 0.81805,-0.745744 0.58498,-1.131196 -0.31595,-0.522526 -1.56426,-0.811017 -2.71921,-0.802535 z m 9.72137,1.710489 c -0.56476,0.0029 -1.15035,0.134988 -1.38183,0.367419 -0.45043,0.45226 -0.21172,0.939628 0.68316,1.394749 0.95715,0.486814 2.14041,0.520202 2.45463,0.06976 0.41321,-0.592415 0.14506,-1.184645 -0.74621,-1.647446 -0.24664,-0.128072 -0.62334,-0.186471 -1.00975,-0.184484 z m -54.37756,3.234944 c -0.37756,7.94e-4 -0.77139,0.07457 -1.16582,0.225827 -1.61821,0.620559 -1.75421,2.026883 -0.29456,3.044775 0.55303,0.385636 0.83908,0.45692 1.57975,0.391189 0.98827,-0.0877 1.75189,-0.550883 2.18953,-1.328084 0.25005,-0.444024 0.25005,-0.5554 0,-0.999421 -0.48613,-0.863325 -1.34402,-1.336233 -2.3089,-1.334286 z m -19.101162,3.626136 c -0.186743,0.0074 -0.419941,0.06128 -0.70435,0.159681 -0.934667,0.323342 -2.063239,1.259904 -3.586861,2.978111 -4.832974,5.450167 -9.928076,13.301096 -9.928076,15.297774 0,0.265832 0.178146,0.589058 0.417031,0.75706 0.592269,0.416555 0.863216,0.367956 1.445905,-0.258382 0.906828,-0.974804 3.763079,-6.039249 3.763079,-6.67246 0,-0.14722 0.118734,-0.313476 0.264065,-0.369488 0.145372,-0.05601 1.231688,-1.315117 2.414323,-2.79776 1.182594,-1.482643 2.892298,-3.500625 3.799252,-4.484481 1.898706,-2.059723 2.710945,-3.249028 2.710945,-3.970816 0,-0.447366 -0.184478,-0.655402 -0.595313,-0.639239 z m 54.454552,0.373621 c -8.14943,-0.0749 -16.0648,1.70612 -24.07811,5.382101 -13.76983,6.316678 -23.592327,17.114043 -26.794232,29.45298 -0.975199,3.758001 -1.188006,5.494567 -1.183907,9.697084 0.0032,4.08376 0.177477,5.526072 1.122931,9.292973 2.220688,8.84759 8.153244,17.34658 16.480648,23.61096 9.049,6.80723 20.64266,11.13144 31.88952,11.89333 5.68247,0.38493 11.0476,-0.0127 16.58711,-1.22886 15.77614,-3.46338 28.61675,-12.86207 34.69762,-25.39742 2.63602,-5.43396 3.73286,-10.19444 3.74086,-16.23105 0.0132,-10.330153 -4.01355,-20.267027 -11.55641,-28.517122 -7.5116,-8.215973 -18.44,-14.380315 -29.61679,-16.705958 -3.83209,-0.797372 -7.58495,-1.214974 -11.28924,-1.249018 z m 7.86516,4.406966 c 1.12944,-0.0042 3.45541,0.553847 6.77891,1.640726 6.67941,2.184342 12.13105,4.790527 12.13105,5.799129 0,0.538099 -2.14239,2.018972 -5.06326,3.499528 -0.62023,0.314391 -1.41216,0.564306 -1.78645,0.564306 -0.59958,0 -0.83841,-0.174178 -2.20866,-1.613337 -1.89418,-1.989502 -4.42172,-4.213196 -7.25588,-6.383591 -2.63813,-2.020311 -3.37551,-2.708079 -3.37551,-3.149161 0,-0.237538 0.26642,-0.35569 0.7798,-0.3576 z m -11.34039,0.07855 c 0.21877,-0.02207 0.37172,0.02193 0.44648,0.14056 0.23997,0.38092 0.22085,12.525605 -0.0212,13.400732 -0.10707,0.387149 -0.35433,0.789739 -0.54932,0.89452 -1.00142,0.53817 -6.86117,-0.183753 -11.72435,-1.444355 -2.92705,-0.758722 -2.95899,-0.800698 -1.77457,-2.305286 3.24224,-4.118721 11.50806,-10.472777 13.62294,-10.686171 z m -10.40557,1.125513 c 0.25329,0.01715 0.339,0.142807 0.339,0.357085 0,0.130479 -1.2025,1.432115 -2.67219,2.892329 -3.0776,3.057697 -3.55059,3.56366 -4.65295,4.979025 -0.44362,0.569603 -0.89702,1.097999 -1.00717,1.174088 -0.47719,0.329626 -1.61948,0.08971 -3.38016,-0.710033 -1.9528,-0.887031 -2.72696,-1.446678 -2.72696,-1.971458 -0.18957,-1.828189 10.99304,-7.386566 14.10043,-6.721036 z m 15.6347,0.594797 c 0.39012,-0.02357 1.00954,0.219093 2.03192,0.742071 3.12204,1.59698 7.26125,4.90769 9.79268,7.832082 1.6607,1.918536 2.26038,3.053988 1.96112,3.713467 -0.34517,0.760767 -0.23515,1.368494 0.35451,1.960605 0.47494,0.476935 0.65242,0.541681 1.19889,0.438732 0.35459,-0.06679 0.81299,-0.02853 1.02474,0.08527 0.8673,0.46608 3.18772,4.523073 4.90978,8.584488 1.05195,2.481035 2.62117,7.277074 2.75642,8.423775 0.0956,0.810149 0.0429,1.001438 -0.48162,1.734778 -0.71574,1.000739 -0.74295,1.586751 -0.10749,2.345076 0.88986,1.061932 2.83885,1.167979 3.5202,0.191204 0.47519,-0.681244 2.03396,-0.809728 9.96787,-0.82114 4.12548,-0.0059 7.81664,0.05629 8.2026,0.138494 0.5427,0.115599 0.73393,0.264779 0.84387,0.658876 0.0781,0.280262 0.13619,2.162159 0.12919,4.181655 -0.0109,3.048992 -0.0842,4.006987 -0.43201,5.648759 -1.13373,5.35133 -3.67797,10.97795 -6.99596,15.4714 -1.22192,1.65487 -3.9712,4.83004 -4.90513,5.66529 -1.05302,0.94181 -1.54074,0.74958 -4.92372,-1.93787 -1.14444,-0.90911 -2.71463,-2.08045 -3.4892,-2.60294 -6.88386,-4.64358 -19.46997,-9.28895 -26.40304,-9.74514 -2.75749,-0.18144 -4.31291,0.41893 -4.31291,1.66502 0,0.76939 0.78215,1.04429 4.20543,1.47846 3.21294,0.40749 4.30369,0.60639 6.29573,1.14773 2.74191,0.74509 7.95708,2.44851 9.1271,2.98121 1.04901,0.47762 1.18597,0.60211 1.18597,1.07021 -0.001,1.10761 -3.04693,4.90852 -6.28127,7.83829 -2.2494,2.0376 -5.08028,4.18539 -7.01508,5.32267 -2.6867,1.57924 -2.78866,1.3987 -2.4846,-4.40025 0.37595,-7.17037 0.23407,-9.45581 -0.64285,-10.33632 -0.52162,-0.52378 -1.37906,-0.57129 -1.91926,-0.10697 -0.61539,0.52891 -0.76675,1.54991 -0.98393,6.63732 -0.11275,2.6409 -0.26172,5.3523 -0.33073,6.02547 -0.11246,1.09821 -0.17066,1.23055 -0.56637,1.28675 -0.73026,0.10379 -1.21457,-0.10104 -2.95641,-1.25006 -3.19365,-2.10676 -7.21658,-5.74039 -10.15132,-9.16894 -3.25115,-3.79832 -3.30646,-4.17654 -0.76325,-5.20641 2.92912,-1.18616 3.42866,-1.49797 3.49436,-2.18126 0.0438,-0.45651 -0.0654,-0.7336 -0.43771,-1.10743 -0.45126,-0.45317 -0.59409,-0.48992 -1.56527,-0.40152 -0.62571,0.057 -1.90829,0.43437 -3.09491,0.91054 -1.8909,0.7588 -2.0601,0.79501 -2.52542,0.5395 -0.60206,-0.3306 -1.83061,-2.74733 -2.97553,-5.85339 -3.92657,-10.652568 -3.68203,-19.545505 0.82992,-30.197116 2.06603,-4.877388 2.65599,-5.743319 3.91501,-5.743319 0.34301,0 1.76035,0.255495 3.14968,0.567407 2.75301,0.618083 6.17075,1.165328 9.39684,1.504818 2.64705,0.278564 3.40882,0.481714 3.73259,0.995288 0.20436,0.32411 0.29155,1.839476 0.39481,6.844025 0.14915,7.227565 0.0832,8.267655 -0.5333,8.422227 -0.22361,0.05607 -3.40228,0.15522 -7.06366,0.220141 -7.08834,0.125683 -8.50028,0.254992 -9.07231,0.829406 -0.31912,0.32041 -0.33292,0.427757 -0.11886,0.946713 0.13284,0.322038 0.41976,0.681911 0.63769,0.799433 0.47005,0.253524 5.4988,0.496187 10.63708,0.513149 4.26838,0.01408 5.34534,0.122171 5.51697,0.553969 0.0668,0.167986 0.22394,2.762702 0.34882,5.766056 0.27522,6.618983 0.35264,6.872963 2.10685,6.872963 0.94665,0 1.50654,-0.64142 1.66191,-1.90479 0.0685,-0.55761 0.0967,-3.240748 0.0631,-5.962426 -0.0486,-3.93395 -0.0102,-4.980083 0.18552,-5.102532 0.13546,-0.08471 3.63721,-0.208725 7.78195,-0.275434 7.64266,-0.122997 8.93589,-0.225248 9.4573,-0.748792 0.24996,-0.250981 0.25633,-0.376333 0.0434,-0.892453 -0.45573,-1.104789 -0.77836,-1.152644 -9.08058,-1.341004 -5.15903,-0.117046 -7.63706,-0.241024 -7.9592,-0.397906 -0.27809,-0.13543 -0.52976,-0.471107 -0.62116,-0.827858 -0.0847,-0.330041 -0.1319,-3.761589 -0.1049,-7.625889 l 0.0491,-7.025929 0.90796,-0.224792 c 1.22018,-0.30239 1.81126,-0.716677 1.81126,-1.269172 0,-0.608716 -0.968,-1.395122 -1.90221,-1.545127 -1.38069,-0.221695 -1.33869,0.0026 -1.23352,-6.551539 0.0516,-3.217489 0.15483,-6.037728 0.22893,-6.267317 0.10774,-0.33387 0.27225,-0.513421 0.57567,-0.531749 z m -47.743852,0.18655 c -1.094472,0.0045 -2.054103,0.80913 -1.584917,1.929598 0.136908,0.326948 0.488018,0.724352 0.779798,0.88315 1.014238,0.551974 2.739067,0.274987 2.977079,-0.478007 0.146949,-0.464878 -0.06145,-1.102807 -0.527098,-1.613855 -0.461309,-0.506267 -1.071565,-0.723225 -1.644862,-0.720886 z m 97.915982,6.3438 c -0.24945,0.0019 -0.50203,0.04869 -0.68678,0.138491 -0.50903,0.247423 -0.76354,0.917951 -0.52296,1.378212 0.10302,0.197025 0.52517,0.619093 0.73484,0.734838 0.38388,0.211931 1.32003,-7.94e-4 1.70532,-0.387572 0.21806,-0.219088 0.25063,-0.29155 0.25063,-0.56224 0,-0.170897 -0.0419,-0.39153 -0.0935,-0.49041 -0.13657,-0.26175 -0.49958,-0.590349 -0.7829,-0.708999 -0.16705,-0.06995 -0.38451,-0.103844 -0.60462,-0.10232 z m 11.31146,1.068152 c -0.50485,0.0053 -0.97315,0.263401 -1.16944,0.738974 -0.22714,0.550338 0.007,1.032113 0.73691,1.517734 0.16748,0.111416 0.38497,0.202573 0.48317,0.202573 0.26469,0 1.09946,-0.443256 1.25936,-0.668692 0.3165,-0.446368 0.22556,-0.974989 -0.23823,-1.384929 -0.31549,-0.278845 -0.70337,-0.40953 -1.07177,-0.40566 z m -32.22749,0.502812 c 0.19589,-0.0042 0.35324,0.04244 0.51056,0.125574 0.88518,0.467741 3.72132,3.058961 5.42499,4.956286 4.24535,4.727868 7.42046,9.945753 9.232,15.171684 0.81266,2.344418 0.83784,2.880321 0.15554,3.329512 -0.46209,0.304223 -1.2153,0.338666 -8.48527,0.385505 -4.38806,0.02827 -8.07127,-0.014 -8.18503,-0.09405 -0.11376,-0.08005 -0.25336,-0.653989 -0.31006,-1.275374 -0.26261,-2.880288 -3.13482,-10.003549 -6.15518,-15.265217 -0.7315,-1.274297 -1.30137,-2.467324 -1.26607,-2.651001 0.0412,-0.215034 0.57605,-0.545732 1.50172,-0.929142 0.79066,-0.327499 2.48,-1.198552 3.75378,-1.9358 2.30301,-1.332982 3.23535,-1.80534 3.82302,-1.817976 z m -61.83395,0.500226 c 1.39495,0.328356 5.78975,2.578974 5.84305,3.836977 0,0.60537 -0.52329,2.023121 -2.29288,6.210472 -2.23451,5.287515 -2.50755,6.25207 -3.22461,11.398271 -0.19487,1.398363 -0.67212,1.994038 -1.79111,2.235007 -6.52443,0.06955 -8.3711,-0.739767 -14.368747,-0.730538 -1.62511,0.0024 1.897023,-13.56754 14.334127,-22.693355 0.41491,-0.200387 1.01387,-0.281083 1.50017,-0.256834 z m 40.43525,3.593063 c -2.72254,0.0094 -3.5927,3.24335 -0.73793,4.012676 0.51215,0.138023 1.15064,0.257067 1.41903,0.264065 0.70532,0.01836 1.70631,-0.724823 2.1208,-1.57458 0.32025,-0.656389 0.32964,-0.786789 0.0889,-1.217496 -0.38313,-0.685427 -1.37086,-1.298501 -2.32233,-1.441773 -0.19742,-0.02973 -0.38694,-0.04352 -0.56845,-0.04289 z m 54.54758,2.119768 c -0.73208,0.01423 -1.16621,0.454583 -0.88573,1.088305 0.22572,0.510032 0.57458,0.830202 1.0728,0.984435 0.64422,0.199435 1.39268,-0.479327 1.39268,-1.26297 0,-0.327832 -0.16449,-0.473085 -0.76378,-0.673346 -0.29492,-0.09855 -0.57194,-0.141171 -0.81597,-0.136424 z m 4.65708,6.954096 c -0.99621,0.0077 -1.96635,0.180578 -2.68356,0.516247 -2.19277,1.026258 -3.3029,2.609787 -3.1259,4.459161 0.24289,2.538722 2.45361,4.763669 5.39863,5.433261 2.91232,0.662162 6.37388,-0.797303 7.23005,-3.048394 0.94736,-2.490947 -0.89026,-5.672442 -3.97753,-6.886917 -0.82307,-0.323783 -1.84548,-0.481044 -2.84169,-0.473358 z m -136.364286,0.04134 c -4.725318,-0.0011 -6.906299,4.224972 -3.768246,7.30188 0.429022,0.420677 1.157764,0.869553 1.737879,1.070735 1.242295,0.430813 2.958536,0.453358 4.291729,0.05581 1.702221,-0.507601 2.983831,-2.131235 2.987929,-3.785299 0.0024,-0.936416 -0.764003,-2.46463 -1.656228,-3.30264 -1.072861,-1.007703 -1.963444,-1.340088 -3.593063,-1.340486 z m 30.873056,14.077693 c 1.05936,0.0045 1.99765,0.02058 2.68924,0.05064 l 2.81843,0.122473 0.17725,0.67696 c 0.0977,0.372181 0.27203,1.608428 0.38757,2.747637 0.50034,4.931968 1.70464,9.205852 4.04265,14.349002 1.30661,2.87425 1.57811,3.81352 1.24798,4.31291 -0.0757,0.11464 -0.90158,0.68163 -1.83554,1.25987 -1.75334,1.08552 -4.23677,2.90008 -6.14743,4.49224 -1.79254,1.49372 -2.6543,1.25802 -5.12579,-1.40199 -1.68989,-1.81886 -3.782285,-5.092 -5.381578,-8.4186 -1.729189,-3.5969 -2.618173,-5.73263 -3.340827,-9.226836 -0.578181,-3.516394 -0.978144,-5.025392 -0.421736,-8.002611 l 0.117825,-0.630452 1.341519,-0.101287 c 1.982833,-0.150114 6.252337,-0.243414 9.430437,-0.22996 z m -33.905945,4.868955 c -0.612931,0 -0.733132,0.02873 -0.942062,0.225824 -0.355503,0.33537 -0.563256,0.957715 -0.492477,1.476396 0.07887,0.577618 0.311401,0.949831 0.763778,1.223182 h 0.0011 c 0.270952,0.163709 0.514083,0.22706 0.876432,0.227894 0.443373,7.94e-4 0.537999,-0.03562 0.812353,-0.311095 0.638331,-0.642008 0.636887,-1.798261 -0.0041,-2.500622 -0.305139,-0.33438 -0.326734,-0.341579 -1.014926,-0.341579 z M 176.35926,95.34405 c -0.4861,0 -1.14817,0.616315 -1.33739,1.244886 -0.16599,0.551333 0.40459,1.200769 1.20613,1.373042 1.08717,0.233677 2.24586,-0.287859 2.24586,-1.011309 0,-0.656079 -1.251,-1.606619 -2.1146,-1.606619 z m 26.17101,1.370976 c -0.23798,0.0024 -0.45888,0.03429 -0.62683,0.0987 -0.85461,0.327736 -1.18764,1.142071 -0.79272,1.937866 0.19678,0.396497 0.63761,0.873395 0.92242,0.997871 0.25361,0.11086 0.33471,0.113175 1.02423,0.02635 1.21852,-0.153421 1.80041,-0.606761 1.80041,-1.402498 0,-0.536815 -0.46888,-1.116226 -1.16014,-1.433504 -0.32661,-0.149908 -0.77074,-0.228714 -1.16737,-0.224793 z m 11.78533,0.25528 c -0.23044,0.01037 -0.52548,0.188839 -0.69608,0.441317 -0.41541,0.614831 -0.6152,1.397014 -0.7736,3.032377 -0.55145,5.69383 -2.2471,11.36979 -5.12113,17.14262 -1.97832,3.97362 -4.10488,7.25235 -7.01766,10.81846 -2.0737,2.53885 -2.47892,3.11069 -2.47892,3.49643 0,0.35144 0.47822,0.97111 0.86144,1.11569 0.20797,0.0785 0.39047,0.041 0.80202,-0.16381 0.84891,-0.42236 2.81164,-2.58095 4.98316,-5.48029 5.29009,-7.06309 8.94543,-15.20449 10.19266,-22.70145 0.43219,-2.59802 0.56848,-4.757817 0.37104,-5.889051 -0.17408,-0.997458 -0.51081,-1.615141 -0.97617,-1.791621 -0.044,-0.01667 -0.0936,-0.02307 -0.14676,-0.02066 z m -47.92938,0.855247 c -1.41125,0.0067 -2.76406,0.738953 -3.27887,2.103229 -0.48207,1.277538 0.70828,3.071308 2.38125,3.587898 1.10107,0.34 1.44176,0.35311 2.39004,0.093 2.26599,-0.62153 3.0076,-2.75992 1.53944,-4.439 -0.80159,-0.916731 -1.93422,-1.350354 -3.03186,-1.345137 z M 71.679863,101.9607 c -0.71078,0.0123 -1.125514,0.53908 -1.125514,1.44952 0,0.96432 0.560898,2.27583 1.059368,2.47737 0.333721,0.13491 0.85117,0.10695 1.086236,-0.0584 0.326837,-0.22985 0.480076,-0.70155 0.480076,-1.48002 0,-0.84767 -0.210227,-1.54748 -0.600998,-2.00142 -0.234236,-0.27209 -0.371655,-0.34489 -0.7121,-0.37879 -0.06441,-0.006 -0.126833,-0.009 -0.187068,-0.008 z m 130.341397,2.94504 c -1.00993,0.003 -1.58777,0.67326 -1.34876,1.56373 0.11205,0.4174 0.47877,0.97064 0.73794,1.11311 0.45665,0.25105 1.59191,0.0304 2.06913,-0.40204 0.45379,-0.41115 0.56238,-0.86213 0.32142,-1.33635 -0.28983,-0.57053 -0.99222,-0.94045 -1.77973,-0.93845 z m -68.79373,2.33319 c -1.04906,0.007 -2.08463,0.76389 -2.08463,1.71463 0,0.77033 0.31411,1.21885 1.10639,1.58026 0.32671,0.14902 0.95122,0.22637 1.48932,0.18397 2.15829,-0.17009 2.34943,-2.46701 0.27698,-3.329 -0.25225,-0.10491 -0.52066,-0.15165 -0.78806,-0.14986 z m -26.91257,0.3452 c -0.73013,-7.9e-4 -1.63241,0.42665 -1.79421,0.85008 -0.16142,0.42236 0.32132,1.48729 0.84646,1.86758 0.76885,0.55681 2.78677,0.0596 3.10162,-0.76429 0.29672,-0.77636 -0.99982,-1.95237 -2.15387,-1.95337 z m 65.6518,1.69395 c -1.3022,0 -1.84974,1.28775 -0.87488,2.05776 0.55494,0.43831 1.91136,0.536 2.28151,0.16433 0.6465,-0.64916 -0.3492,-2.22209 -1.40663,-2.22209 z m -98.54592,0.63821 c -0.0858,10e-4 -0.180745,0.007 -0.287838,0.0186 -0.823023,0.086 -0.649531,1.30826 0.56534,3.98373 0.838169,1.84594 1.413899,2.82765 2.06189,3.51607 0.496396,0.52734 0.606182,0.59944 0.912607,0.59944 0.251745,0 0.432255,-0.0755 0.651639,-0.27233 0.264271,-0.2371 0.301541,-0.32653 0.285771,-0.69091 -0.057,-1.3159 -2.153009,-5.5672 -3.342949,-6.78047 -0.274286,-0.2797 -0.474641,-0.37885 -0.84646,-0.37414 z m 45.05565,5.57795 c 0.7673,-0.003 1.04236,0.25402 3.13469,2.92954 1.90136,2.43131 6.89638,7.24774 10.82518,10.4376 3.2845,2.66675 4.13296,3.55701 3.74809,3.93258 -1.283,1.25195 -10.7252,-1.70864 -19.28564,-6.04718 -3.37001,-1.70795 -6.10917,-3.46842 -6.48023,-4.1646 -0.56758,-1.06494 0.002,-1.81194 3.25252,-4.26227 3.03782,-2.29022 3.9432,-2.82267 4.80539,-2.82567 z m 44.85514,2.29805 c 0.50987,0.0334 1.15799,0.27989 1.88464,0.72709 2.84956,1.75366 7.06933,5.4294 7.06933,6.15776 0,0.22262 -0.33098,0.67282 -0.77411,1.05368 -2.62481,2.25606 -12.91057,6.03605 -19.50061,7.16649 -0.88882,0.15246 -2.38431,0.3355 -3.32383,0.4067 -1.50495,0.11408 -1.72305,0.0917 -1.83038,-0.18914 -0.16301,-0.42655 0.40734,-1.01035 2.15956,-2.21123 3.87599,-2.65641 8.13158,-6.57398 11.32075,-10.42159 1.03009,-1.24276 2.03742,-2.3756 2.23862,-2.51716 0.1935,-0.13614 0.45011,-0.19265 0.75603,-0.1726 z m -79.813214,8.25841 c -1.8401,0.0269 -3.673022,0.63509 -4.889108,1.70998 -1.202923,1.06322 -1.682583,2.04657 -1.682583,3.45405 -7.94e-4,1.43585 0.505777,2.58999 1.700154,3.87211 0.913715,0.98088 1.80803,1.54532 3.158979,1.9942 0.467064,0.15514 1.4223,0.23004 2.531629,0.19843 1.546355,-0.0441 1.948066,-0.12936 3.042708,-0.64492 2.084777,-0.98192 3.520715,-2.84822 3.520715,-4.57595 0,-2.335 -2.168387,-4.83255 -4.925798,-5.67355 -0.782254,-0.23858 -1.620287,-0.34657 -2.456696,-0.33435 z m 15.301391,6.22443 c -1.292685,-2.2e-4 -1.823291,0.21936 -2.218986,0.82579 -0.280458,0.42979 -0.285747,0.52409 -0.04599,0.76481 0.150434,0.15108 0.648435,0.3523 1.106908,0.447 0.45852,0.0947 1.696019,0.15646 2.749701,0.13746 2.07043,-0.0372 2.64678,-0.27944 2.41432,-1.01492 -0.20084,-0.63543 -1.37233,-1.05134 -3.205483,-1.13844 -0.295643,-0.014 -0.561083,-0.0217 -0.800468,-0.0217 z m 87.871123,1.31775 c -0.12334,0.004 -0.26853,0.0339 -0.46199,0.0832 -0.37757,0.0962 -0.77018,0.31021 -0.87282,0.47542 -0.28729,0.46246 0.004,1.2599 0.57413,1.57045 1.64325,0.89529 2.8548,-0.42209 1.54616,-1.68104 -0.34774,-0.33453 -0.51415,-0.45601 -0.78548,-0.44803 z m -68.80717,9.61957 c -0.80804,-0.004 -1.35719,0.006 -1.38855,0.0377 -0.0767,0.0771 -0.0655,2.46858 0.0295,6.28695 0.58257,23.42485 0.83122,33.27441 0.90072,35.63039 l 0.0801,2.70526 0.32504,0.12454 c 0.17886,0.0683 2.01754,0.12402 4.08606,0.12402 3.24227,0 3.78963,-0.0289 3.96926,-0.20929 0.11459,-0.11508 0.21205,-0.21996 0.21705,-0.23306 0.005,-0.0131 0.0538,-0.87987 0.10955,-1.9265 0.14658,-2.75392 0.15812,-2.75893 2.73265,-1.20819 3.67411,2.21306 7.30047,3.45855 11.13834,3.82612 v -5.3e-4 c 2.39129,0.22902 4.55099,0.10758 7.02799,-0.39532 6.01129,-1.22045 11.28638,-5.1058 13.22607,-9.74153 1.71953,-4.10946 1.44441,-8.20913 -0.84595,-12.61886 -0.8704,-1.67585 -1.75356,-2.85177 -3.29643,-4.38888 -3.12404,-3.11238 -7.25505,-5.17888 -12.1388,-6.07147 -1.87813,-0.34292 -5.736,-0.34476 -7.55303,-0.004 -2.85067,0.5352 -5.07179,1.47395 -7.799,3.29695 -2.11157,1.41149 -2.51326,1.39035 -2.86391,-0.15089 -0.16624,-0.73075 -0.38795,-5.33954 -0.51677,-10.74302 -0.0527,-2.21045 -0.12576,-4.04884 -0.16226,-4.08554 -0.0989,-0.0993 -4.85348,-0.24279 -7.27759,-0.25528 z m 74.07041,0.97048 0.0899,2.2965 c 0.17898,4.5823 1.62944,28.22721 2.01125,32.78766 0.3967,4.73804 0.82209,7.3411 1.37976,8.43876 0.29527,0.58111 0.94631,1.18409 1.37769,1.27589 0.15849,0.0338 0.40758,0.0863 0.55345,0.11731 v -5.3e-4 c 0.14587,0.031 1.51233,0.0638 3.03703,0.0718 l 2.77244,0.0155 -0.0884,-2.16369 c -0.23387,-5.73161 -2.66128,-42.40417 -2.8174,-42.56381 -0.12284,-0.12561 -2.92719,-0.26172 -5.54333,-0.26872 z m -19.50837,2.81998 c -0.46733,-0.002 -0.83394,0.007 -1.02991,0.032 -0.92956,0.11662 -1.39008,0.45571 -1.51309,1.11414 -0.0507,0.2711 -0.0157,1.84116 0.0775,3.4892 0.26652,4.71041 0.35968,4.57747 -3.25768,4.63537 l -2.57194,0.0413 v 1.55649 c 5.3e-4,1.56513 0.21885,5.09702 0.34003,5.50147 0.0551,0.18401 0.40179,0.23203 2.281,0.31523 1.21894,0.054 2.34812,0.1484 2.50889,0.2098 0.74731,0.2853 0.86548,0.86832 1.23455,6.07715 0.15156,2.13943 0.39079,4.67603 0.53124,5.63687 0.77468,5.30032 2.38599,8.08933 6.14897,10.64224 1.53806,1.04346 6.26837,2.56409 8.83357,2.83962 h 5.3e-4 c 0.9596,0.10307 1.14251,0.0867 1.44952,-0.12919 l 0.31523,-0.22117 -0.0858,-2.67478 c -0.10281,-3.21497 -0.23626,-4.15122 -0.64906,-4.55631 -0.18304,-0.17961 -0.8695,-0.45994 -1.75338,-0.71623 -0.79896,-0.23165 -1.80314,-0.59916 -2.23191,-0.81649 -2.63041,-1.33332 -3.41369,-3.64635 -3.77961,-11.16469 -0.13168,-2.70513 -0.0356,-3.64728 0.41755,-4.10259 l 0.35605,-0.35761 3.52536,-0.0398 3.52485,-0.0398 -0.0899,-1.49138 c -0.11285,-1.86495 -0.44756,-5.20992 -0.54726,-5.47098 -0.0866,-0.2265 -0.54114,-0.27818 -4.29689,-0.48886 -1.65369,-0.0927 -2.64532,-0.20283 -2.75074,-0.30541 -0.31331,-0.30491 -0.55546,-2.52918 -0.77256,-7.09517 -0.0493,-1.03541 -0.13077,-1.94887 -0.18087,-2.03037 -0.095,-0.1544 -4.00916,-0.38102 -6.03426,-0.39016 z m -120.770403,6.91586 c -2.176071,-0.019 -4.492839,0.18884 -6.068361,0.61081 -4.776804,1.27935 -8.680233,3.9936 -10.07794,7.00836 -1.263909,2.72624 -0.744095,6.4383 1.180291,8.42946 1.994294,2.06351 4.734369,2.90276 12.269536,3.75791 5.595635,0.63504 7.250175,1.12278 8.091495,2.38538 0.801867,1.20337 0.778039,2.44078 -0.06718,3.44941 -1.072031,1.2793 -2.734332,1.77175 -5.959843,1.76475 -3.434855,-0.007 -5.632395,-0.67945 -7.958169,-2.435 -1.544696,-1.16595 -1.610313,-1.1884 -2.581238,-0.87178 -0.547966,0.17869 -2.165173,0.8671 -3.593579,1.52963 l -2.596742,1.20457 1.005623,1.04645 c 2.418958,2.51687 6.22822,4.68287 10.004557,5.68803 2.138047,0.56909 2.845892,0.62945 6.382557,0.54725 3.491277,-0.0811 4.237897,-0.1809 6.099886,-0.81856 2.673189,-0.91544 4.138248,-1.77069 5.905066,-3.44682 3.65673,-3.46909 4.270566,-8.93406 1.334802,-11.88196 -2.488282,-2.49857 -5.922759,-3.60103 -13.693738,-4.39663 -5.243576,-0.53683 -6.000041,-0.78107 -7.017141,-2.26291 -1.828054,-2.6633 1.54378,-5.03327 6.755659,-4.74855 2.443392,0.13348 4.058354,0.71551 5.731949,2.06603 0.991629,0.8002 1.046721,0.81211 2.067057,0.45062 0.576631,-0.20429 2.152965,-0.92805 3.502628,-1.60869 2.835199,-1.42981 2.835553,-1.43263 0.521933,-3.47886 -1.640406,-1.45084 -4.414512,-2.88256 -6.832142,-3.52691 -1.106971,-0.29504 -2.714466,-0.44721 -4.406966,-0.46199 z m 53.850463,1.46038 c -0.36138,0.002 -0.72756,0.007 -1.07849,0.0155 -2.88734,0.0669 -3.36626,0.18454 -3.7698,0.92708 -0.22593,0.41541 -0.24081,0.9866 -0.24081,9.09815 v 8.65425 l -0.38344,0.91106 c -1.181181,2.80483 -3.346515,4.92138 -5.848735,5.71747 -0.776102,0.24692 -1.221404,0.29381 -2.718181,0.28681 -1.55797,-0.007 -1.945164,-0.0555 -2.983796,-0.3731 -1.510927,-0.46197 -3.155767,-1.25756 -3.862298,-1.86811 -0.709017,-0.61267 -1.28312,-1.52966 -1.630907,-2.60449 -0.564475,-1.74467 -0.677863,-3.37456 -0.809255,-11.65613 -0.06858,-4.32063 -0.174159,-8.03353 -0.234608,-8.25118 -0.08501,-0.30592 -0.209278,-0.41626 -0.547772,-0.48576 -0.240835,-0.0495 -2.182249,-0.13367 -4.313947,-0.18707 l -3.875733,-0.0971 -0.0863,0.63459 c -0.215569,1.57927 -0.0149,12.81222 0.318325,17.81028 0.20615,3.09221 0.727287,4.77829 2.167311,7.01353 0.743326,1.15384 2.598438,3.11187 3.783232,3.99355 1.917044,1.42659 4.400404,2.44537 7.014556,2.87682 1.875145,0.3095 5.425853,0.21065 7.03058,-0.19533 3.03417,-0.76763 5.039117,-2.0545 6.135542,-3.93878 0.255646,-0.43929 0.566416,-0.81874 0.690916,-0.84284 0.37716,-0.0729 0.75063,1.0142 0.95653,2.78432 0.10177,0.87481 0.24741,1.70784 0.32401,1.85157 0.27771,0.52105 0.63633,0.58353 3.84628,0.66973 1.71384,0.046 3.17548,0.0941 3.24838,0.10645 0.35422,0.0604 1.11916,-0.27327 1.19786,-0.52245 0.0472,-0.14949 0.021,-2.91848 -0.0584,-6.15363 -0.0793,-3.23516 -0.20442,-9.3875 -0.27801,-13.67151 -0.0736,-4.284 -0.17136,-8.81785 -0.21756,-10.07536 l -0.0842,-2.28616 -1.10845,-0.093 c -0.45743,-0.0382 -1.49865,-0.0562 -2.58279,-0.0491 z m 118.98291,1.73477 c -2.44919,0.008 -4.18031,0.34409 -6.48229,1.21233 -4.61136,1.73925 -8.44138,5.78016 -9.45885,9.98027 -1.2184,5.02956 0.57376,10.4294 4.89892,14.76137 3.50452,3.50998 7.59842,5.42545 12.75375,5.96656 4.25668,0.44679 8.69494,-0.27865 12.11864,-1.98075 1.54552,-0.76837 3.29538,-2.06702 3.35638,-2.49081 0.0323,-0.2249 -0.21161,-0.48608 -1.11673,-1.19424 -0.63704,-0.49843 -1.81338,-1.43041 -2.61379,-2.07119 -0.80038,-0.64077 -1.54955,-1.16479 -1.66502,-1.16479 -0.11545,0 -0.89728,0.32811 -1.73736,0.72967 -2.3091,1.10381 -3.21725,1.31215 -5.7707,1.32395 -2.35291,0.0108 -3.45772,-0.17513 -5.22811,-0.87953 -1.68936,-0.67216 -2.7742,-1.39349 -4.08657,-2.71715 -1.30199,-1.31317 -1.50812,-1.75808 -0.9524,-2.05672 0.63314,-0.34023 4.59707,-0.42219 14.19449,-0.29249 5.27884,0.0714 9.95572,0.0807 10.39316,0.0207 0.94131,-0.12915 1.25987,-0.43042 1.25987,-1.19218 0,-0.94098 -0.65277,-4.38755 -1.06557,-5.62498 -1.41994,-4.25648 -4.75011,-7.96885 -9.10228,-10.1477 -2.82619,-1.41489 -5.42349,-2.06937 -8.59793,-2.16627 -0.38295,-0.0117 -0.74772,-0.0172 -1.09761,-0.016 z m -85.92395,4.39353 c 0.27722,0.002 0.56999,0.009 0.8816,0.0196 2.26093,0.0758 3.5995,0.34678 5.65702,1.14515 2.51745,0.97684 5.18533,3.19548 6.18464,5.14387 0.83203,1.62232 0.97493,2.21327 0.96893,3.99459 -0.005,1.43652 -0.0465,1.71505 -0.41393,2.76003 -1.25868,3.57976 -3.74861,5.80908 -7.32203,6.55516 -1.20313,0.2512 -3.31299,0.34174 -4.59507,0.19741 -4.94134,-0.55629 -9.13375,-3.26141 -12.18892,-7.86516 -2.50537,-3.77533 -2.5516,-4.96127 -0.28009,-7.2223 2.02703,-2.01771 3.86502,-3.18057 6.32261,-4.00027 1.65922,-0.55345 2.84471,-0.74484 4.78524,-0.72812 z m 87.0257,2.33009 c 0.8764,0.003 1.76369,0.0835 2.3859,0.2403 2.2326,0.56263 4.46875,2.03769 5.84874,3.85816 1.2915,1.70371 1.12168,2.04703 -1.094,2.21847 -1.59015,0.123 -2.48689,0.1222 -9.26299,-0.0114 -5.79432,-0.11422 -6.29833,-0.19395 -6.29833,-0.99167 0,-0.55042 0.52638,-1.28853 1.91048,-2.67942 1.18321,-1.18896 2.55765,-1.98003 4.18889,-2.41019 0.57939,-0.15279 1.4449,-0.2272 2.32131,-0.22427 z m -159.854329,32.012 c -0.135673,-0.003 -0.279495,0.0814 -0.451133,0.25373 -0.60725,0.60974 -1.258358,2.04855 -2.292884,5.06636 -0.781328,2.27914 -1.138534,2.92902 -1.608172,2.92902 -0.449805,0 -0.996275,-0.98457 -2.106848,-3.7946 -1.170771,-2.96232 -1.802421,-3.99407 -2.444811,-3.99407 -0.282943,0 -0.720691,0.46314 -1.057817,1.11931 -0.371145,0.72239 -0.683565,1.51018 -1.337903,3.37447 -0.847294,2.41394 -1.334757,3.42822 -1.646409,3.42822 -0.617414,0 -1.94046,-2.63403 -2.625165,-5.22604 -0.263734,-0.99838 -0.569756,-1.64765 -0.999939,-2.12028 -0.407488,-0.44771 -0.780712,-0.61409 -1.236615,-0.55139 -0.170805,0.0235 -0.379624,0.0887 -0.464055,0.14417 -0.398651,0.2623 -0.173662,0.91714 2.329055,6.78254 1.642938,3.85042 1.961153,4.45712 2.451531,4.67155 v -5.3e-4 c 0.25332,0.1108 0.165944,0.11273 0.711584,-0.0119 0.854181,-0.19509 0.982869,-0.40664 2.343526,-3.85506 0.896707,-2.2726 1.201888,-2.92715 1.508437,-3.23495 0.548545,-0.55085 0.926047,-0.0247 2.203482,3.06906 1.433882,3.47256 1.815816,3.96846 2.910416,3.7791 0.317709,-0.055 0.408729,-0.10525 0.611849,-0.34055 0.891686,-1.033 3.35085,-7.5906 3.76618,-10.04228 0.12251,-0.72313 0.07756,-0.95253 -0.253217,-1.28467 -0.104801,-0.10522 -0.205565,-0.15926 -0.311092,-0.16123 z m 13.762985,0.26303 c -3.741777,-5.2e-4 -6.127859,0.12653 -6.595462,0.35141 l -0.166915,0.0806 -0.02119,1.36374 c -0.0117,0.75015 0.02551,2.9516 0.08268,4.89221 0.135374,4.59491 0.144275,4.78614 0.229444,4.94595 0.10741,0.20155 0.57766,0.35249 1.27589,0.40979 0.905541,0.0744 6.662737,0.0774 7.979875,0.004 1.644722,-0.0915 1.858468,-0.18047 2.046904,-0.85473 0.22797,-0.81578 0.445363,-0.7767 -4.301029,-0.7767 H 76.07132 l -0.331245,-0.16639 c -0.305597,-0.15342 -0.34298,-0.1996 -0.480592,-0.5886 -0.308327,-0.87154 -0.27976,-1.46326 0.09147,-1.87585 0.473451,-0.52622 1.067758,-0.64477 3.809069,-0.76068 2.3666,-0.10006 2.473888,-0.123 2.552298,-0.5426 0.06945,-0.37174 -0.01587,-0.89982 -0.171048,-1.05575 -0.19026,-0.19123 -0.878263,-0.20657 -3.38119,-0.076 -2.337972,0.12198 -2.711312,0.0945 -2.994131,-0.21963 -0.201962,-0.22432 -0.279569,-0.69285 -0.279569,-1.70481 -7.94e-4,-0.98554 0.29645,-1.34643 1.284674,-1.56011 0.461795,-0.0999 2.600936,-0.19864 4.409035,-0.20464 1.791419,-0.005 3.469645,-0.10031 3.707783,-0.20929 0.181335,-0.0829 0.185653,-0.0961 0.146243,-0.47335 -0.0222,-0.2135 -0.07025,-0.44295 -0.105936,-0.51005 -0.191545,-0.35942 -1.306404,-0.46828 -4.809009,-0.4687 z m 14.27458,0.032 c -2.186681,0.001 -2.250879,0.0184 -2.525427,0.14573 -0.243737,0.113 -0.341392,0.2055 -0.422711,0.39946 -0.11625,0.27726 -0.116465,0.27801 0.07234,3.64784 0.133672,2.3853 0.236513,5.10586 0.236677,6.26422 8.5e-5,0.83513 0.01365,0.9509 0.125058,1.05213 0.265229,0.241 0.81274,0.38333 2.029852,0.52865 0.1094,0.0131 0.900078,0.0286 1.756997,0.0336 3.124198,0.0193 5.960858,-0.38732 7.258988,-1.04025 0.71807,-0.36115 1.40827,-1.31605 1.56217,-2.16162 0.18973,-1.04225 -0.37733,-2.08421 -1.50275,-2.76211 -1.0495,-0.63217 -1.12422,-0.93065 -0.41031,-1.63866 0.55402,-0.54944 0.68246,-0.8523 0.68213,-1.60765 -2.1e-4,-0.52168 -0.0236,-0.64306 -0.17931,-0.94051 -0.36041,-0.68839 -1.3291,-1.35652 -2.3394,-1.61334 -1.019331,-0.2591 -1.822882,-0.30648 -5.270471,-0.30748 -0.405834,-1.6e-4 -0.761455,-2e-4 -1.073838,0 z m 61.411754,0.0367 c -0.0697,5.2e-4 -0.15018,0.0394 -0.31006,0.12453 -0.39247,0.20893 -0.59315,0.47899 -0.71985,0.96739 -0.58675,2.26206 0.59768,8.18873 1.89756,9.49399 0.60231,0.60481 1.96973,1.16335 3.23753,1.3224 0.63252,0.0794 1.81827,0.0335 2.50165,-0.0966 2.01802,-0.3844 3.48758,-1.46072 3.81786,-2.7957 0.15486,-0.62526 0.189,-1.06922 0.185,-2.50114 -0.003,-2.11715 -0.26349,-4.33318 -0.63355,-5.40173 -0.20184,-0.58282 -0.3326,-0.72307 -0.7152,-0.76637 -0.26215,-0.0297 -0.31082,-0.013 -0.43719,0.14831 -0.28678,0.36579 -0.30072,0.52717 -0.31522,3.62769 -0.011,2.36518 -0.0349,3.08603 -0.11938,3.57394 -0.25805,1.48994 -0.6997,2.00948 -2.07584,2.44223 -1.92036,0.60387 -3.33273,0.21012 -4.16667,-1.16169 -0.31854,-0.52395 -0.6664,-1.61908 -0.82372,-2.59312 -0.0738,-0.45657 -0.17996,-1.53251 -0.23616,-2.39107 -0.17757,-2.71235 -0.39174,-3.63687 -0.91054,-3.92896 -0.0738,-0.0415 -0.12198,-0.0645 -0.17622,-0.0641 z m -13.54336,0.0739 c -1.98567,-0.005 -3.54727,0.0407 -3.92379,0.13901 -0.567,0.14805 -0.73308,0.29377 -0.75757,0.66508 -0.011,0.16693 0.024,0.40882 0.0775,0.53743 0.18545,0.4457 0.18373,0.44546 2.56883,0.46716 1.80752,0.0164 2.20174,0.0372 2.49236,0.1328 0.18989,0.0625 0.36716,0.14893 0.39326,0.19172 0.0265,0.0428 0.0405,0.66374 0.0315,1.37977 -0.0248,1.98919 0.15517,5.78878 0.33124,6.99337 0.0914,0.62555 0.29,1.16733 0.47594,1.29811 0.20558,0.14461 0.79286,0.13313 0.92915,-0.0181 0.16072,-0.17829 0.29657,-0.78914 0.38447,-1.72754 0.0981,-1.0478 0.0383,-3.82214 -0.10852,-5.04466 -0.0572,-0.47599 -0.12078,-1.22459 -0.14108,-1.66398 -0.0355,-0.76023 -0.0296,-0.80822 0.11421,-0.99011 0.29975,-0.37905 0.43417,-0.40032 2.61483,-0.41032 2.24089,-0.0101 2.46575,-0.035 2.56005,-0.28422 0.12342,-0.32594 -0.10911,-0.92025 -0.49197,-1.2578 -0.22004,-0.19396 -0.25328,-0.2017 -1.08106,-0.2434 -2.07377,-0.10431 -4.48371,-0.15946 -6.46938,-0.16433 z m -14.03532,0.0594 c -0.80245,0.006 -1.66154,0.0727 -2.07429,0.18345 -1.01345,0.27183 -1.67577,0.68285 -2.30218,1.42834 -1.08307,1.28888 -0.77981,2.57848 0.86558,3.68143 0.84941,0.56939 1.68649,0.89139 3.7977,1.46037 3.14535,0.84766 3.64144,1.22651 3.08198,2.35076 -0.38359,0.77077 -1.00764,1.07642 -2.19625,1.07642 -0.80618,0 -1.60742,-0.15617 -2.89336,-0.5643 -1.62879,-0.51692 -2.18696,-0.53783 -2.55798,-0.0951 -0.40155,0.47921 -0.25823,0.76413 0.61391,1.21647 0.91351,0.47375 2.05695,0.81304 3.12694,0.9281 0.59045,0.0635 1.81791,0.0361 2.41122,-0.0537 2.54852,-0.38572 3.97236,-1.65211 3.6897,-3.28197 -0.16412,-0.94631 -0.68048,-1.51216 -1.9575,-2.14561 -0.43757,-0.21704 -1.22777,-0.5324 -1.75648,-0.70073 -3.48742,-1.11022 -3.99788,-1.31534 -4.49223,-1.80867 -0.24488,-0.2445 -0.28164,-0.31879 -0.28164,-0.56948 0,-0.20276 0.0564,-0.37765 0.18965,-0.58859 0.41164,-0.65177 1.05193,-0.98256 2.01435,-1.04076 0.97856,-0.0592 1.79185,0.12665 3.2985,0.75395 0.41898,0.17447 0.90322,0.33109 1.07642,0.34779 0.29539,0.0285 0.33148,0.0137 0.57671,-0.23255 0.41949,-0.42115 0.43689,-0.7567 0.062,-1.18545 -0.40595,-0.46423 -1.63399,-0.91164 -3.01841,-1.09968 -0.33204,-0.0451 -0.79287,-0.0638 -1.27435,-0.0605 z m 47.0979,0.23513 c -1.81357,7.9e-4 -2.55687,0.0689 -2.7373,0.25011 -0.10239,0.10284 -0.0532,1.67314 0.15762,5.03535 0.23669,3.77514 0.40577,5.64081 0.53433,5.90507 0.15114,0.31064 0.66122,0.58966 1.25005,0.68316 0.7866,0.12492 4.35104,-0.0101 5.33715,-0.20205 2.70666,-0.527 4.59852,-2.19318 5.08289,-4.47673 0.13873,-0.65422 0.0867,-1.77797 -0.11162,-2.40864 -0.61654,-1.96014 -2.28135,-3.52389 -4.57182,-4.29431 -0.99462,-0.33456 -2.5847,-0.49279 -4.9413,-0.49196 z m 16.34991,0.29972 c -0.074,-0.001 -0.15907,0.003 -0.25786,0.0109 -0.49934,0.0402 -0.73898,0.18622 -0.85577,0.5209 -0.15661,0.44874 -0.0955,2.31829 0.21343,6.51795 0.22204,3.01798 0.46157,4.18161 0.91984,4.47104 0.15521,0.0979 0.29055,0.12337 0.55345,0.10387 0.19142,-0.0142 0.36546,-0.0431 0.38706,-0.0646 0.44777,-0.44964 0.0924,-9.36718 -0.44494,-11.16831 -0.0858,-0.28748 -0.19471,-0.38722 -0.51521,-0.39171 z m 28.81168,0.0274 c -0.61437,0.004 -1.20521,0.0442 -1.60301,0.12144 -1.29,0.2505 -2.03806,0.5937 -2.58175,1.18339 -1.1638,1.26223 -0.96857,2.62225 0.54054,3.76411 0.95998,0.72634 2.07043,1.1906 4.19612,1.7539 2.40958,0.63853 2.80272,0.84031 3.20756,1.64434 0.0614,0.12183 0.10748,0.37489 0.10748,0.59118 0,0.35651 -0.016,0.39406 -0.28163,0.65887 -0.4279,0.42666 -0.89851,0.58017 -1.89549,0.61857 -1.27523,0.0491 -2.23965,-0.15485 -3.75585,-0.79478 -0.43698,-0.18444 -0.94735,-0.3673 -1.1343,-0.40669 -0.31438,-0.0662 -0.36171,-0.0591 -0.63096,0.10076 -0.39724,0.23579 -0.80672,0.67071 -0.77722,0.82528 0.0304,0.15821 0.54543,0.46662 1.42679,0.85421 1.04382,0.45903 2.17265,0.76173 3.33571,0.894 2.12734,0.24194 4.24611,-0.29691 5.18832,-1.31878 0.95819,-1.03926 0.72902,-2.27403 -0.6718,-3.61787 -0.70146,-0.67297 -1.34088,-0.98543 -3.31452,-1.61851 -3.00625,-0.96428 -3.67077,-1.24066 -4.08141,-1.69705 -0.28948,-0.32173 -0.34594,-0.53608 -0.24288,-0.92294 0.11429,-0.42919 0.34528,-0.69841 0.78497,-0.91519 0.374,-0.18472 0.40362,-0.18793 1.47536,-0.18293 1.16774,0.006 1.17146,0.007 2.88406,0.52606 0.3282,0.0995 0.79887,0.19683 1.04593,0.21653 l 0.44907,0.0356 0.25787,-0.27181 c 0.31282,-0.33028 0.38405,-0.59128 0.23823,-0.87437 -0.22806,-0.4429 -0.87123,-0.76197 -2.03864,-1.01131 -0.50939,-0.10877 -1.33866,-0.16174 -2.12855,-0.15606 z m -16.08946,0.0677 c -1.29096,0.002 -1.87157,0.10567 -2.82412,0.50385 -2.31847,0.96918 -3.77757,3.33431 -3.47679,5.63532 0.16089,1.23052 0.66173,2.26514 1.54151,3.18533 1.22653,1.28284 2.99665,2.12727 4.93252,2.35283 v -5.3e-4 c 0.67065,0.0786 0.9289,0.079 1.55287,0.002 1.58017,-0.1947 2.71797,-0.7189 3.67782,-1.69396 0.54534,-0.55399 0.89654,-1.12835 1.14153,-1.86552 0.16033,-0.48269 0.17687,-0.62903 0.18086,-1.56424 0.004,-1.20703 -0.11385,-1.76266 -0.58652,-2.76262 -0.83377,-1.76389 -2.46274,-3.10678 -4.41576,-3.64061 -0.4907,-0.13414 -0.71362,-0.15393 -1.72392,-0.15193 z M 95.762629,197.775 c 2.840633,-5.2e-4 4.389861,0.27743 4.804361,0.86197 0.19593,0.27612 0.19797,0.76172 0.005,1.27847 -0.38176,1.02333 -0.8296,1.29532 -2.389523,1.45263 h -5.29e-4 c -0.973955,0.0982 -3.880948,0.14406 -4.242633,0.0667 -0.634924,-0.13586 -0.829617,-0.44711 -0.934829,-1.49707 -0.192003,-1.91552 0.12237,-2.16223 2.757972,-2.16266 z m 79.782731,0.33228 c 2.35544,-7.9e-4 4.41125,0.78798 5.7335,2.19935 0.78677,0.83977 1.16892,1.73173 1.16892,2.73782 0.003,2.00229 -1.71839,3.40313 -4.55993,3.71037 -0.91189,0.0986 -2.108,0.0896 -2.40812,-0.0181 -1.0032,-0.35997 -1.21396,-1.13759 -1.39165,-5.13612 -0.10791,-2.42792 -0.0166,-3.05234 0.49093,-3.3631 0.1776,-0.1087 0.33557,-0.13001 0.96635,-0.13023 z m 28.17864,0.48938 c 0.5442,0.003 1.103,0.10216 1.66191,0.30076 1.86137,0.66141 3.06372,2.2549 3.1657,4.19561 0.0677,1.28886 -0.26361,2.1815 -1.02216,2.7528 -0.40542,0.30533 -1.43829,0.8011 -1.97559,0.94826 -0.55336,0.1516 -1.7505,0.18973 -2.26291,0.0724 -0.99047,-0.22691 -1.77306,-0.66465 -2.50941,-1.40405 -0.859,-0.86253 -1.2821,-1.75292 -1.3441,-2.82825 -0.0619,-1.07296 0.26098,-1.88206 1.07538,-2.69648 0.88916,-0.88917 2.01393,-1.34772 3.21118,-1.341 z m -106.986236,4.25866 c 0.453152,-0.002 0.908794,0.008 1.308963,0.0341 1.89626,0.12189 2.904063,0.37785 3.475753,0.88315 0.39516,0.3493 0.47879,0.63291 0.3328,1.12655 -0.0824,0.27864 -0.19386,0.4447 -0.51315,0.76274 -0.43885,0.43717 -0.60807,0.51365 -1.404045,0.63304 -0.582234,0.0873 -4.482971,0.14026 -5.369182,0.0729 -0.657447,-0.05 -1.057161,-0.16463 -1.201994,-0.34468 -0.144079,-0.17919 -0.159679,-0.49883 -0.06098,-1.25315 0.147903,-1.1304 0.403617,-1.53821 1.089856,-1.7384 0.359757,-0.10493 1.345041,-0.17144 2.341978,-0.17621 z"
       sodipodi:nodetypes="scsscssssscsssssscsssssscsssssscssscssscsssssssssssssscsscssssccsccsscsccssssssccssssccssssssscsssscscsssscscsssccscscssssssssssscsssssssssscssssssccscsccssscsssssssssscssssccsssssscsccssssssssssscssscssscsssscssssssssscscsssccsscsccssscssssssssssscsssscssscccsccccsssscccsccsssccccccsssssssssssssssssscsssssssssssssssssssscssssscsssccsssssscssscsssssscsssccsssssssscsssscssssssssscscssssssssscssssssssssssccccsscssccsssscsssscssccssscccccsccsssccccsscssscccccssssccccccssscssssssssscsscccscscsssssssssssccsccscsscscscccsssssscssscscscccssssssssssssssssscsssssssscssccssssssssssssssssssssssssssssscsccsscsssssssscccsscsssccssssssscsccccsscsssssscssssscsccsscsssccssccsssssssssscssccssssscsccscsssscsssssssssssccssssscssscsssssscscsssscscssssssssssssssscsssssssccsccccsssssscccsccsssssccccscsssscscsssssssssssssscsssssscssc" /></g></svg>
