<?xml version="1.0" encoding="UTF-8" standalone="no"?>
<svg
   version="1.0"
   width="636.78052pt"
   height="630.78101pt"
   viewBox="0 0 636.78052 630.78101"
   preserveAspectRatio="xMidYMid meet"
   id="svg18"
   sodipodi:docname="subtle_web_logo_d.svg"
   inkscape:version="1.1.1 (3bf5ae0d25, 2021-09-20)"
   xmlns:inkscape="http://www.inkscape.org/namespaces/inkscape"
   xmlns:sodipodi="http://sodipodi.sourceforge.net/DTD/sodipodi-0.dtd"
   xmlns="http://www.w3.org/2000/svg"
   xmlns:svg="http://www.w3.org/2000/svg">
  <defs
     id="defs22" />
  <sodipodi:namedview
     id="namedview20"
     pagecolor="#ffffff"
     bordercolor="#666666"
     borderopacity="1.0"
     inkscape:pageshadow="2"
     inkscape:pageopacity="0.0"
     inkscape:pagecheckerboard="0"
     inkscape:document-units="pt"
     showgrid="false"
     fit-margin-top="0"
     fit-margin-left="0"
     fit-margin-right="0"
     fit-margin-bottom="0"
     inkscape:zoom="0.30834961"
     inkscape:cx="269.17498"
     inkscape:cy="702.1251"
     inkscape:window-width="1271"
     inkscape:window-height="1041"
     inkscape:window-x="2598"
     inkscape:window-y="6"
     inkscape:window-maximized="0"
     inkscape:current-layer="svg18" />
  <g
     transform="matrix(0.1,0,0,-0.1,-195.7,826.375)"
     fill="#000000"
     stroke="none"
     id="g16">
    <path
       d="m 5060,8260 c 0,-4 -28,-6 -62,-5 -35,0 -73,-3 -85,-7 -15,-5 -23,-4 -23,3 0,8 -4,8 -13,0 -8,-6 -17,-8 -20,-5 -3,3 -11,3 -17,-1 -7,-4 -33,-9 -58,-11 -25,-2 -49,-9 -54,-16 -6,-10 -8,-10 -8,0 0,19 -20,14 -20,-5 -1,-17 -1,-17 -11,-1 -8,14 -14,15 -34,6 -14,-6 -25,-16 -25,-22 0,-5 -7,-1 -15,10 -9,12 -14,14 -15,6 0,-9 -7,-11 -20,-7 -21,7 -27,-4 -10,-21 8,-8 5,-15 -7,-25 -16,-12 -17,-12 -6,1 9,12 8,19 -2,33 -7,10 -16,14 -19,9 -3,-5 -16,-7 -29,-5 -14,3 -31,-2 -39,-11 -9,-8 -18,-13 -20,-10 -3,2 -29,-1 -59,-7 -70,-14 -101,-20 -116,-21 -7,-1 -13,-5 -13,-10 0,-5 -5,-6 -10,-3 -6,4 -16,2 -23,-4 -7,-5 -28,-13 -47,-16 -19,-3 -38,-11 -42,-18 -4,-7 -8,-8 -8,-3 0,6 -5,5 -11,-1 -6,-6 -18,-9 -25,-6 -18,7 -46,-16 -37,-31 4,-8 2,-8 -7,1 -9,8 -20,8 -46,-3 -18,-8 -37,-13 -41,-13 -9,2 -46,-14 -173,-73 -47,-22 -96,-44 -110,-50 -14,-5 -71,-37 -128,-71 -56,-34 -110,-67 -120,-72 -58,-35 -225,-154 -262,-188 -8,-7 -32,-26 -53,-42 -21,-16 -64,-52 -95,-82 -31,-29 -60,-53 -64,-53 -5,0 -8,-6 -8,-12 0,-7 -13,-22 -30,-33 -16,-11 -34,-29 -40,-40 -6,-11 -24,-29 -41,-40 -16,-11 -40,-36 -53,-55 -13,-19 -38,-51 -56,-70 -67,-73 -96,-107 -115,-135 -11,-15 -27,-35 -35,-44 -18,-20 -90,-129 -90,-136 0,-3 -8,-15 -18,-26 -11,-10 -25,-32 -33,-47 -8,-15 -22,-36 -31,-46 -10,-10 -15,-23 -12,-28 3,-4 2,-8 -3,-8 -11,0 -34,-51 -27,-61 3,-5 -2,-9 -10,-9 -9,0 -16,-8 -16,-19 0,-11 -4,-21 -8,-23 -8,-3 -93,-171 -93,-185 0,-5 -6,-15 -12,-23 -18,-23 -46,-83 -50,-105 -1,-11 -6,-26 -10,-32 -5,-7 -6,-17 -2,-22 3,-6 -1,-14 -10,-18 -8,-5 -16,-17 -18,-28 -8,-43 -20,-81 -30,-92 -5,-7 -7,-13 -4,-13 3,0 -1,-16 -9,-35 -8,-20 -12,-40 -9,-45 4,-6 2,-10 -3,-10 -6,0 -13,-17 -18,-37 -4,-21 -8,-40 -9,-43 -37,-147 -65,-293 -80,-420 -2,-19 -4,-35 -5,-35 -7,0 -13,-134 -13,-310 0,-188 5,-310 18,-369 2,-12 7,-43 10,-71 5,-41 22,-135 51,-279 2,-10 11,-44 20,-75 9,-31 24,-85 34,-121 43,-153 134,-379 199,-499 20,-36 45,-84 55,-106 10,-22 32,-56 47,-76 16,-20 29,-40 29,-44 0,-4 12,-24 28,-44 15,-20 32,-43 37,-53 6,-9 24,-36 40,-59 17,-24 34,-52 38,-61 3,-10 13,-18 22,-18 8,0 14,-4 12,-9 -3,-12 48,-82 101,-137 23,-25 42,-48 42,-52 0,-4 22,-30 49,-59 27,-28 48,-53 46,-55 -2,-2 12,-14 31,-28 18,-14 36,-32 39,-40 3,-8 47,-50 98,-92 51,-43 107,-91 125,-108 18,-16 36,-30 40,-30 4,0 21,-13 37,-28 28,-26 116,-90 140,-102 5,-3 57,-36 114,-73 57,-38 126,-80 155,-95 28,-15 53,-30 56,-33 3,-4 19,-10 37,-13 17,-4 37,-14 44,-22 6,-8 20,-14 30,-14 11,0 19,-4 19,-8 0,-4 17,-14 38,-21 20,-7 78,-30 127,-51 91,-39 388,-137 415,-138 8,-1 33,-6 55,-12 22,-6 50,-13 62,-15 12,-2 34,-6 50,-9 58,-13 122,-22 218,-31 272,-27 600,-25 785,4 36,6 87,13 114,16 27,3 95,15 150,26 120,25 117,25 136,31 8,3 83,27 165,53 158,51 392,145 437,176 14,11 31,19 36,19 12,0 216,119 282,164 25,17 52,36 61,41 55,33 153,107 216,162 40,35 74,63 77,63 3,0 31,25 63,55 32,30 61,55 65,55 5,0 8,7 8,17 0,9 3,14 6,11 6,-7 98,84 136,134 13,17 39,46 58,67 19,20 67,79 105,131 39,52 73,97 77,98 5,2 8,10 8,17 0,7 3,15 8,17 10,4 52,65 52,76 0,5 7,15 16,23 8,7 25,31 36,53 11,23 24,43 27,46 4,3 23,37 41,75 19,39 43,82 53,97 12,18 16,36 12,49 -5,14 -4,19 4,15 11,-7 37,45 96,194 47,118 107,289 110,314 2,12 14,64 28,116 14,52 28,113 32,135 4,22 9,49 11,60 2,11 6,34 9,50 16,84 29,218 29,322 1,46 4,83 7,83 3,0 5,53 3,118 -3,155 -17,357 -24,357 -1,0 -4,16 -5,35 -7,69 -14,120 -30,200 -3,14 -8,39 -11,55 -3,17 -12,50 -20,75 -9,25 -24,79 -34,120 -10,41 -30,102 -44,135 -14,33 -26,66 -26,72 0,7 -9,27 -20,45 -11,18 -20,41 -20,51 0,9 -4,17 -9,17 -5,0 -12,13 -16,30 -6,26 -62,142 -116,240 -5,8 -18,32 -29,53 -13,24 -25,35 -33,30 -9,-5 -9,-3 0,8 11,13 8,20 -12,39 -14,13 -25,28 -25,34 -1,20 -41,62 -47,49 -2,-7 -10,-13 -16,-13 -8,0 -7,4 1,12 19,19 14,38 -19,77 -16,20 -39,47 -50,59 -10,13 -19,28 -19,33 0,5 -4,9 -10,9 -5,0 -10,7 -10,15 0,8 -9,20 -20,27 -11,7 -20,18 -20,25 0,7 -4,13 -10,13 -5,0 -10,7 -10,15 0,8 -7,15 -15,15 -8,0 -15,5 -15,11 0,6 -13,24 -30,41 -16,16 -30,34 -30,39 0,14 -255,269 -268,269 -7,0 -12,6 -12,13 0,6 -19,25 -43,42 -65,45 -181,138 -190,152 -4,7 -13,13 -19,13 -5,0 -28,14 -49,31 -21,17 -43,28 -49,24 -5,-3 -10,1 -10,9 0,9 -5,16 -10,16 -6,0 -20,9 -32,20 -21,19 -23,19 -41,2 -19,-17 -20,-16 -7,8 7,14 9,22 5,18 -4,-4 -22,4 -40,18 -24,18 -35,22 -41,13 -5,-8 -11,-3 -21,15 -13,24 -28,31 -60,27 -7,-1 -13,4 -13,11 0,7 -15,20 -33,29 -32,16 -34,16 -50,-4 -9,-12 -17,-16 -17,-10 0,7 5,15 10,18 6,3 10,11 10,16 0,6 -4,7 -10,4 -5,-3 -10,-1 -10,4 0,6 -5,11 -11,11 -6,0 -24,9 -40,21 -16,11 -29,15 -29,9 0,-6 -7,-4 -17,5 -17,18 -72,41 -85,37 -5,-1 -8,3 -8,9 0,5 -8,9 -17,8 -10,-1 -44,10 -75,24 -31,15 -63,27 -71,27 -8,0 -28,7 -45,16 -18,8 -37,12 -43,8 -8,-5 -9,-3 -4,6 6,10 4,12 -8,7 -10,-4 -17,-2 -17,4 0,6 -6,9 -14,6 -7,-3 -18,-1 -23,4 -5,5 -24,11 -43,13 -19,3 -37,5 -40,6 -3,1 -9,3 -15,4 -5,1 -20,5 -33,10 -15,5 -28,3 -38,-5 -12,-10 -13,-9 -9,3 5,12 -2,17 -27,21 -19,2 -36,0 -40,-7 -5,-7 -8,-7 -8,3 0,9 -8,11 -27,7 -21,-5 -24,-4 -13,4 12,8 9,10 -15,11 -16,0 -39,3 -50,5 -11,3 -41,6 -67,7 -27,1 -48,5 -48,8 0,6 -42,10 -147,12 -33,1 -59,5 -56,10 2,4 -3,7 -12,7 -12,0 -15,-6 -10,-22 7,-23 7,-23 -10,1 -14,18 -19,20 -26,10 -6,-10 -9,-10 -9,-2 0,8 -24,12 -77,11 -43,0 -80,1 -83,2 -14,5 -60,5 -60,0 z m 25,-20 c 3,-5 1,-10 -4,-10 -6,0 -11,5 -11,10 0,6 2,10 4,10 3,0 8,-4 11,-10 z m -105,-20 c 0,-5 -7,-10 -15,-10 -8,0 -15,5 -15,10 0,6 7,10 15,10 8,0 15,-4 15,-10 z m 61,-7 c 13,-15 12,-15 -8,-4 -24,12 -29,21 -14,21 5,0 15,-7 22,-17 z m -131,-3 c 0,-5 -2,-10 -4,-10 -3,0 -8,5 -11,10 -3,6 -1,10 4,10 6,0 11,-4 11,-10 z m 194,-6 c 3,-8 2,-12 -4,-9 -6,3 -10,10 -10,16 0,14 7,11 14,-7 z m 61,-2 c -3,-3 -11,0 -18,7 -9,10 -8,11 6,5 10,-3 15,-9 12,-12 z m 125,14 c 0,-3 -4,-8 -10,-11 -5,-3 -10,-1 -10,4 0,6 5,11 10,11 6,0 10,-2 10,-4 z m -525,-26 c 7,0 16,5 18,10 3,6 4,5 3,-2 -1,-7 -12,-14 -24,-16 -16,-3 -22,2 -21,15 0,10 3,13 6,6 2,-7 11,-13 18,-13 z m 75,-1 c 0,-6 -7,-9 -15,-5 -8,3 -15,1 -15,-4 0,-6 -5,-10 -11,-10 -8,0 -8,5 1,15 15,17 40,20 40,4 z m 190,-15 c 0,-8 -4,-12 -10,-9 -5,3 -10,13 -10,21 0,8 5,12 10,9 6,-3 10,-13 10,-21 z m -387,-1 c -7,-3 -13,-12 -13,-21 0,-12 -3,-13 -12,-4 -9,9 -8,15 8,26 10,8 21,12 24,9 3,-3 -1,-8 -7,-10 z m 77,6 c 0,-5 -4,-8 -9,-4 -5,3 -12,1 -16,-5 -8,-13 -35,-13 -35,1 0,5 4,8 9,4 5,-3 12,-1 16,5 8,13 35,13 35,-1 z m 160,-8 c 0,-23 -29,-36 -44,-21 -7,7 -7,11 -1,10 22,-5 35,1 35,15 0,8 2,15 5,15 3,0 5,-9 5,-19 z m 111,4 c 11,6 11,5 2,-5 -12,-14 -33,-6 -33,13 0,8 3,7 9,-2 5,-8 14,-10 22,-6 z m -61,-32 c 0,-1 -5,-5 -12,-9 -7,-4 -8,-3 -4,4 4,7 1,12 -8,12 -9,0 -16,7 -16,15 0,12 3,12 20,-2 11,-10 20,-18 20,-20 z m 187,4 c -6,-19 -23,-18 -23,2 0,11 5,17 14,14 7,-3 11,-10 9,-16 z m 333,19 c 0,-2 -7,-9 -15,-16 -13,-11 -14,-10 -9,4 5,14 24,23 24,12 z m -920,-16 c 0,-5 -5,-10 -11,-10 -5,0 -7,5 -4,10 3,6 8,10 11,10 2,0 4,-4 4,-10 z m 245,-17 c 7,-19 0,-27 -14,-18 -6,3 -9,11 -6,16 4,5 -3,9 -15,9 -12,0 -19,4 -16,9 9,13 44,2 51,-16 z m 30,17 c 3,-5 1,-10 -4,-10 -6,0 -11,5 -11,10 0,6 2,10 4,10 3,0 8,-4 11,-10 z m 663,-10 c -7,-11 -16,-20 -20,-20 -5,0 -3,9 4,20 7,11 16,20 20,20 5,0 3,-9 -4,-20 z m 142,4 c 0,-8 -4,-12 -10,-9 -5,3 -10,10 -10,16 0,5 5,9 10,9 6,0 10,-7 10,-16 z m -602,-1 c -10,-2 -18,-11 -18,-19 0,-8 -5,-12 -10,-9 -15,9 8,35 29,34 13,-1 13,-2 -1,-6 z m 152,3 c 0,-3 -4,-8 -10,-11 -5,-3 -10,-1 -10,4 0,6 5,11 10,11 6,0 10,-2 10,-4 z m 720,-6 c 0,-5 -2,-10 -4,-10 -3,0 -8,5 -11,10 -3,6 -1,10 4,10 6,0 11,-4 11,-10 z m -1285,-21 c -10,-15 -25,-10 -19,6 4,8 10,12 15,9 5,-3 7,-10 4,-15 z m 75,11 c -19,-13 -30,-13 -30,0 0,6 10,10 23,10 18,0 19,-2 7,-10 z m 24,-25 c -10,-7 -23,-11 -28,-7 -6,3 0,10 12,15 12,6 22,15 23,21 0,6 3,5 6,-2 3,-7 -3,-19 -13,-27 z m 1063,13 c -3,-8 -6,-5 -6,6 -1,11 2,17 5,13 3,-3 4,-12 1,-19 z m -1243,-4 c 5,-14 4,-15 -9,-4 -17,14 -19,20 -6,20 5,0 12,-7 15,-16 z m 293,-6 c -3,-8 -6,-5 -6,6 -1,11 2,17 5,13 3,-3 4,-12 1,-19 z m 53,18 c 0,-2 -7,-6 -15,-10 -8,-3 -15,-1 -15,4 0,6 7,10 15,10 8,0 15,-2 15,-4 z m 194,-27 c -9,-16 -20,-10 -21,12 -2,17 1,18 12,9 8,-7 12,-16 9,-21 z m 202,4 c -10,-10 -19,5 -10,18 6,11 8,11 12,0 2,-7 1,-15 -2,-18 z m 152,9 c 2,-7 -1,-12 -8,-12 -6,0 -9,4 -6,9 4,5 1,12 -4,14 -6,3 -5,4 2,3 6,-1 14,-8 16,-14 z m 297,8 c -3,-5 -12,-10 -18,-10 -7,0 -6,4 3,10 19,12 23,12 15,0 z m -1310,-10 c 3,-5 1,-10 -4,-10 -6,0 -11,5 -11,10 0,6 2,10 4,10 3,0 8,-4 11,-10 z m 155,0 c 0,-5 -4,-10 -10,-10 -5,0 -10,5 -10,10 0,6 5,10 10,10 6,0 10,-4 10,-10 z m 194,-7 c 4,-9 1,-21 -5,-27 -9,-8 -10,-8 -5,2 4,7 2,19 -4,27 -7,9 -8,15 -2,15 5,0 13,-8 16,-17 z m 206,-1 c 8,2 15,-6 17,-17 2,-15 1,-16 -5,-5 -4,8 -13,15 -21,15 -8,0 -16,7 -18,15 -4,12 -2,12 5,2 5,-7 15,-12 22,-10 z m 510,4 c 0,-3 -4,-8 -10,-11 -5,-3 -10,-1 -10,4 0,6 5,11 10,11 6,0 10,-2 10,-4 z m 120,-17 c 0,-14 -17,-10 -23,5 -4,10 -1,13 9,9 7,-3 14,-9 14,-14 z m 40,11 c 0,-5 -2,-10 -4,-10 -3,0 -8,5 -11,10 -3,6 -1,10 4,10 6,0 11,-4 11,-10 z m 400,6 c 0,-3 -4,-8 -10,-11 -5,-3 -10,-1 -10,4 0,6 5,11 10,11 6,0 10,-2 10,-4 z m -913,-28 c -3,-8 -6,-5 -6,6 -1,11 2,17 5,13 3,-3 4,-12 1,-19 z m 103,18 c 0,-3 -4,-8 -10,-11 -5,-3 -10,-1 -10,4 0,6 5,11 10,11 6,0 10,-2 10,-4 z m 320,-6 c 8,-5 12,-11 10,-14 -3,-2 -14,2 -24,10 -22,15 -10,19 14,4 z m 196,1 c -3,-5 -16,-11 -28,-14 -22,-6 -22,-5 -4,8 22,17 40,20 32,6 z m -1356,-11 c 0,-5 -5,-10 -11,-10 -5,0 -7,5 -4,10 3,6 8,10 11,10 2,0 4,-4 4,-10 z m 60,6 c 0,-2 -7,-6 -15,-10 -8,-3 -15,-1 -15,4 0,6 7,10 15,10 8,0 15,-2 15,-4 z m 90,-10 c -4,-4 -16,-4 -26,2 -16,9 -14,10 8,9 15,-1 23,-6 18,-11 z m 110,-2 c 0,-8 -4,-12 -10,-9 -5,3 -10,10 -10,16 0,5 5,9 10,9 6,0 10,-7 10,-16 z m 170,12 c 0,-3 -4,-8 -10,-11 -5,-3 -10,-1 -10,4 0,6 5,11 10,11 6,0 10,-2 10,-4 z m 90,-6 c 0,-5 -5,-10 -11,-10 -5,0 -7,5 -4,10 3,6 8,10 11,10 2,0 4,-4 4,-10 z m 964,1 c 3,-5 -1,-11 -9,-14 -9,-4 -12,-1 -8,9 6,16 10,17 17,5 z m -537,-23 c -3,-8 -6,-5 -6,6 -1,11 2,17 5,13 3,-3 4,-12 1,-19 z m 53,12 c 0,-5 -2,-10 -4,-10 -3,0 -8,5 -11,10 -3,6 -1,10 4,10 6,0 11,-4 11,-10 z m -891,-11 c -18,-11 -39,-11 -39,0 0,5 12,9 26,9 18,0 22,-3 13,-9 z m 76,-11 c 6,-4 2,-8 -7,-8 -10,0 -18,7 -18,17 0,9 3,12 8,7 4,-5 12,-12 17,-16 z m 159,7 c 6,-17 -9,-21 -19,-5 -4,6 -11,7 -17,4 -7,-4 -8,-2 -4,4 10,17 33,15 40,-3 z m 121,3 c 14,-6 25,-15 25,-20 0,-5 -10,-3 -22,4 -13,7 -26,11 -30,10 -5,-1 -8,3 -8,8 0,13 3,13 35,-2 z m 95,-9 c 0,-6 -4,-7 -10,-4 -5,3 -10,11 -10,16 0,6 5,7 10,4 6,-3 10,-11 10,-16 z m 100,17 c 0,-2 -7,-6 -15,-10 -8,-3 -15,-1 -15,4 0,6 7,10 15,10 8,0 15,-2 15,-4 z m 130,0 c 0,-3 -4,-8 -10,-11 -5,-3 -10,-1 -10,4 0,6 5,11 10,11 6,0 10,-2 10,-4 z m 480,-6 c 0,-5 -4,-10 -10,-10 -5,0 -10,5 -10,10 0,6 5,10 10,10 6,0 10,-4 10,-10 z m 400,-2 c 0,-4 -6,-8 -14,-8 -8,0 -17,4 -20,8 -2,4 4,8 15,8 10,0 19,-4 19,-8 z m -1270,-42 c 0,-12 -5,-7 -19,24 -11,24 -11,24 3,6 9,-11 16,-24 16,-30 z m 190,34 c 0,-5 -4,-10 -10,-10 -5,0 -10,5 -10,10 0,6 5,10 10,10 6,0 10,-4 10,-10 z m 973,-18 c -4,-10 -8,-12 -11,-4 -2,7 -8,10 -13,6 -10,-6 -13,9 -3,19 12,11 33,-5 27,-21 z m 231,13 c -4,-8 -11,-15 -16,-15 -6,0 -5,6 2,15 7,8 14,15 16,15 2,0 1,-7 -2,-15 z m -1044,-11 c 0,-2 -7,-4 -15,-4 -8,0 -15,4 -15,10 0,5 7,7 15,4 8,-4 15,-8 15,-10 z m -530,-15 c 0,-5 -7,-9 -15,-9 -9,0 -12,6 -9,15 6,15 24,11 24,-6 z m 1475,-7 c -6,-7 -34,11 -29,19 3,5 11,3 19,-4 7,-6 12,-13 10,-15 z m -1418,12 c -3,-3 -12,-4 -19,-1 -8,3 -5,6 6,6 11,1 17,-2 13,-5 z m 99,-21 c -1,-1 -12,0 -25,4 -15,4 -19,8 -10,13 10,7 42,-10 35,-17 z m 172,15 c -2,-6 -10,-14 -16,-16 -7,-2 -10,2 -6,12 7,18 28,22 22,4 z m 951,9 c -2,-1 -13,-9 -24,-17 -19,-14 -19,-14 -6,3 7,9 18,17 24,17 6,0 8,-1 6,-3 z m 251,-1 c 0,-11 -19,-15 -25,-6 -3,5 1,10 9,10 9,0 16,-2 16,-4 z m -1320,-16 c 0,-5 -4,-10 -10,-10 -5,0 -10,5 -10,10 0,6 5,10 10,10 6,0 10,-4 10,-10 z m -460,-12 c 0,-4 -7,-8 -15,-8 -8,0 -15,4 -15,8 0,5 7,9 15,9 8,0 15,-4 15,-9 z m 300,0 c 0,-11 -12,-10 -30,2 -12,7 -10,9 8,7 12,0 22,-5 22,-9 z m 45,1 c 11,-17 -1,-21 -15,-4 -8,9 -8,15 -2,15 6,0 14,-5 17,-11 z m 387,2 c 16,4 30,3 33,-2 4,-5 16,-7 28,-4 12,3 31,6 42,6 43,2 241,-11 265,-16 14,-4 50,-8 80,-10 30,-2 74,-8 98,-13 27,-6 42,-6 42,0 0,5 7,2 16,-7 11,-11 25,-14 41,-10 16,4 22,2 18,-5 -4,-6 4,-10 18,-10 13,0 38,-5 56,-11 28,-10 34,-9 46,7 13,18 14,18 8,-3 -3,-13 -1,-24 3,-24 5,-1 24,-3 43,-5 19,-2 38,-9 41,-15 4,-5 11,-9 16,-7 5,1 18,-3 29,-9 11,-6 28,-9 38,-8 9,2 17,-1 17,-6 0,-5 11,-9 24,-9 14,0 28,-4 31,-10 3,-5 17,-10 31,-10 13,0 24,-4 24,-10 0,-5 16,-12 35,-16 19,-3 35,-10 35,-15 0,-5 5,-9 11,-9 26,0 277,-125 366,-183 24,-15 46,-27 51,-27 4,0 31,-18 61,-40 29,-22 59,-40 66,-40 7,0 15,-3 17,-7 2,-5 21,-21 43,-38 54,-40 73,-56 101,-82 13,-13 28,-23 34,-23 5,0 19,-9 30,-20 12,-12 26,-18 32,-14 6,4 8,3 4,-4 -3,-6 12,-28 35,-49 23,-21 50,-46 60,-57 10,-10 23,-15 30,-11 7,5 10,4 6,-1 -3,-5 39,-56 94,-114 54,-57 99,-99 99,-92 0,7 5,12 11,12 8,0 8,-4 0,-14 -14,-17 5,-56 26,-56 7,0 13,-7 13,-15 0,-8 3,-15 8,-15 4,-1 23,-25 42,-55 19,-30 38,-55 43,-55 4,0 7,-7 7,-15 0,-8 5,-15 10,-15 6,0 10,-4 10,-10 0,-5 26,-47 58,-92 31,-46 72,-112 91,-148 19,-36 39,-71 44,-78 39,-50 203,-473 189,-487 -4,-3 -1,-9 5,-13 17,-10 65,-211 90,-367 19,-124 24,-559 9,-710 -3,-22 -7,-67 -11,-100 -12,-121 -55,-329 -90,-430 -7,-22 -23,-73 -35,-114 -13,-41 -31,-88 -40,-105 -10,-17 -21,-42 -25,-56 -7,-27 -146,-312 -156,-320 -3,-3 -16,-25 -30,-50 -13,-25 -27,-46 -31,-48 -5,-2 -8,-10 -8,-18 0,-8 -4,-14 -10,-14 -5,0 -10,-5 -10,-12 0,-6 -19,-36 -42,-67 -24,-31 -57,-77 -74,-104 -18,-26 -51,-69 -75,-96 -24,-26 -82,-90 -129,-141 -81,-89 -103,-111 -160,-160 -14,-12 -47,-43 -75,-69 -69,-64 -110,-96 -271,-205 -144,-97 -228,-148 -276,-167 -16,-6 -28,-15 -28,-20 0,-5 -4,-9 -10,-9 -5,0 -42,-15 -82,-34 -40,-18 -131,-55 -203,-81 -71,-25 -142,-53 -158,-61 -15,-9 -31,-12 -37,-9 -5,3 -18,1 -29,-4 -11,-6 -37,-14 -58,-17 -21,-3 -58,-13 -83,-21 -24,-8 -53,-17 -65,-19 -11,-1 -36,-6 -55,-10 -19,-4 -47,-8 -62,-8 -16,-1 -28,-5 -28,-9 0,-5 -4,-6 -9,-3 -5,3 -31,2 -57,-3 -155,-29 -500,-31 -719,-5 -39,4 -229,38 -280,49 -35,7 -73,18 -95,26 -14,4 -38,11 -53,13 -28,5 -87,22 -117,33 -8,4 -17,7 -20,7 -3,1 -14,6 -25,12 -11,6 -40,17 -65,24 -25,7 -49,17 -54,22 -6,4 -18,8 -28,8 -10,0 -18,5 -18,10 0,6 -7,10 -16,10 -8,0 -42,13 -76,30 -33,16 -66,30 -73,30 -7,0 -15,4 -17,8 -1,4 -43,28 -93,52 -117,58 -301,181 -432,290 -23,19 -62,51 -85,70 -47,38 -255,245 -303,300 -59,69 -145,183 -145,191 0,5 -10,9 -22,9 -14,0 -18,3 -11,8 8,5 -5,30 -43,82 -30,41 -54,78 -54,83 0,5 -11,23 -24,40 -131,174 -330,693 -361,942 -1,11 -7,52 -13,90 -6,39 -14,90 -16,115 -3,25 -8,65 -11,90 -9,61 -12,530 -3,530 4,0 6,8 6,18 -2,22 27,182 55,302 12,52 20,101 19,108 -2,6 1,12 5,12 5,0 9,8 10,18 3,33 95,297 130,372 135,288 239,465 342,580 23,25 41,51 41,58 0,6 4,12 10,12 5,0 22,19 39,43 55,78 281,300 431,422 47,38 87,72 90,76 23,26 393,251 420,254 3,0 26,11 52,24 27,12 54,24 60,25 7,2 31,11 53,21 22,11 42,19 45,20 3,1 12,4 20,8 68,26 160,54 160,49 0,-4 4,-2 8,4 6,9 35,19 112,39 8,2 15,4 15,5 0,1 7,3 15,5 8,2 26,7 40,10 14,4 34,8 44,9 11,1 22,8 24,14 2,7 8,12 13,12 6,0 7,-6 3,-12 -6,-9 -3,-9 9,0 9,8 20,11 26,8 5,-4 17,1 25,10 9,8 16,11 16,5 0,-6 7,-8 15,-5 8,4 12,11 8,18 -4,7 -1,7 9,-1 8,-7 17,-11 19,-9 6,6 69,17 124,21 28,2 50,4 50,5 0,4 83,10 133,10 28,0 52,4 52,9 0,5 12,6 28,2 15,-4 39,-4 54,0 z m 1079,-24 c -10,-9 -11,-8 -5,6 3,10 9,15 12,12 3,-3 0,-11 -7,-18 z m -1861,1 c 0,-4 -11,-7 -24,-6 -14,1 -23,6 -20,9 6,10 44,7 44,-3 z m 95,2 c 3,-5 -1,-10 -9,-10 -9,0 -16,5 -16,10 0,6 4,10 9,10 6,0 13,-4 16,-10 z m 71,-17 c -7,-7 -26,7 -26,19 0,6 6,6 15,-2 9,-7 13,-15 11,-17 z m 1862,5 c -8,-12 -21,-24 -29,-26 -8,-2 -6,2 4,8 9,6 17,18 17,25 0,8 5,15 11,15 7,0 6,-8 -3,-22 z m -118,2 c 0,-5 -2,-10 -4,-10 -3,0 -8,5 -11,10 -3,6 -1,10 4,10 6,0 11,-4 11,-10 z m -1995,-10 c 3,-5 1,-10 -4,-10 -6,0 -11,5 -11,10 0,6 2,10 4,10 3,0 8,-4 11,-10 z m 305,0 c 0,-5 -4,-10 -10,-10 -5,0 -10,5 -10,10 0,6 5,10 10,10 6,0 10,-4 10,-10 z m 1850,1 c 0,-6 -4,-12 -8,-15 -5,-3 -9,1 -9,9 0,8 4,15 9,15 4,0 8,-4 8,-9 z m -2028,-23 c -7,-7 -12,-8 -12,-2 0,14 12,26 19,19 2,-3 -1,-11 -7,-17 z m 108,7 c 0,-12 -19,-12 -23,0 -4,9 -1,12 9,8 7,-3 14,-7 14,-8 z m 35,-5 c 3,-5 1,-10 -4,-10 -6,0 -11,5 -11,10 0,6 2,10 4,10 3,0 8,-4 11,-10 z m 1476,-13 c -10,-9 -11,-8 -5,6 3,10 9,15 12,12 3,-3 0,-11 -7,-18 z m 459,10 c 0,-8 -7,-14 -15,-14 -11,0 -12,4 -4,14 6,7 13,13 15,13 2,0 4,-6 4,-13 z m -2187,-38 c -5,-19 -7,-19 -15,-5 -10,18 -2,39 12,31 4,-3 6,-15 3,-26 z m 177,21 c 0,-5 -2,-10 -4,-10 -3,0 -8,5 -11,10 -3,6 -1,10 4,10 6,0 11,-4 11,-10 z m 1757,-12 c -3,-8 -6,-5 -6,6 -1,11 2,17 5,13 3,-3 4,-12 1,-19 z m 305,7 c 12,-16 9,-21 -10,-21 -10,0 -18,8 -18,17 0,19 16,21 28,4 z m -92,-1 c 0,-3 -6,-12 -14,-20 -8,-7 -16,-19 -19,-26 -2,-7 -8,-10 -12,-6 -4,4 1,18 12,32 17,24 33,33 33,20 z m -70,-46 c 0,-5 -7,-3 -15,6 -8,8 -15,18 -15,22 0,3 7,1 15,-6 8,-7 15,-17 15,-22 z m 117,-10 c -3,-8 -6,-5 -6,6 -1,11 2,17 5,13 3,-3 4,-12 1,-19 z m -267,2 c 0,-5 -5,-10 -11,-10 -5,0 -7,5 -4,10 3,6 8,10 11,10 2,0 4,-4 4,-10 z m 510,-10 c 0,-5 -4,-10 -10,-10 -5,0 -10,5 -10,10 0,6 5,10 10,10 6,0 10,-4 10,-10 z m -105,-30 c 3,-5 1,-10 -4,-10 -6,0 -11,5 -11,10 0,6 2,10 4,10 3,0 8,-4 11,-10 z m -218,-37 c -3,-10 -5,-4 -5,12 0,17 2,24 5,18 2,-7 2,-21 0,-30 z m 88,27 c 3,-5 2,-10 -4,-10 -5,0 -13,5 -16,10 -3,6 -2,10 4,10 5,0 13,-4 16,-10 z m 222,-52 c -3,-8 -6,-5 -6,6 -1,11 2,17 5,13 3,-3 4,-12 1,-19 z m -227,-8 c 0,-5 -5,-10 -11,-10 -5,0 -7,5 -4,10 3,6 8,10 11,10 2,0 4,-4 4,-10 z m 325,-120 c 3,-5 1,-10 -4,-10 -6,0 -11,5 -11,10 0,6 2,10 4,10 3,0 8,-4 11,-10 z m 650,-370 c 3,-5 1,-10 -4,-10 -6,0 -11,5 -11,10 0,6 2,10 4,10 3,0 8,-4 11,-10 z m 5,-110 c 0,-5 -5,-10 -11,-10 -5,0 -7,5 -4,10 3,6 8,10 11,10 2,0 4,-4 4,-10 z m 160,-210 c 0,-5 -2,-10 -4,-10 -3,0 -8,5 -11,10 -3,6 -1,10 4,10 6,0 11,-4 11,-10 z m 30,-34 c 0,-2 -8,-10 -17,-17 -16,-13 -17,-12 -4,4 13,16 21,21 21,13 z m -60,-10 c 0,-3 -4,-8 -10,-11 -5,-3 -10,-1 -10,4 0,6 5,11 10,11 6,0 10,-2 10,-4 z m 210,-70 c 0,-3 -4,-8 -10,-11 -5,-3 -10,-1 -10,4 0,6 5,11 10,11 6,0 10,-2 10,-4 z m -135,-56 c 3,-5 1,-10 -4,-10 -6,0 -11,5 -11,10 0,6 2,10 4,10 3,0 8,-4 11,-10 z M 2160,5990 c 0,-5 -4,-10 -10,-10 -5,0 -10,5 -10,10 0,6 5,10 10,10 6,0 10,-4 10,-10 z m 60,6 c 0,-2 -8,-10 -17,-17 -16,-13 -17,-12 -4,4 13,16 21,21 21,13 z m -115,-77 c -10,-15 -25,-10 -19,6 4,8 10,12 15,9 5,-3 7,-10 4,-15 z m 125,1 c 0,-5 -5,-10 -11,-10 -5,0 -7,5 -4,10 3,6 8,10 11,10 2,0 4,-4 4,-10 z m -40,-14 c 0,-3 -4,-8 -10,-11 -5,-3 -10,-1 -10,4 0,6 5,11 10,11 6,0 10,-2 10,-4 z m -80,-286 c 0,-5 -5,-10 -11,-10 -5,0 -7,5 -4,10 3,6 8,10 11,10 2,0 4,-4 4,-10 z m -10,-44 c 0,-3 -4,-8 -10,-11 -5,-3 -10,-1 -10,4 0,6 5,11 10,11 6,0 10,-2 10,-4 z m 50,-86 c 0,-5 -5,-10 -11,-10 -5,0 -7,5 -4,10 3,6 8,10 11,10 2,0 4,-4 4,-10 z"
       id="path2" />
    <path
       d="m 5000,7853 c 0,-5 -25,-7 -55,-6 -30,1 -55,-2 -55,-6 0,-3 -16,-6 -35,-6 -20,1 -38,-1 -40,-5 -2,-3 -24,-5 -49,-3 -31,2 -54,-2 -71,-13 -14,-9 -25,-12 -25,-7 0,13 -72,5 -81,-8 -3,-6 -8,-10 -10,-9 -12,4 -89,-14 -89,-21 0,-5 -7,-6 -15,-3 -8,4 -15,1 -15,-6 0,-7 -7,-10 -16,-6 -8,3 -25,1 -37,-6 -12,-7 -30,-11 -39,-9 -10,1 -18,-3 -18,-9 0,-7 -8,-9 -20,-5 -14,4 -22,1 -26,-10 -5,-13 -8,-14 -15,-3 -6,10 -11,10 -21,0 -6,-6 -20,-12 -30,-12 -10,0 -18,-4 -18,-10 0,-6 -3,-9 -7,-8 -15,4 -73,-14 -73,-22 0,-8 -32,-21 -62,-25 -10,-1 -24,-8 -33,-15 -8,-7 -15,-10 -15,-6 0,9 -111,-34 -140,-54 -14,-10 -36,-21 -50,-25 -14,-4 -27,-10 -30,-14 -3,-3 -32,-19 -65,-36 -33,-16 -62,-32 -65,-35 -10,-10 -45,-31 -62,-36 -9,-3 -19,-12 -22,-20 -3,-8 -12,-14 -19,-14 -8,0 -28,-12 -45,-27 -61,-56 -121,-103 -129,-103 -12,0 -331,-315 -384,-379 -24,-29 -49,-59 -54,-65 -32,-34 -113,-147 -184,-256 -167,-254 -278,-529 -360,-885 -12,-55 -29,-169 -37,-255 -3,-30 -7,-66 -10,-80 -9,-48 -4,-423 5,-479 6,-31 13,-78 16,-106 5,-47 8,-65 20,-125 3,-14 8,-41 11,-60 4,-19 8,-42 10,-50 4,-21 102,-331 113,-355 4,-11 16,-37 25,-58 9,-21 16,-43 16,-50 1,-42 251,-474 300,-517 3,-3 23,-30 45,-60 86,-119 257,-302 383,-410 29,-25 67,-58 85,-74 43,-38 163,-126 212,-156 22,-13 42,-27 45,-30 9,-11 74,-47 110,-60 19,-8 53,-25 75,-39 22,-14 42,-26 45,-27 13,-3 46,-18 50,-23 5,-7 110,-56 119,-56 3,-1 34,-13 68,-29 34,-16 64,-28 67,-27 3,0 30,-8 58,-18 68,-25 224,-67 319,-85 41,-8 85,-18 99,-20 58,-13 78,-16 130,-21 30,-3 73,-9 95,-12 60,-9 395,-4 516,7 508,48 1037,256 1424,561 44,35 86,68 94,74 18,14 269,264 302,301 65,73 249,316 249,328 0,3 13,24 29,48 32,47 156,287 185,358 88,213 167,495 191,680 24,191 25,720 1,720 -4,0 -6,12 -3,26 2,15 1,41 -4,58 -4,17 -10,54 -13,81 -6,62 -55,245 -102,378 -69,199 -180,430 -258,536 -20,27 -36,53 -36,59 0,6 -4,12 -8,14 -4,2 -37,44 -72,93 -135,189 -361,423 -525,544 -33,25 -62,47 -65,51 -5,5 -29,22 -89,62 -14,10 -33,21 -41,25 -8,3 -31,18 -50,33 -36,28 -69,44 -82,42 -5,-1 -8,2 -8,7 0,14 -131,81 -143,74 -6,-3 -7,-1 -3,5 4,7 -3,14 -19,18 -14,3 -25,10 -25,15 0,5 -6,9 -12,9 -7,0 -26,7 -43,16 -45,24 -133,53 -139,46 -3,-3 -6,0 -6,6 0,7 -14,12 -31,12 -16,0 -28,4 -25,8 6,11 -163,64 -176,55 -6,-3 -5,-9 3,-15 11,-8 11,-9 -1,-5 -8,2 -14,10 -13,18 2,10 -30,22 -112,43 -64,15 -122,26 -130,23 -7,-3 -15,-1 -17,5 -3,7 -23,12 -46,12 -23,0 -42,4 -42,8 0,11 -58,10 -65,-1 -8,-14 -45,-9 -45,5 0,21 -32,25 -46,7 -10,-12 -12,-13 -9,-3 4,11 -2,15 -20,15 -14,0 -25,-3 -25,-6 0,-3 -7,-6 -15,-6 -8,0 -15,5 -15,10 0,5 -7,6 -15,3 -9,-3 -25,0 -36,7 -16,10 -21,9 -29,-3 -6,-9 -10,-10 -10,-3 0,13 -96,13 -117,0 -6,-4 -13,-2 -15,4 -3,9 -10,9 -27,0 -17,-9 -26,-10 -34,-2 -13,13 -27,14 -27,4 z m 170,-33 c 0,-5 -7,-10 -16,-10 -8,0 -12,5 -9,10 3,6 10,10 16,10 5,0 9,-4 9,-10 z m 35,0 c -3,-5 -11,-10 -16,-10 -6,0 -7,5 -4,10 3,6 11,10 16,10 6,0 7,-4 4,-10 z m -304,-14 c 8,4 9,3 5,-4 -10,-17 -33,-15 -40,4 -5,14 -4,15 8,5 8,-7 21,-9 27,-5 z m 409,4 c 0,-5 -2,-10 -4,-10 -3,0 -8,5 -11,10 -3,6 -1,10 4,10 6,0 11,-4 11,-10 z m -190,-4 c 0,-3 -4,-8 -10,-11 -5,-3 -10,-1 -10,4 0,6 5,11 10,11 6,0 10,-2 10,-4 z m 240,0 c 0,-3 -4,-8 -10,-11 -5,-3 -10,-1 -10,4 0,6 5,11 10,11 6,0 10,-2 10,-4 z m -120,-31 c 0,-8 -4,-15 -10,-15 -5,0 -10,7 -10,15 0,8 5,15 10,15 6,0 10,-7 10,-15 z m 355,5 c 3,-5 1,-10 -5,-10 -7,0 -10,-7 -7,-14 4,-10 1,-13 -9,-9 -10,4 -12,9 -4,18 5,6 7,15 3,18 -3,4 -1,7 5,7 6,0 14,-4 17,-10 z m -242,-15 c -3,-9 -8,-14 -10,-11 -3,3 -2,9 2,15 9,16 15,13 8,-4 z m -243,-19 c 0,-3 -4,-8 -10,-11 -5,-3 -10,-1 -10,4 0,6 5,11 10,11 6,0 10,-2 10,-4 z m 60,-5 c 0,-5 -6,-14 -14,-20 -12,-10 -14,-9 -11,6 2,10 4,19 4,21 2,6 21,1 21,-7 z m 331,-18 c -12,-20 -14,-14 -5,12 4,9 9,14 11,11 3,-2 0,-13 -6,-23 z m 149,17 c -8,-5 -19,-10 -25,-10 -5,0 -3,5 5,10 8,5 20,10 25,10 6,0 3,-5 -5,-10 z m -749,-17 c 11,-15 11,-16 -1,-5 -18,15 -34,16 -24,0 4,-7 3,-8 -5,-4 -12,8 -6,26 8,26 5,0 15,-8 22,-17 z m 422,3 c 4,-10 1,-13 -9,-9 -15,6 -19,23 -5,23 5,0 11,-7 14,-14 z m 44,-8 c -3,-8 -6,-5 -6,6 -1,11 2,17 5,13 3,-3 4,-12 1,-19 z m 60,16 c -3,-3 -12,-4 -19,-1 -8,3 -5,6 6,6 11,1 17,-2 13,-5 z m 26,-9 c -3,-9 -8,-14 -10,-11 -3,3 -2,9 2,15 9,16 15,13 8,-4 z m -973,-5 c 0,-5 -5,-10 -11,-10 -5,0 -7,5 -4,10 3,6 8,10 11,10 2,0 4,-4 4,-10 z m 702,-12 c -7,-7 -12,-8 -12,-2 0,14 12,26 19,19 2,-3 -1,-11 -7,-17 z m 488,2 c 0,-5 -2,-10 -4,-10 -3,0 -8,5 -11,10 -3,6 -1,10 4,10 6,0 11,-4 11,-10 z m -46,-15 c -4,-8 -7,-15 -9,-15 -2,0 -5,7 -9,15 -3,9 0,15 9,15 9,0 12,-6 9,-15 z m -1124,-5 c 0,-5 -4,-10 -10,-10 -5,0 -10,5 -10,10 0,6 5,10 10,10 6,0 10,-4 10,-10 z m 300,6 c 0,-3 -4,-8 -10,-11 -5,-3 -10,-1 -10,4 0,6 5,11 10,11 6,0 10,-2 10,-4 z m 915,-6 c 3,-5 1,-10 -4,-10 -6,0 -11,5 -11,10 0,6 2,10 4,10 3,0 8,-4 11,-10 z m -524,-23 c -10,-9 -11,-8 -5,6 3,10 9,15 12,12 3,-3 0,-11 -7,-18 z m -198,-4 c -5,-15 -4,-16 8,-7 8,7 33,9 63,5 42,-5 52,-11 67,-38 16,-29 17,-33 3,-33 -10,0 -14,-6 -10,-15 4,-12 -3,-15 -32,-16 -82,-2 -180,-9 -230,-17 -59,-10 -98,1 -105,29 -8,29 13,48 71,65 31,9 65,20 74,25 23,12 31,11 23,0 -8,-14 43,-7 57,7 16,16 18,15 11,-5 z m 417,7 c 0,-5 -4,-10 -9,-10 -6,0 -13,5 -16,10 -3,6 1,10 9,10 9,0 16,-4 16,-10 z m -16,-60 c -6,-5 -24,21 -24,34 0,6 6,1 14,-10 8,-10 12,-21 10,-24 z m -1014,20 c 0,-5 -5,-10 -11,-10 -5,0 -7,5 -4,10 3,6 8,10 11,10 2,0 4,-4 4,-10 z m 130,0 c 0,-5 -2,-10 -4,-10 -3,0 -8,5 -11,10 -3,6 -1,10 4,10 6,0 11,-4 11,-10 z m 770,6 c 0,-11 -19,-15 -25,-6 -3,5 1,10 9,10 9,0 16,-2 16,-4 z m -80,-10 c 0,-3 -4,-8 -10,-11 -5,-3 -10,-1 -10,4 0,6 5,11 10,11 6,0 10,-2 10,-4 z m -950,-10 c 0,-3 -4,-8 -10,-11 -5,-3 -10,-1 -10,4 0,6 5,11 10,11 6,0 10,-2 10,-4 z m 1015,-46 c 3,-5 1,-10 -4,-10 -6,0 -11,5 -11,10 0,6 2,10 4,10 3,0 8,-4 11,-10 z m -1025,-70 c 0,-5 -4,-10 -10,-10 -5,0 -10,5 -10,10 0,6 5,10 10,10 6,0 10,-4 10,-10 z m -130,-87 c 11,-10 20,-23 20,-31 0,-25 -32,-61 -60,-67 -16,-4 -45,-17 -65,-30 -19,-14 -35,-23 -35,-20 0,6 -141,-74 -177,-101 -17,-13 -35,-24 -39,-24 -6,0 -134,-88 -144,-99 -3,-4 -39,-33 -80,-65 -41,-33 -137,-122 -212,-198 -75,-76 -143,-138 -151,-138 -21,0 -43,30 -39,52 4,20 24,49 55,77 9,8 17,18 17,22 0,14 257,256 340,319 18,14 44,35 58,48 14,12 31,22 38,22 8,0 14,4 14,8 0,8 46,37 168,109 59,35 253,133 263,133 5,0 18,-8 29,-17 z m 2055,7 c 3,-5 1,-10 -4,-10 -6,0 -11,5 -11,10 0,6 2,10 4,10 3,0 8,-4 11,-10 z m -775,-20 c 52,-5 120,-15 150,-21 30,-7 64,-13 75,-14 40,-5 110,-27 133,-41 27,-18 28,-35 4,-64 -19,-24 -29,-23 -169,4 -88,18 -311,37 -423,37 -125,0 -365,-17 -381,-27 -4,-2 -25,-6 -48,-9 -132,-17 -441,-116 -587,-188 -322,-160 -476,-273 -717,-526 -61,-64 -100,-79 -112,-42 -9,29 8,60 78,142 85,98 220,218 337,300 253,177 557,326 725,356 11,2 51,13 89,24 39,12 84,23 100,25 17,2 38,6 46,8 8,1 36,6 63,11 26,4 47,11 47,15 0,5 8,6 18,4 9,-2 60,2 112,9 103,14 308,13 460,-3 z m 1155,-215 c 202,-131 488,-398 573,-536 28,-45 19,-81 -21,-85 -22,-2 -37,10 -91,74 -122,145 -264,276 -479,441 -53,40 -98,80 -101,88 -3,8 1,25 10,37 18,29 39,25 109,-19 z m -355,-25 c 19,-14 47,-34 63,-43 34,-22 38,-72 7,-82 -20,-6 -129,38 -141,58 -4,5 -11,7 -17,3 -5,-3 -12,1 -16,9 -3,8 -12,15 -20,15 -24,0 -47,40 -35,62 24,45 78,37 159,-22 z m -775,-38 c 33,-6 82,-14 109,-17 71,-9 174,-31 224,-49 23,-8 46,-16 50,-17 4,-1 17,-5 30,-10 13,-5 28,-9 34,-9 9,0 34,-10 113,-45 86,-38 285,-139 285,-145 0,-4 12,-12 26,-19 29,-13 126,-82 211,-149 50,-41 54,-47 51,-80 -3,-32 -7,-37 -31,-40 -21,-3 -43,10 -100,56 -116,96 -363,241 -462,272 -22,7 -44,16 -50,20 -20,14 -193,69 -295,94 -139,33 -242,46 -440,53 -91,3 -171,10 -177,16 -20,15 -15,54 8,71 18,12 52,14 188,11 91,-1 193,-8 226,-13 z m -21,-247 c 158,-19 185,-31 186,-82 0,-22 -26,-43 -45,-37 -47,16 -333,34 -470,30 -178,-6 -189,-7 -295,-31 -41,-9 -86,-19 -99,-21 -13,-3 -32,-9 -42,-14 -10,-6 -27,-10 -38,-10 -11,0 -40,-9 -63,-19 -24,-11 -63,-28 -88,-38 -25,-10 -88,-39 -141,-65 -54,-27 -103,-48 -111,-48 -24,0 -51,36 -43,59 12,38 214,145 360,191 103,32 254,71 298,77 21,3 50,8 65,12 53,15 395,13 526,-4 z m 555,-220 c 73,-36 161,-92 173,-109 17,-25 8,-56 -18,-62 -20,-5 -54,8 -153,59 -111,58 -126,68 -129,93 -4,28 18,54 45,54 7,0 44,-16 82,-35 z m 845,-16 c 28,-32 41,-71 33,-92 -7,-20 -57,-20 -57,0 0,9 -3,13 -7,10 -14,-15 -53,36 -53,69 0,52 45,60 84,13 z m -1454,-14 c 19,-3 52,-7 72,-10 85,-10 162,-27 184,-42 27,-17 32,-54 9,-73 -16,-13 -38,-12 -189,14 -48,9 -146,18 -217,22 -125,7 -130,8 -135,30 -8,32 1,53 28,63 23,9 179,6 248,-4 z M 3402,6287 c 92,-41 118,-107 69,-174 -30,-41 -79,-44 -149,-11 -103,49 -233,-28 -208,-124 12,-48 61,-87 186,-147 121,-59 230,-138 230,-168 0,-7 5,-13 11,-13 6,0 9,-6 6,-12 -2,-7 0,-21 5,-31 27,-52 15,-205 -22,-274 -36,-69 -114,-136 -168,-147 -10,-1 -37,-8 -61,-15 -60,-17 -180,-8 -261,19 -118,40 -187,110 -176,179 8,49 37,84 77,95 29,7 45,2 116,-33 93,-46 155,-55 215,-29 66,29 95,107 60,163 -17,28 -75,61 -212,122 -81,37 -156,96 -184,147 -33,59 -40,89 -40,171 0,134 107,260 253,302 72,20 186,11 253,-20 z m 468,13 c 12,-6 25,-21 29,-33 5,-12 9,-164 10,-337 1,-173 4,-331 8,-350 18,-107 94,-173 190,-166 28,2 59,9 71,15 26,14 67,66 81,104 7,18 11,157 12,374 2,380 0,370 64,397 52,22 134,5 153,-31 11,-22 9,-759 -3,-820 -4,-24 -11,-43 -15,-43 -4,0 -10,-12 -13,-27 -11,-55 -155,-183 -204,-183 -7,0 -13,-4 -13,-8 0,-4 -9,-8 -20,-9 -43,-4 -206,-3 -220,0 -86,21 -124,40 -177,89 -49,44 -86,94 -103,138 -17,47 -27,811 -11,853 19,49 103,68 161,37 z m 1096,7 c 132,-4 144,-6 193,-32 68,-38 113,-89 141,-161 21,-54 22,-66 13,-142 -7,-55 -17,-93 -30,-110 -39,-52 -38,-68 5,-117 56,-63 92,-144 92,-205 0,-79 -19,-147 -57,-202 -43,-62 -75,-91 -130,-118 -57,-29 -106,-34 -325,-34 -174,-1 -188,0 -205,19 -11,11 -22,29 -26,39 -4,11 -8,242 -7,514 0,547 -2,533 62,550 18,4 55,7 83,5 27,-1 113,-4 191,-6 z m 1456,3 c 20,-6 46,-22 57,-36 19,-24 19,-43 21,-432 0,-224 5,-411 9,-415 5,-5 60,-9 123,-8 97,1 118,-2 146,-19 17,-11 33,-28 33,-37 7,-100 -1,-137 -35,-155 -11,-7 -23,-13 -26,-14 -3,0 -13,-4 -23,-8 -27,-13 -379,-1 -404,12 -13,7 -28,22 -34,35 -17,30 -14,996 3,1032 6,13 27,31 47,39 44,18 38,18 83,6 z m 1009,-9 c 50,-16 70,-42 75,-95 5,-50 -13,-88 -50,-109 -13,-7 -77,-12 -166,-14 -80,-1 -151,-2 -158,-2 -10,-1 -12,-24 -10,-98 l 3,-98 150,2 c 87,1 161,-2 177,-8 17,-7 32,-25 42,-50 29,-71 19,-120 -32,-151 -32,-19 -50,-22 -176,-23 -78,-1 -147,-3 -154,-4 -20,-2 -14,-197 6,-214 11,-8 63,-12 173,-12 150,0 160,-1 180,-22 27,-27 38,-118 19,-163 -23,-54 -41,-58 -303,-56 l -238,2 -27,27 -27,27 -2,504 -2,504 26,26 c 14,14 28,26 32,27 18,2 55,10 57,12 9,9 375,-2 405,-12 z m -1309,-3 c 50,-15 72,-52 63,-111 -12,-79 -47,-103 -155,-106 -41,-1 -78,-5 -82,-9 -4,-4 -8,-187 -9,-407 -1,-220 -6,-411 -11,-425 -5,-14 -17,-32 -26,-40 -21,-19 -103,-26 -131,-10 -48,25 -50,39 -51,475 0,225 -3,411 -5,414 -3,2 -48,4 -99,3 -81,-1 -98,2 -120,19 -26,20 -47,75 -41,106 2,10 4,24 4,31 1,8 15,27 32,43 l 31,29 h 280 c 187,0 294,-4 320,-12 z M 2747,6064 c 3,-9 -11,-87 -32,-173 -50,-210 -56,-230 -71,-242 -19,-16 -61,-3 -67,20 -9,37 44,267 85,364 18,41 24,47 50,47 17,0 31,-6 35,-16 z m -137,-730 c 0,-97 -11,-124 -49,-124 -32,0 -41,22 -41,101 0,92 13,136 43,141 37,7 47,-18 47,-118 z m 4729,-342 c 15,-28 6,-116 -31,-315 -11,-60 -21,-123 -23,-140 -6,-75 -56,-120 -93,-84 -14,15 -14,26 6,129 26,136 41,233 48,313 8,89 21,115 55,115 17,0 32,-7 38,-18 z m -4553,-7 c 18,-12 23,-29 29,-102 16,-202 35,-310 86,-493 61,-219 153,-430 276,-630 35,-58 69,-114 76,-125 7,-11 14,-22 17,-25 3,-3 17,-21 30,-40 13,-19 68,-91 123,-159 111,-140 124,-163 101,-186 -9,-8 -21,-15 -27,-15 -33,1 -97,64 -177,175 -24,33 -57,74 -72,90 -15,17 -28,32 -28,35 0,3 -38,64 -85,135 -245,369 -410,869 -416,1254 -1,61 2,77 17,88 22,16 25,16 50,-2 z m 781,-6 c 36,-22 63,-65 63,-99 0,-11 4,-20 8,-20 5,0 9,-6 10,-12 1,-23 13,-72 46,-198 19,-69 37,-138 41,-155 12,-46 12,-45 34,-120 11,-38 27,-96 36,-127 25,-92 47,-73 79,67 9,39 23,93 31,120 8,28 17,66 20,85 7,40 21,99 37,150 6,19 12,44 14,55 1,11 13,60 25,109 18,70 29,95 54,119 47,44 94,46 139,6 20,-17 35,-34 34,-37 -1,-4 3,-25 9,-47 11,-45 43,-172 49,-195 10,-46 95,-356 117,-430 19,-65 37,-58 59,25 10,39 20,81 23,95 2,14 9,39 15,55 6,17 14,48 16,70 3,22 9,45 15,51 5,6 6,13 3,16 -3,4 1,19 10,36 8,16 13,32 11,34 -3,3 4,34 15,69 12,35 25,87 31,114 5,28 13,59 18,70 5,11 13,32 19,47 15,36 50,58 102,62 61,5 106,-10 130,-43 31,-45 32,-38 -75,-416 -14,-49 -28,-103 -31,-120 -3,-16 -14,-55 -23,-85 -10,-30 -24,-80 -30,-110 -7,-30 -16,-64 -21,-75 -17,-40 -32,-91 -45,-152 -23,-103 -76,-261 -96,-288 -22,-27 -86,-50 -136,-47 -42,2 -97,38 -116,77 -9,16 -30,77 -47,135 -17,58 -42,139 -55,180 -13,41 -31,103 -40,138 -10,34 -21,62 -25,62 -10,0 -37,-67 -46,-110 -3,-19 -10,-39 -14,-45 -4,-5 -20,-55 -35,-110 -36,-135 -71,-232 -97,-268 -23,-32 -96,-70 -113,-58 -5,4 -21,6 -34,5 -35,-2 -83,27 -104,63 -16,28 -62,169 -70,217 -2,11 -6,28 -9,36 -33,100 -55,176 -103,350 -31,113 -76,275 -100,360 -23,85 -45,166 -48,179 -9,39 17,88 60,110 49,26 97,26 140,0 z m 2186,-19 c 30,-27 32,-32 32,-98 0,-120 -24,-132 -285,-134 -133,-2 -186,-6 -195,-15 -20,-19 -19,-167 1,-187 19,-20 4,-18 214,-20 168,-1 176,-2 207,-25 83,-63 64,-227 -29,-247 -5,-1 -9,-3 -10,-4 -2,-1 -60,-3 -129,-5 -70,-1 -131,-5 -137,-9 -6,-3 -13,-3 -16,2 -4,6 -35,7 -109,3 -11,-1 -7,-260 5,-267 16,-10 57,-13 223,-14 211,-2 248,-18 261,-113 11,-80 -20,-139 -78,-153 -5,-1 -9,-3 -10,-4 -7,-7 -608,-5 -608,2 0,4 -9,8 -19,8 -13,0 -23,11 -31,35 -13,39 -17,165 -6,183 4,7 4,18 -1,25 -10,15 -11,367 -1,367 4,0 4,10 -1,23 -4,12 -7,150 -6,307 1,320 5,341 68,359 17,5 166,9 330,9 l 298,1 z m 733,10 c 9,-8 20,-14 23,-13 13,5 108,-57 136,-88 48,-54 88,-146 90,-208 4,-102 -30,-215 -72,-241 -17,-9 -16,-12 6,-28 48,-34 121,-118 142,-161 40,-84 30,-252 -21,-351 -27,-53 -114,-141 -160,-163 -109,-52 -127,-54 -397,-53 l -255,1 -22,28 c -13,16 -24,36 -25,45 -1,9 -3,276 -4,592 -1,525 0,578 16,607 11,21 29,36 50,42 18,6 128,9 254,8 176,-2 225,-6 239,-17 z m 1083,-3 c 10,-13 1,-170 -14,-247 -3,-14 -8,-45 -11,-70 -5,-37 -21,-121 -39,-202 -45,-203 -140,-444 -252,-636 -65,-113 -248,-369 -274,-383 -29,-15 -49,-10 -60,15 -9,19 -6,31 17,67 15,24 44,64 65,89 115,139 274,450 354,700 62,189 122,472 130,605 2,45 22,75 49,75 13,0 29,-6 35,-13 z m -4546,-99 c 12,-9 20,-38 27,-93 6,-44 14,-109 19,-145 10,-77 7,-88 -25,-96 -43,-11 -57,12 -69,115 -3,23 -7,47 -10,51 -3,5 -8,38 -11,75 -5,55 -3,70 12,86 20,22 34,24 57,7 z m 4057,-108 c 6,-12 9,-40 6,-63 -12,-88 -18,-123 -27,-139 -5,-9 -9,-29 -9,-45 0,-36 -25,-73 -50,-73 -30,0 -52,29 -45,59 4,14 16,71 26,126 20,105 22,110 34,138 10,24 52,22 65,-3 z M 3282,4228 c 8,-13 20,-36 26,-53 6,-16 20,-54 31,-83 25,-67 16,-102 -26,-102 -22,0 -32,8 -45,33 -26,48 -58,148 -58,177 0,50 46,68 72,28 z m 1476,-697 c 87,-19 241,-36 401,-45 67,-3 88,-8 98,-22 17,-24 16,-39 -4,-60 -15,-15 -34,-16 -168,-11 -141,6 -359,35 -433,58 -40,13 -53,50 -27,79 22,25 25,25 133,1 z m -778,-44 c 25,-12 63,-34 85,-48 66,-42 233,-119 350,-160 120,-43 338,-91 510,-113 117,-15 149,-33 138,-76 -8,-32 -43,-34 -223,-11 -257,33 -476,99 -715,216 -175,86 -245,134 -245,170 0,22 22,44 45,45 6,0 30,-10 55,-23 z m 2334,-43 c 34,-33 10,-69 -79,-118 -16,-10 -48,-28 -70,-41 -65,-40 -123,-30 -111,19 4,16 22,34 54,52 26,14 66,39 90,55 23,16 47,29 52,29 6,0 10,5 10,10 0,16 37,12 54,-6 z m -394,-14 c 24,-45 -26,-80 -186,-131 -155,-50 -363,-89 -398,-76 -10,4 -16,18 -16,36 0,38 26,52 125,70 123,23 340,85 383,110 30,18 80,13 92,-9 z M 3825,3294 c 28,-19 95,-61 150,-91 137,-77 185,-111 185,-131 0,-24 -19,-42 -44,-42 -23,0 -239,112 -334,173 -73,48 -90,73 -72,107 16,30 58,25 115,-16 z m 2969,-60 c 29,-11 19,-60 -17,-94 -53,-48 -139,-110 -153,-110 -14,0 -44,27 -44,39 0,17 44,63 108,116 68,55 78,60 106,49 z m -340,-26 c 18,-29 -10,-61 -97,-110 -167,-95 -335,-168 -492,-216 -265,-81 -417,-102 -705,-97 -291,5 -350,16 -350,64 1,41 14,45 132,41 288,-10 580,8 703,42 22,6 49,12 60,14 11,1 52,12 90,24 39,12 84,25 100,30 64,16 226,87 360,156 141,73 179,83 199,52 z M 3985,2959 c 33,-17 71,-37 85,-45 146,-79 418,-170 640,-213 170,-33 262,-39 500,-34 289,6 281,6 298,-11 18,-18 9,-61 -15,-70 -37,-15 -305,-27 -438,-21 -366,17 -629,80 -950,227 -161,74 -231,113 -239,135 -8,21 20,63 42,63 10,0 44,-14 77,-31 z"
       id="path4" />
    <path
       d="m 4854,6078 c -9,-15 -5,-158 6,-178 7,-13 22,-14 88,-10 92,7 124,23 138,71 25,83 -17,120 -140,125 -55,2 -88,0 -92,-8 z"
       id="path6" />
    <path
       d="m 4866,5649 c -20,-16 -22,-25 -20,-121 1,-56 3,-107 3,-111 1,-5 56,-6 122,-3 115,5 124,7 150,32 63,61 60,134 -9,190 -35,27 -43,29 -130,30 -75,0 -98,-3 -116,-17 z"
       id="path8" />
    <path
       d="m 6204,4716 c -17,-18 -15,-177 2,-196 12,-15 61,-18 187,-11 10,1 29,13 42,27 49,53 20,162 -48,183 -44,13 -170,11 -183,-3 z"
       id="path10" />
    <path
       d="m 6217,4205 c -21,-10 -22,-17 -22,-127 0,-145 3,-149 115,-142 179,10 196,15 229,74 34,60 10,141 -54,180 -30,19 -52,23 -141,24 -61,2 -114,-2 -127,-9 z"
       id="path12" />
    <path
       d="m 5450,7836 c 0,-2 7,-7 16,-10 8,-3 12,-2 9,4 -6,10 -25,14 -25,6 z"
       id="path14" />
  </g>
</svg>
